%TF.GenerationSoftware,KiCad,Pcbnew,9.0.8*%
%TF.CreationDate,2026-03-20T17:13:54-07:00*%
%TF.ProjectId,keyscar_kicad,6b657973-6361-4725-9f6b-696361642e6b,rev?*%
%TF.SameCoordinates,Original*%
%TF.FileFunction,Paste,Top*%
%TF.FilePolarity,Positive*%
%FSLAX46Y46*%
G04 Gerber Fmt 4.6, Leading zero omitted, Abs format (unit mm)*
G04 Created by KiCad (PCBNEW 9.0.8) date 2026-03-20 17:13:54*
%MOMM*%
%LPD*%
G01*
G04 APERTURE LIST*
%ADD10C,0.150000*%
%ADD11R,1.000000X1.500000*%
%ADD12R,1.500000X1.500000*%
%ADD13R,2.500000X1.199898*%
%ADD14R,0.600000X1.500000*%
%ADD15R,0.300000X1.000000*%
G04 APERTURE END LIST*
D10*
%TO.C,USBC_MALE1*%
X252659881Y-74000000D02*
X252359881Y-74000000D01*
X252359881Y-73000000D01*
X252659881Y-73000000D01*
X252659881Y-74000000D01*
G36*
X252659881Y-74000000D02*
G01*
X252359881Y-74000000D01*
X252359881Y-73000000D01*
X252659881Y-73000000D01*
X252659881Y-74000000D01*
G37*
X252660135Y-75549912D02*
X252360122Y-75549912D01*
X252360122Y-74549912D01*
X252660135Y-74549912D01*
X252660135Y-75549912D01*
G36*
X252660135Y-75549912D02*
G01*
X252360122Y-75549912D01*
X252360122Y-74549912D01*
X252660135Y-74549912D01*
X252660135Y-75549912D01*
G37*
X253160008Y-74000000D02*
X252860008Y-74000000D01*
X252860008Y-73000000D01*
X253160008Y-73000000D01*
X253160008Y-74000000D01*
G36*
X253160008Y-74000000D02*
G01*
X252860008Y-74000000D01*
X252860008Y-73000000D01*
X253160008Y-73000000D01*
X253160008Y-74000000D01*
G37*
X253160008Y-75549912D02*
X252860008Y-75549912D01*
X252860008Y-74549912D01*
X253160008Y-74549912D01*
X253160008Y-75549912D01*
G36*
X253160008Y-75549912D02*
G01*
X252860008Y-75549912D01*
X252860008Y-74549912D01*
X253160008Y-74549912D01*
X253160008Y-75549912D01*
G37*
X253659881Y-74000000D02*
X253359881Y-74000000D01*
X253359881Y-73000000D01*
X253659881Y-73000000D01*
X253659881Y-74000000D01*
G36*
X253659881Y-74000000D02*
G01*
X253359881Y-74000000D01*
X253359881Y-73000000D01*
X253659881Y-73000000D01*
X253659881Y-74000000D01*
G37*
X253660135Y-75549912D02*
X253360135Y-75549912D01*
X253360135Y-74549912D01*
X253660135Y-74549912D01*
X253660135Y-75549912D01*
G36*
X253660135Y-75549912D02*
G01*
X253360135Y-75549912D01*
X253360135Y-74549912D01*
X253660135Y-74549912D01*
X253660135Y-75549912D01*
G37*
X254160008Y-75549912D02*
X253860008Y-75549912D01*
X253860008Y-74549912D01*
X254160008Y-74549912D01*
X254160008Y-75549912D01*
G36*
X254160008Y-75549912D02*
G01*
X253860008Y-75549912D01*
X253860008Y-74549912D01*
X254160008Y-74549912D01*
X254160008Y-75549912D01*
G37*
X254160008Y-74000000D02*
X253860008Y-74000000D01*
X253860008Y-73000000D01*
X254160008Y-73000000D01*
X254160008Y-74000000D01*
G36*
X254160008Y-74000000D02*
G01*
X253860008Y-74000000D01*
X253860008Y-73000000D01*
X254160008Y-73000000D01*
X254160008Y-74000000D01*
G37*
X254660135Y-75549912D02*
X254360135Y-75549912D01*
X254360135Y-74549912D01*
X254660135Y-74549912D01*
X254660135Y-75549912D01*
G36*
X254660135Y-75549912D02*
G01*
X254360135Y-75549912D01*
X254360135Y-74549912D01*
X254660135Y-74549912D01*
X254660135Y-75549912D01*
G37*
X254660135Y-74000000D02*
X254360135Y-74000000D01*
X254360135Y-73000000D01*
X254660135Y-73000000D01*
X254660135Y-74000000D01*
G36*
X254660135Y-74000000D02*
G01*
X254360135Y-74000000D01*
X254360135Y-73000000D01*
X254660135Y-73000000D01*
X254660135Y-74000000D01*
G37*
X255150102Y-75549912D02*
X254850102Y-75549912D01*
X254850102Y-74549912D01*
X255150102Y-74549912D01*
X255150102Y-75549912D01*
G36*
X255150102Y-75549912D02*
G01*
X254850102Y-75549912D01*
X254850102Y-74549912D01*
X255150102Y-74549912D01*
X255150102Y-75549912D01*
G37*
X255150102Y-74000000D02*
X254850102Y-74000000D01*
X254850102Y-73000000D01*
X255150102Y-73000000D01*
X255150102Y-74000000D01*
G36*
X255150102Y-74000000D02*
G01*
X254850102Y-74000000D01*
X254850102Y-73000000D01*
X255150102Y-73000000D01*
X255150102Y-74000000D01*
G37*
X255649974Y-75549912D02*
X255349974Y-75549912D01*
X255349974Y-74549912D01*
X255649974Y-74549912D01*
X255649974Y-75549912D01*
G36*
X255649974Y-75549912D02*
G01*
X255349974Y-75549912D01*
X255349974Y-74549912D01*
X255649974Y-74549912D01*
X255649974Y-75549912D01*
G37*
X255649974Y-74000000D02*
X255349974Y-74000000D01*
X255349974Y-73000000D01*
X255649974Y-73000000D01*
X255649974Y-74000000D01*
G36*
X255649974Y-74000000D02*
G01*
X255349974Y-74000000D01*
X255349974Y-73000000D01*
X255649974Y-73000000D01*
X255649974Y-74000000D01*
G37*
X256139941Y-75549912D02*
X255839941Y-75549912D01*
X255839941Y-74549912D01*
X256139941Y-74549912D01*
X256139941Y-75549912D01*
G36*
X256139941Y-75549912D02*
G01*
X255839941Y-75549912D01*
X255839941Y-74549912D01*
X256139941Y-74549912D01*
X256139941Y-75549912D01*
G37*
X256139941Y-74000000D02*
X255839941Y-74000000D01*
X255839941Y-73000000D01*
X256139941Y-73000000D01*
X256139941Y-74000000D01*
G36*
X256139941Y-74000000D02*
G01*
X255839941Y-74000000D01*
X255839941Y-73000000D01*
X256139941Y-73000000D01*
X256139941Y-74000000D01*
G37*
X256640068Y-75549912D02*
X256340068Y-75549912D01*
X256340068Y-74549912D01*
X256640068Y-74549912D01*
X256640068Y-75549912D01*
G36*
X256640068Y-75549912D02*
G01*
X256340068Y-75549912D01*
X256340068Y-74549912D01*
X256640068Y-74549912D01*
X256640068Y-75549912D01*
G37*
X256640068Y-74000000D02*
X256340068Y-74000000D01*
X256340068Y-73000000D01*
X256640068Y-73000000D01*
X256640068Y-74000000D01*
G36*
X256640068Y-74000000D02*
G01*
X256340068Y-74000000D01*
X256340068Y-73000000D01*
X256640068Y-73000000D01*
X256640068Y-74000000D01*
G37*
X257139941Y-75549912D02*
X256839941Y-75549912D01*
X256839941Y-74549912D01*
X257139941Y-74549912D01*
X257139941Y-75549912D01*
G36*
X257139941Y-75549912D02*
G01*
X256839941Y-75549912D01*
X256839941Y-74549912D01*
X257139941Y-74549912D01*
X257139941Y-75549912D01*
G37*
X257139941Y-74000000D02*
X256839941Y-74000000D01*
X256839941Y-73000000D01*
X257139941Y-73000000D01*
X257139941Y-74000000D01*
G36*
X257139941Y-74000000D02*
G01*
X256839941Y-74000000D01*
X256839941Y-73000000D01*
X257139941Y-73000000D01*
X257139941Y-74000000D01*
G37*
X257640068Y-75549912D02*
X257340068Y-75549912D01*
X257340068Y-74549912D01*
X257640068Y-74549912D01*
X257640068Y-75549912D01*
G36*
X257640068Y-75549912D02*
G01*
X257340068Y-75549912D01*
X257340068Y-74549912D01*
X257640068Y-74549912D01*
X257640068Y-75549912D01*
G37*
X257640068Y-74000000D02*
X257340068Y-74000000D01*
X257340068Y-73000000D01*
X257640068Y-73000000D01*
X257640068Y-74000000D01*
G36*
X257640068Y-74000000D02*
G01*
X257340068Y-74000000D01*
X257340068Y-73000000D01*
X257640068Y-73000000D01*
X257640068Y-74000000D01*
G37*
X258139929Y-75549912D02*
X257839941Y-75549912D01*
X257839941Y-74549912D01*
X258139929Y-74549912D01*
X258139929Y-75549912D01*
G36*
X258139929Y-75549912D02*
G01*
X257839941Y-75549912D01*
X257839941Y-74549912D01*
X258139929Y-74549912D01*
X258139929Y-75549912D01*
G37*
X258139929Y-74000000D02*
X257839941Y-74000000D01*
X257839941Y-73000000D01*
X258139929Y-73000000D01*
X258139929Y-74000000D01*
G36*
X258139929Y-74000000D02*
G01*
X257839941Y-74000000D01*
X257839941Y-73000000D01*
X258139929Y-73000000D01*
X258139929Y-74000000D01*
G37*
X251950013Y-74494971D02*
X251500000Y-74494971D01*
X251500000Y-75664974D01*
X251491738Y-75748862D01*
X251467268Y-75829527D01*
X251427532Y-75903868D01*
X251374057Y-75969028D01*
X251308896Y-76022504D01*
X251234555Y-76062240D01*
X251153891Y-76086709D01*
X251070002Y-76094971D01*
X251030023Y-76094971D01*
X250949987Y-76094971D01*
X250862199Y-76086325D01*
X250777785Y-76060718D01*
X250699988Y-76019135D01*
X250631798Y-75963173D01*
X250575836Y-75894983D01*
X250534253Y-75817187D01*
X250508646Y-75732772D01*
X250500000Y-75644984D01*
X250500000Y-74234976D01*
X250508454Y-74149136D01*
X250533493Y-74066594D01*
X250574154Y-73990523D01*
X250628874Y-73923846D01*
X250695551Y-73869125D01*
X250771622Y-73828465D01*
X250854164Y-73803426D01*
X250940005Y-73794971D01*
X251000000Y-73794971D01*
X251047328Y-73797297D01*
X251094200Y-73804250D01*
X251140165Y-73815764D01*
X251184779Y-73831728D01*
X251227615Y-73851988D01*
X251268258Y-73876349D01*
X251306318Y-73904577D01*
X251341427Y-73936399D01*
X251350013Y-73944984D01*
X251350013Y-73004979D01*
X251950013Y-73004979D01*
X251950013Y-74494971D01*
G36*
X251950013Y-74494971D02*
G01*
X251500000Y-74494971D01*
X251500000Y-75664974D01*
X251491738Y-75748862D01*
X251467268Y-75829527D01*
X251427532Y-75903868D01*
X251374057Y-75969028D01*
X251308896Y-76022504D01*
X251234555Y-76062240D01*
X251153891Y-76086709D01*
X251070002Y-76094971D01*
X251030023Y-76094971D01*
X250949987Y-76094971D01*
X250862199Y-76086325D01*
X250777785Y-76060718D01*
X250699988Y-76019135D01*
X250631798Y-75963173D01*
X250575836Y-75894983D01*
X250534253Y-75817187D01*
X250508646Y-75732772D01*
X250500000Y-75644984D01*
X250500000Y-74234976D01*
X250508454Y-74149136D01*
X250533493Y-74066594D01*
X250574154Y-73990523D01*
X250628874Y-73923846D01*
X250695551Y-73869125D01*
X250771622Y-73828465D01*
X250854164Y-73803426D01*
X250940005Y-73794971D01*
X251000000Y-73794971D01*
X251047328Y-73797297D01*
X251094200Y-73804250D01*
X251140165Y-73815764D01*
X251184779Y-73831728D01*
X251227615Y-73851988D01*
X251268258Y-73876349D01*
X251306318Y-73904577D01*
X251341427Y-73936399D01*
X251350013Y-73944984D01*
X251350013Y-73004979D01*
X251950013Y-73004979D01*
X251950013Y-74494971D01*
G37*
X259149987Y-73944959D02*
X259158572Y-73936399D01*
X259193681Y-73904573D01*
X259231740Y-73876342D01*
X259272382Y-73851978D01*
X259315217Y-73831714D01*
X259359833Y-73815747D01*
X259405798Y-73804230D01*
X259452671Y-73797274D01*
X259500000Y-73794946D01*
X259559995Y-73794946D01*
X259645832Y-73803400D01*
X259728372Y-73828437D01*
X259804441Y-73869095D01*
X259871116Y-73923811D01*
X259925837Y-73990484D01*
X259966499Y-74066551D01*
X259991541Y-74149088D01*
X260000000Y-74234926D01*
X260000000Y-75644959D01*
X259991354Y-75732747D01*
X259965747Y-75817161D01*
X259924163Y-75894958D01*
X259868202Y-75963148D01*
X259800012Y-76019109D01*
X259722215Y-76060693D01*
X259637801Y-76086299D01*
X259550013Y-76094946D01*
X259469977Y-76094946D01*
X259429997Y-76094946D01*
X259346109Y-76086684D01*
X259265444Y-76062214D01*
X259191104Y-76022478D01*
X259125943Y-75969002D01*
X259072468Y-75903842D01*
X259032732Y-75829501D01*
X259008262Y-75748837D01*
X259000000Y-75664948D01*
X259000000Y-74494920D01*
X258549987Y-74494920D01*
X258549987Y-73004979D01*
X259149987Y-73004979D01*
X259149987Y-73944959D01*
G36*
X259149987Y-73944959D02*
G01*
X259158572Y-73936399D01*
X259193681Y-73904573D01*
X259231740Y-73876342D01*
X259272382Y-73851978D01*
X259315217Y-73831714D01*
X259359833Y-73815747D01*
X259405798Y-73804230D01*
X259452671Y-73797274D01*
X259500000Y-73794946D01*
X259559995Y-73794946D01*
X259645832Y-73803400D01*
X259728372Y-73828437D01*
X259804441Y-73869095D01*
X259871116Y-73923811D01*
X259925837Y-73990484D01*
X259966499Y-74066551D01*
X259991541Y-74149088D01*
X260000000Y-74234926D01*
X260000000Y-75644959D01*
X259991354Y-75732747D01*
X259965747Y-75817161D01*
X259924163Y-75894958D01*
X259868202Y-75963148D01*
X259800012Y-76019109D01*
X259722215Y-76060693D01*
X259637801Y-76086299D01*
X259550013Y-76094946D01*
X259469977Y-76094946D01*
X259429997Y-76094946D01*
X259346109Y-76086684D01*
X259265444Y-76062214D01*
X259191104Y-76022478D01*
X259125943Y-75969002D01*
X259072468Y-75903842D01*
X259032732Y-75829501D01*
X259008262Y-75748837D01*
X259000000Y-75664948D01*
X259000000Y-74494920D01*
X258549987Y-74494920D01*
X258549987Y-73004979D01*
X259149987Y-73004979D01*
X259149987Y-73944959D01*
G37*
%TD*%
D11*
%TO.C,SW_SLAVE_BOOT2*%
X258850140Y-90699898D03*
X257150114Y-90699898D03*
X258850140Y-85500000D03*
X257150114Y-85500000D03*
%TD*%
%TO.C,LED2*%
X251500000Y-91000000D03*
X254499746Y-91000000D03*
X254499746Y-86000000D03*
X251500000Y-86000000D03*
%TD*%
%TO.C,SW_MASTER_BOOT1*%
X257149860Y-77400051D03*
X258849886Y-77400051D03*
X257149860Y-82599949D03*
X258849886Y-82599949D03*
%TD*%
%TO.C,LED1*%
X254499746Y-78000000D03*
X251500000Y-78000000D03*
X251500000Y-83000000D03*
X254499746Y-83000000D03*
%TD*%
D12*
%TO.C,SW5_MASTER_EXEC1*%
X246000000Y-83000000D03*
X246000000Y-76000000D03*
X249000000Y-83000000D03*
X249000000Y-76000000D03*
%TD*%
%TO.C,SW6_SLAVE_EXEC2*%
X249000000Y-84750000D03*
X249000000Y-91750000D03*
X246000000Y-84750000D03*
X246000000Y-91750000D03*
%TD*%
D13*
%TO.C,SW2*%
X261749936Y-87558928D03*
X261749936Y-90098933D03*
X261749936Y-92638938D03*
%TD*%
D14*
%TO.C,USBC_MALE1*%
X251650089Y-73749937D03*
X258849987Y-73749937D03*
D15*
X252500000Y-75049912D03*
X253000000Y-75049912D03*
X253500000Y-75049912D03*
X254000000Y-75049912D03*
X254500000Y-75049912D03*
X255000000Y-75049912D03*
X255500000Y-75049912D03*
X256000000Y-75049912D03*
X256500000Y-75049912D03*
X257000000Y-75049912D03*
X257500000Y-75049912D03*
X258000000Y-75049912D03*
X258000000Y-73500000D03*
X257500000Y-73500000D03*
X257000000Y-73500000D03*
X256500000Y-73500000D03*
X256000000Y-73500000D03*
X255500000Y-73500000D03*
X255000000Y-73500000D03*
X254500000Y-73500000D03*
X254000000Y-73500000D03*
X253500000Y-73500000D03*
X253000000Y-73500000D03*
X252500000Y-73500000D03*
%TD*%
D13*
%TO.C,SW1*%
X261726498Y-77959868D03*
X261726498Y-80499873D03*
X261726498Y-83039878D03*
%TD*%
M02*
