%TF.GenerationSoftware,KiCad,Pcbnew,9.0.8*%
%TF.CreationDate,2026-03-20T17:13:54-07:00*%
%TF.ProjectId,keyscar_kicad,6b657973-6361-4725-9f6b-696361642e6b,rev?*%
%TF.SameCoordinates,Original*%
%TF.FileFunction,Soldermask,Bot*%
%TF.FilePolarity,Negative*%
%FSLAX46Y46*%
G04 Gerber Fmt 4.6, Leading zero omitted, Abs format (unit mm)*
G04 Created by KiCad (PCBNEW 9.0.8) date 2026-03-20 17:13:54*
%MOMM*%
%LPD*%
G01*
G04 APERTURE LIST*
%ADD10R,0.540005X0.565659*%
%ADD11R,0.565659X0.540005*%
%ADD12C,1.600000*%
%ADD13O,2.000000X3.500000*%
%ADD14R,0.500000X0.540005*%
%ADD15R,0.950013X1.150013*%
%ADD16R,2.591999X2.000000*%
%ADD17R,1.000000X1.500000*%
%ADD18O,0.559995X1.745009*%
%ADD19O,1.000000X2.300000*%
%ADD20R,0.540005X0.500000*%
G04 APERTURE END LIST*
D10*
%TO.C,R4*%
X250500000Y-82750000D03*
X250500000Y-83615634D03*
%TD*%
%TO.C,R5*%
X262000000Y-77634366D03*
X262000000Y-78500000D03*
%TD*%
D11*
%TO.C,R7*%
X250000000Y-77250000D03*
X250865634Y-77250000D03*
%TD*%
%TO.C,R11*%
X253134366Y-76500000D03*
X254000000Y-76500000D03*
%TD*%
D12*
%TO.C,USBA_MALE1*%
X257649987Y-94500000D03*
X255149860Y-94500000D03*
X253149860Y-94500000D03*
X250649987Y-94500000D03*
D13*
X248299974Y-96500000D03*
X260000000Y-96500000D03*
%TD*%
D14*
%TO.C,C2*%
X261079883Y-76250000D03*
X261920117Y-76250000D03*
%TD*%
D10*
%TO.C,R3*%
X260750000Y-74000000D03*
X260750000Y-74865634D03*
%TD*%
%TO.C,R1*%
X262000000Y-84634366D03*
X262000000Y-85500000D03*
%TD*%
%TO.C,R8*%
X262250000Y-89500000D03*
X262250000Y-90365634D03*
%TD*%
%TO.C,R2*%
X262000000Y-94000000D03*
X262000000Y-94865634D03*
%TD*%
D11*
%TO.C,R9*%
X248000000Y-73750000D03*
X247134366Y-73750000D03*
%TD*%
D15*
%TO.C,D1*%
X245807595Y-75500000D03*
X249192405Y-75500000D03*
%TD*%
D16*
%TO.C,R_PHOTO1*%
X247750000Y-81042291D03*
X247750000Y-77957709D03*
%TD*%
D10*
%TO.C,R6*%
X245750000Y-94000000D03*
X245750000Y-93134366D03*
%TD*%
D17*
%TO.C,SW_CHIP_RST3*%
X247250000Y-89349949D03*
X248950026Y-89349949D03*
X247250000Y-84150051D03*
X248950026Y-84150051D03*
%TD*%
D18*
%TO.C,MASTER1*%
X260768532Y-83994984D03*
X259498529Y-83994984D03*
X258228527Y-83994984D03*
X256958524Y-83994984D03*
X255688522Y-83994984D03*
X254418519Y-83994984D03*
X253148517Y-83994984D03*
X251878514Y-83994984D03*
X251878514Y-78250000D03*
X253148517Y-78250000D03*
X254418519Y-78250000D03*
X255688522Y-78250000D03*
X256958524Y-78250000D03*
X258228527Y-78250000D03*
X259498529Y-78250000D03*
X260768532Y-78250000D03*
%TD*%
%TO.C,SLAVE1*%
X251879985Y-86255016D03*
X253149988Y-86255016D03*
X254419990Y-86255016D03*
X255689993Y-86255016D03*
X256959995Y-86255016D03*
X258229998Y-86255016D03*
X259500000Y-86255016D03*
X260770003Y-86255016D03*
X260770003Y-92000000D03*
X259500000Y-92000000D03*
X258229998Y-92000000D03*
X256959995Y-92000000D03*
X255689993Y-92000000D03*
X254419990Y-92000000D03*
X253149988Y-92000000D03*
X251879985Y-92000000D03*
%TD*%
D19*
%TO.C,USBC_MALE1*%
X251000102Y-74950089D03*
X259499974Y-74950089D03*
%TD*%
D15*
%TO.C,D2*%
X247115190Y-92000000D03*
X250500000Y-92000000D03*
%TD*%
D20*
%TO.C,C1*%
X247000000Y-93659766D03*
X247000000Y-94500000D03*
%TD*%
M02*
