%TF.GenerationSoftware,KiCad,Pcbnew,9.0.8*%
%TF.CreationDate,2026-03-20T17:13:54-07:00*%
%TF.ProjectId,keyscar_kicad,6b657973-6361-4725-9f6b-696361642e6b,rev?*%
%TF.SameCoordinates,Original*%
%TF.FileFunction,Copper,L1,Top*%
%TF.FilePolarity,Positive*%
%FSLAX46Y46*%
G04 Gerber Fmt 4.6, Leading zero omitted, Abs format (unit mm)*
G04 Created by KiCad (PCBNEW 9.0.8) date 2026-03-20 17:13:54*
%MOMM*%
%LPD*%
G01*
G04 APERTURE LIST*
%TA.AperFunction,ComponentPad*%
%ADD10C,1.600000*%
%TD*%
%TA.AperFunction,ComponentPad*%
%ADD11O,2.000000X3.500000*%
%TD*%
%TA.AperFunction,SMDPad,CuDef*%
%ADD12R,1.000000X1.500000*%
%TD*%
%TA.AperFunction,SMDPad,CuDef*%
%ADD13R,1.500000X1.500000*%
%TD*%
%TA.AperFunction,SMDPad,CuDef*%
%ADD14R,2.500000X1.199898*%
%TD*%
%TA.AperFunction,ComponentPad*%
%ADD15O,1.000000X2.300000*%
%TD*%
%TA.AperFunction,SMDPad,CuDef*%
%ADD16R,0.600000X1.500000*%
%TD*%
%TA.AperFunction,SMDPad,CuDef*%
%ADD17R,0.300000X1.000000*%
%TD*%
%TA.AperFunction,ViaPad*%
%ADD18C,0.600000*%
%TD*%
%TA.AperFunction,ViaPad*%
%ADD19C,0.400000*%
%TD*%
%TA.AperFunction,Conductor*%
%ADD20C,0.200000*%
%TD*%
G04 APERTURE END LIST*
D10*
%TO.P,USBA_MALE1,1,VCC*%
%TO.N,Net-(D2-A)*%
X257649987Y-94500000D03*
%TO.P,USBA_MALE1,2,D-*%
%TO.N,SLAVEA D-*%
X255149860Y-94500000D03*
%TO.P,USBA_MALE1,3,D+*%
%TO.N,SLAVEA D+*%
X253149860Y-94500000D03*
%TO.P,USBA_MALE1,4,GND*%
%TO.N,GND*%
X250649987Y-94500000D03*
D11*
%TO.P,USBA_MALE1,5,EH*%
X248299974Y-96500000D03*
%TO.P,USBA_MALE1,6,EH*%
X260000000Y-96500000D03*
%TD*%
D12*
%TO.P,SW_SLAVE_BOOT2,1,1*%
%TO.N,SLAVEA D+*%
X258850140Y-90699898D03*
%TO.P,SW_SLAVE_BOOT2,2,2*%
X257150114Y-90699898D03*
%TO.P,SW_SLAVE_BOOT2,3,3*%
%TO.N,Net-(R2-Pad2)*%
X258850140Y-85500000D03*
%TO.P,SW_SLAVE_BOOT2,4,4*%
X257150114Y-85500000D03*
%TD*%
%TO.P,LED2,1,VDD*%
%TO.N,VCC*%
X251500000Y-91000000D03*
%TO.P,LED2,2,DOU*%
%TO.N,SLAVE NEO DOUT*%
X254499746Y-91000000D03*
%TO.P,LED2,3,GND*%
%TO.N,GND*%
X254499746Y-86000000D03*
%TO.P,LED2,4,DIN*%
%TO.N,Net-(LED2-DIN)*%
X251500000Y-86000000D03*
%TD*%
%TO.P,SW_MASTER_BOOT1,1,1*%
%TO.N,MASTERC D+*%
X257149860Y-77400051D03*
%TO.P,SW_MASTER_BOOT1,2,2*%
X258849886Y-77400051D03*
%TO.P,SW_MASTER_BOOT1,3,3*%
%TO.N,Net-(R1-Pad2)*%
X257149860Y-82599949D03*
%TO.P,SW_MASTER_BOOT1,4,4*%
X258849886Y-82599949D03*
%TD*%
%TO.P,LED1,1,VDD*%
%TO.N,VCC*%
X254499746Y-78000000D03*
%TO.P,LED1,2,DOU*%
%TO.N,MASTER NEO DOUT*%
X251500000Y-78000000D03*
%TO.P,LED1,3,GND*%
%TO.N,GND*%
X251500000Y-83000000D03*
%TO.P,LED1,4,DIN*%
%TO.N,Net-(LED1-DIN)*%
X254499746Y-83000000D03*
%TD*%
D13*
%TO.P,SW5_MASTER_EXEC1,1,1*%
%TO.N,V33*%
X246000000Y-83000000D03*
%TO.P,SW5_MASTER_EXEC1,2,2*%
%TO.N,Net-(MASTER1-P3.4{slash}PWM2{slash}RXD1_{slash}T0)*%
X246000000Y-76000000D03*
%TO.P,SW5_MASTER_EXEC1,3,3*%
%TO.N,V33*%
X249000000Y-83000000D03*
%TO.P,SW5_MASTER_EXEC1,4,4*%
%TO.N,Net-(MASTER1-P3.4{slash}PWM2{slash}RXD1_{slash}T0)*%
X249000000Y-76000000D03*
%TD*%
%TO.P,SW6_SLAVE_EXEC2,1,1*%
%TO.N,V33*%
X249000000Y-84750000D03*
%TO.P,SW6_SLAVE_EXEC2,2,2*%
%TO.N,Net-(SLAVE1-P3.4{slash}PWM2{slash}RXD1_{slash}T0)*%
X249000000Y-91750000D03*
%TO.P,SW6_SLAVE_EXEC2,3,3*%
%TO.N,V33*%
X246000000Y-84750000D03*
%TO.P,SW6_SLAVE_EXEC2,4,4*%
%TO.N,Net-(SLAVE1-P3.4{slash}PWM2{slash}RXD1_{slash}T0)*%
X246000000Y-91750000D03*
%TD*%
D14*
%TO.P,SW2,1,1*%
%TO.N,GND*%
X261749936Y-87558928D03*
%TO.P,SW2,2,2*%
%TO.N,Net-(SLAVE1-P3.2{slash}TXD1_{slash}INT0{slash}VBUS1{slash}AIN3)*%
X261749936Y-90098933D03*
%TO.P,SW2,3,3*%
%TO.N,V33*%
X261749936Y-92638938D03*
%TD*%
D15*
%TO.P,USBC_MALE1,1,EP*%
%TO.N,GND*%
X251000102Y-74950089D03*
D16*
%TO.P,USBC_MALE1,2,EP*%
X251650089Y-73749937D03*
%TO.P,USBC_MALE1,3,EP*%
X258849987Y-73749937D03*
D15*
%TO.P,USBC_MALE1,4,EP*%
X259499974Y-74950089D03*
D17*
%TO.P,USBC_MALE1,A1,GND*%
X252500000Y-75049912D03*
%TO.P,USBC_MALE1,A2,SSTXP1*%
%TO.N,unconnected-(USBC_MALE1-SSTXP1-PadA2)*%
X253000000Y-75049912D03*
%TO.P,USBC_MALE1,A3,SSTXN1*%
%TO.N,unconnected-(USBC_MALE1-SSTXN1-PadA3)*%
X253500000Y-75049912D03*
%TO.P,USBC_MALE1,A4,VBUS*%
%TO.N,USB C VBUS*%
X254000000Y-75049912D03*
%TO.P,USBC_MALE1,A5,CC1*%
%TO.N,Net-(USBC_MALE1-CC1)*%
X254500000Y-75049912D03*
%TO.P,USBC_MALE1,A6,DP1*%
%TO.N,MASTERC D+*%
X255000000Y-75049912D03*
%TO.P,USBC_MALE1,A7,DN1*%
%TO.N,MASTERC D-*%
X255500000Y-75049912D03*
%TO.P,USBC_MALE1,A8,SUB1*%
%TO.N,unconnected-(USBC_MALE1-SUB1-PadA8)*%
X256000000Y-75049912D03*
%TO.P,USBC_MALE1,A9,VBUS*%
%TO.N,USB C VBUS*%
X256500000Y-75049912D03*
%TO.P,USBC_MALE1,A10,SSRXN2*%
%TO.N,unconnected-(USBC_MALE1-SSRXN2-PadA10)*%
X257000000Y-75049912D03*
%TO.P,USBC_MALE1,A11,SSRXP2*%
%TO.N,unconnected-(USBC_MALE1-SSRXP2-PadA11)*%
X257500000Y-75049912D03*
%TO.P,USBC_MALE1,A12,GND*%
%TO.N,GND*%
X258000000Y-75049912D03*
%TO.P,USBC_MALE1,B1,GND*%
X258000000Y-73500000D03*
%TO.P,USBC_MALE1,B2,SSTXP2*%
%TO.N,unconnected-(USBC_MALE1-SSTXP2-PadB2)*%
X257500000Y-73500000D03*
%TO.P,USBC_MALE1,B3,SSTXN2*%
%TO.N,unconnected-(USBC_MALE1-SSTXN2-PadB3)*%
X257000000Y-73500000D03*
%TO.P,USBC_MALE1,B4,VBUS*%
%TO.N,USB C VBUS*%
X256500000Y-73500000D03*
%TO.P,USBC_MALE1,B5,CC2*%
%TO.N,Net-(USBC_MALE1-CC2)*%
X256000000Y-73500000D03*
%TO.P,USBC_MALE1,B6,DP2*%
%TO.N,MASTERC D+*%
X255500000Y-73500000D03*
%TO.P,USBC_MALE1,B7,DN2*%
%TO.N,MASTERC D-*%
X255000000Y-73500000D03*
%TO.P,USBC_MALE1,B8,SUB2*%
%TO.N,unconnected-(USBC_MALE1-SUB2-PadB8)*%
X254500000Y-73500000D03*
%TO.P,USBC_MALE1,B9,VBUS*%
%TO.N,USB C VBUS*%
X254000000Y-73500000D03*
%TO.P,USBC_MALE1,B10,SSRXN1*%
%TO.N,unconnected-(USBC_MALE1-SSRXN1-PadB10)*%
X253500000Y-73500000D03*
%TO.P,USBC_MALE1,B11,SSRXP1*%
%TO.N,unconnected-(USBC_MALE1-SSRXP1-PadB11)*%
X253000000Y-73500000D03*
%TO.P,USBC_MALE1,B12,GND*%
%TO.N,GND*%
X252500000Y-73500000D03*
%TD*%
D14*
%TO.P,SW1,1,1*%
%TO.N,GND*%
X261726498Y-77959868D03*
%TO.P,SW1,2,2*%
%TO.N,Net-(MASTER1-P3.2{slash}TXD1_{slash}INT0{slash}VBUS1{slash}AIN3)*%
X261726498Y-80499873D03*
%TO.P,SW1,3,3*%
%TO.N,V33*%
X261726498Y-83039878D03*
%TD*%
D18*
%TO.N,VCC*%
X258000000Y-96200000D03*
X262150763Y-81767084D03*
X259000000Y-79500000D03*
X260776498Y-81599824D03*
X254500000Y-80000000D03*
X252750000Y-90350000D03*
%TO.N,GND*%
X254750000Y-93250000D03*
X262000000Y-79399922D03*
X250459899Y-88308429D03*
X253134366Y-76500000D03*
X251487449Y-87521551D03*
X261723197Y-77717215D03*
X248000000Y-74000000D03*
X253049138Y-80700862D03*
X262000000Y-86500000D03*
X252200608Y-81549392D03*
X262250000Y-88000000D03*
X258212651Y-78630850D03*
X254500000Y-89250000D03*
%TO.N,V33*%
X261079883Y-76250000D03*
X249000000Y-94250000D03*
X262100000Y-92638938D03*
X250000000Y-89600000D03*
X261726498Y-83039878D03*
X251879985Y-92250002D03*
D19*
%TO.N,USB C VBUS*%
X254000000Y-73500000D03*
D18*
%TO.N,Net-(LED1-DIN)*%
X250000000Y-77250000D03*
%TO.N,Net-(LED2-DIN)*%
X257827195Y-88777447D03*
%TO.N,MASTERC D-*%
X256028771Y-76549222D03*
D19*
X255000000Y-73500000D03*
D18*
%TO.N,SPI MISO*%
X257000000Y-84249949D03*
X255750000Y-86000000D03*
%TO.N,Net-(MASTER1-P3.4{slash}PWM2{slash}RXD1_{slash}T0)*%
X250000000Y-79000000D03*
%TO.N,MASTERC D+*%
X256853037Y-76524958D03*
D19*
X255500000Y-73500000D03*
D18*
X255688522Y-78250000D03*
%TO.N,SPI SS*%
X253250000Y-85500000D03*
X259498529Y-83994984D03*
%TO.N,Net-(MASTER1-P3.2{slash}TXD1_{slash}INT0{slash}VBUS1{slash}AIN3)*%
X260788534Y-84139829D03*
%TO.N,Net-(R1-Pad2)*%
X258971748Y-82373218D03*
%TO.N,Net-(R2-Pad2)*%
X261000000Y-94500000D03*
D19*
%TO.N,Net-(USBC_MALE1-CC2)*%
X256000000Y-73500000D03*
D18*
%TO.N,Net-(SLAVE1-P3.4{slash}PWM2{slash}RXD1_{slash}T0)*%
X256000000Y-90500000D03*
X246000000Y-91750000D03*
%TO.N,Net-(SLAVE1-P3.3{slash}INT1)*%
X262100000Y-91500000D03*
X259500000Y-92900000D03*
%TO.N,Net-(USBC_MALE1-CC1)*%
X254000000Y-76500000D03*
%TO.N,Net-(SLAVE1-P3.2{slash}TXD1_{slash}INT0{slash}VBUS1{slash}AIN3)*%
X259500000Y-88000000D03*
X253518705Y-87534870D03*
X258250140Y-88098388D03*
%TO.N,SLAVEA D+*%
X256959995Y-92000000D03*
%TD*%
D20*
%TO.N,USB C VBUS*%
X254000000Y-75049912D02*
X254000000Y-74000000D01*
%TO.N,VCC*%
X257794352Y-96200000D02*
X258000000Y-96200000D01*
X252000000Y-94000000D02*
X252000000Y-95250000D01*
X260776498Y-81599824D02*
X261983503Y-81599824D01*
X256006293Y-95550000D02*
X257144352Y-95550000D01*
X251500000Y-91000000D02*
X252479985Y-91979985D01*
X259000000Y-79500000D02*
X255999746Y-79500000D01*
X254499746Y-79999746D02*
X254499746Y-78000000D01*
X261983503Y-81599824D02*
X262150763Y-81767084D01*
X257144352Y-95550000D02*
X257794352Y-96200000D01*
X252750000Y-96000000D02*
X255556293Y-96000000D01*
X252100000Y-91000000D02*
X252750000Y-90350000D01*
X252479985Y-93520015D02*
X252000000Y-94000000D01*
X255999746Y-79500000D02*
X254499746Y-78000000D01*
X252479985Y-91979985D02*
X252479985Y-93520015D01*
X252000000Y-95250000D02*
X252750000Y-96000000D01*
X251500000Y-91000000D02*
X252100000Y-91000000D01*
X254500000Y-80000000D02*
X254499746Y-79999746D01*
X255556293Y-96000000D02*
X256006293Y-95550000D01*
%TO.N,GND*%
X258225107Y-73749937D02*
X258000000Y-73524830D01*
X248649987Y-96500000D02*
X248299974Y-96500000D01*
X252500000Y-75049912D02*
X252500000Y-74599848D01*
X254450735Y-89299265D02*
X254500000Y-89250000D01*
X251650089Y-73700025D02*
X251650089Y-74250190D01*
X254499746Y-86000000D02*
X254205046Y-86000000D01*
X261749936Y-87558928D02*
X261749936Y-86750064D01*
X259600000Y-79748529D02*
X259600000Y-79400000D01*
X262000000Y-78233370D02*
X261726498Y-77959868D01*
X248250000Y-74250000D02*
X248000000Y-74000000D01*
X259400151Y-75049912D02*
X259499974Y-74950089D01*
X260000000Y-96500000D02*
X260000000Y-94250000D01*
X261749936Y-87558928D02*
X261808928Y-87558928D01*
X253134366Y-80615634D02*
X253134366Y-76500000D01*
X252500000Y-75524956D02*
X252500000Y-76115634D01*
X252500000Y-74599848D02*
X251650089Y-73749937D01*
X262000000Y-79399922D02*
X262000000Y-78233370D01*
X259600000Y-79400000D02*
X261040132Y-77959868D01*
X258085786Y-92900000D02*
X255100000Y-92900000D01*
X253049138Y-80700862D02*
X258299138Y-80700862D01*
X250459899Y-88308429D02*
X251450735Y-89299265D01*
X251000102Y-74950089D02*
X250300013Y-74250000D01*
X250300013Y-74250000D02*
X248250000Y-74250000D01*
X252884366Y-76500000D02*
X253134366Y-76500000D01*
X251500000Y-83000000D02*
X251500000Y-82250000D01*
X251500000Y-82250000D02*
X252200608Y-81549392D01*
X261726498Y-77720516D02*
X261723197Y-77717215D01*
X252300000Y-83800000D02*
X251500000Y-83000000D01*
X252500000Y-73500000D02*
X251900026Y-73500000D01*
X252300000Y-85500000D02*
X252300000Y-83800000D01*
X252500000Y-76115634D02*
X252884366Y-76500000D01*
X255100000Y-92900000D02*
X254750000Y-93250000D01*
X259050000Y-97450000D02*
X260000000Y-96500000D01*
X251650089Y-74300102D02*
X251000102Y-74950089D01*
X254399746Y-86100000D02*
X252900000Y-86100000D01*
X259085785Y-93900000D02*
X258085786Y-92900000D01*
X258849987Y-74300102D02*
X259499974Y-74950089D01*
X258212651Y-78630850D02*
X261055516Y-78630850D01*
X251900026Y-73500000D02*
X251650089Y-73749937D01*
X254205046Y-86000000D02*
X252683495Y-87521551D01*
X261808928Y-87558928D02*
X262250000Y-88000000D01*
X252500000Y-75049912D02*
X251099925Y-75049912D01*
X254499746Y-86000000D02*
X254399746Y-86100000D01*
X259248529Y-80100000D02*
X259600000Y-79748529D01*
X252900000Y-86100000D02*
X252300000Y-85500000D01*
X251650089Y-73749937D02*
X251650089Y-74300102D01*
X261040132Y-77959868D02*
X261726498Y-77959868D01*
X261749936Y-86750064D02*
X262000000Y-86500000D01*
X258000000Y-75049912D02*
X259400151Y-75049912D01*
X251650089Y-73700025D02*
X251650089Y-74150089D01*
X258000000Y-75049912D02*
X258000000Y-74599924D01*
X258849987Y-73749937D02*
X258849987Y-74300102D01*
X258000000Y-73524830D02*
X258000000Y-73500000D01*
X251450735Y-89299265D02*
X254450735Y-89299265D01*
X250649987Y-94500000D02*
X248649987Y-96500000D01*
X251099925Y-75049912D02*
X251000102Y-74950089D01*
X261055516Y-78630850D02*
X261726498Y-77959868D01*
X261726498Y-77959868D02*
X261726498Y-77720516D01*
X249249974Y-97450000D02*
X259050000Y-97450000D01*
X258000000Y-74599924D02*
X258849987Y-73749937D01*
X248299974Y-96500000D02*
X249249974Y-97450000D01*
X258900000Y-80100000D02*
X259248529Y-80100000D01*
X252683495Y-87521551D02*
X251487449Y-87521551D01*
X253049138Y-80700862D02*
X253134366Y-80615634D01*
X258299138Y-80700862D02*
X258900000Y-80100000D01*
X258849987Y-73749937D02*
X258225107Y-73749937D01*
X260000000Y-94250000D02*
X259650000Y-93900000D01*
X259650000Y-93900000D02*
X259085785Y-93900000D01*
%TO.N,V33*%
X246000000Y-84750000D02*
X249000000Y-84750000D01*
X251250000Y-93000000D02*
X251879985Y-92370015D01*
X261726498Y-83039878D02*
X263299936Y-84613316D01*
X263276498Y-81489878D02*
X263276498Y-77059919D01*
X250250000Y-93000000D02*
X251250000Y-93000000D01*
X261726498Y-83039878D02*
X263276498Y-81489878D01*
X263299936Y-91439002D02*
X262100000Y-92638938D01*
X249000000Y-84750000D02*
X249000000Y-88600000D01*
X261579883Y-76750000D02*
X261079883Y-76250000D01*
X246000000Y-83000000D02*
X246000000Y-84750000D01*
X251879985Y-92370015D02*
X251879985Y-92250002D01*
X249000000Y-83000000D02*
X249000000Y-84750000D01*
X246000000Y-83000000D02*
X249000000Y-83000000D01*
X262100000Y-92638938D02*
X261749936Y-92638938D01*
X249000000Y-94250000D02*
X250250000Y-93000000D01*
X262966579Y-76750000D02*
X261579883Y-76750000D01*
X263276498Y-77059919D02*
X262966579Y-76750000D01*
X249000000Y-88600000D02*
X250000000Y-89600000D01*
X263299936Y-84613316D02*
X263299936Y-91439002D01*
%TO.N,USB C VBUS*%
X256500000Y-75250000D02*
X256500000Y-74750000D01*
X256500000Y-74750000D02*
X256500000Y-73975044D01*
X254000038Y-74274956D02*
X256500038Y-74274956D01*
X256500000Y-74750000D02*
X256450000Y-74750000D01*
%TO.N,Net-(LED1-DIN)*%
X250600000Y-78600000D02*
X250000000Y-78000000D01*
X250000000Y-78000000D02*
X250000000Y-77250000D01*
X254499746Y-83000000D02*
X250600000Y-79100254D01*
X250600000Y-79100254D02*
X250600000Y-78600000D01*
%TO.N,Net-(LED2-DIN)*%
X251134870Y-88134870D02*
X250750000Y-87750000D01*
X250750000Y-86750000D02*
X251500000Y-86000000D01*
X250750000Y-87750000D02*
X250750000Y-86750000D01*
X257184618Y-88134870D02*
X251134870Y-88134870D01*
X257827195Y-88777447D02*
X257184618Y-88134870D01*
%TO.N,MASTERC D-*%
X255500000Y-76274956D02*
X255774266Y-76549222D01*
X255500000Y-75524956D02*
X255500000Y-76274956D01*
X255774266Y-76549222D02*
X256028771Y-76549222D01*
%TO.N,SPI MISO*%
X256250051Y-84249949D02*
X257000000Y-84249949D01*
X255500000Y-85249949D02*
X255500000Y-85000000D01*
X255500000Y-85000000D02*
X256250051Y-84249949D01*
X255750000Y-85499949D02*
X255500000Y-85249949D01*
X255750000Y-86000000D02*
X255750000Y-85499949D01*
%TO.N,Net-(MASTER1-P3.4{slash}PWM2{slash}RXD1_{slash}T0)*%
X249000000Y-76000000D02*
X249000000Y-78000000D01*
X246000000Y-76000000D02*
X249000000Y-76000000D01*
X249000000Y-78000000D02*
X250000000Y-79000000D01*
%TO.N,MASTERC D+*%
X255050000Y-76274968D02*
X255000000Y-76224968D01*
X255688522Y-78250000D02*
X255688522Y-77057502D01*
X255428771Y-76797751D02*
X255428771Y-76769413D01*
X258849886Y-77400051D02*
X257149860Y-77400051D01*
X257149860Y-77400051D02*
X256538471Y-77400051D01*
X256853037Y-77103228D02*
X257149860Y-77400051D01*
X255099988Y-76324956D02*
X255050000Y-76324956D01*
X256538471Y-77400051D02*
X255688522Y-78250000D01*
X256853037Y-76524958D02*
X256853037Y-77103228D01*
X255000000Y-76224968D02*
X255000000Y-75524956D01*
X255688522Y-77057502D02*
X255428771Y-76797751D01*
X255050000Y-76324956D02*
X255050000Y-76274968D01*
X255428771Y-76769413D02*
X255100000Y-76440641D01*
X255100000Y-76324968D02*
X255099988Y-76324956D01*
X255100000Y-76440641D02*
X255100000Y-76324968D01*
%TO.N,SPI SS*%
X256200102Y-83500000D02*
X256350051Y-83649949D01*
X254450000Y-84050000D02*
X255400000Y-84050000D01*
X255950000Y-83500000D02*
X256200102Y-83500000D01*
X255400000Y-84050000D02*
X255950000Y-83500000D01*
X253250000Y-85500000D02*
X253250000Y-85250000D01*
X259493513Y-84000000D02*
X259498529Y-83994984D01*
X256350051Y-83649949D02*
X257649949Y-83649949D01*
X253250000Y-85250000D02*
X254450000Y-84050000D01*
X257649949Y-83649949D02*
X258000000Y-84000000D01*
X258000000Y-84000000D02*
X259493513Y-84000000D01*
%TO.N,Net-(MASTER1-P3.2{slash}TXD1_{slash}INT0{slash}VBUS1{slash}AIN3)*%
X260751865Y-84176498D02*
X260788534Y-84139829D01*
X261726498Y-80499873D02*
X260500127Y-80499873D01*
X260500127Y-80499873D02*
X260176498Y-80823502D01*
X260176498Y-84000000D02*
X260352996Y-84176498D01*
X260176498Y-80823502D02*
X260176498Y-84000000D01*
X260352996Y-84176498D02*
X260751865Y-84176498D01*
%TO.N,Net-(R1-Pad2)*%
X258971748Y-82478087D02*
X258849886Y-82599949D01*
X258971748Y-82373218D02*
X258971748Y-82478087D01*
X258971748Y-82373218D02*
X257376591Y-82373218D01*
X257376591Y-82373218D02*
X257149860Y-82599949D01*
%TO.N,Net-(R2-Pad2)*%
X259251471Y-93500000D02*
X258900000Y-93148529D01*
X258900000Y-93148529D02*
X258900000Y-92651471D01*
X260000000Y-89500000D02*
X258850140Y-88350140D01*
X258900000Y-92473239D02*
X260000000Y-91373239D01*
X260000000Y-93500000D02*
X259750000Y-93500000D01*
X258900000Y-92651471D02*
X258900735Y-92650735D01*
X259750000Y-93500000D02*
X259749264Y-93499264D01*
X259748529Y-93500000D02*
X259251471Y-93500000D01*
X258900000Y-92650000D02*
X258900000Y-92473239D01*
X261000000Y-94500000D02*
X260000000Y-93500000D01*
X258850140Y-88350140D02*
X258850140Y-85500000D01*
X258900735Y-92650735D02*
X258900000Y-92650000D01*
X259749264Y-93499264D02*
X259748529Y-93500000D01*
X258850140Y-85500000D02*
X257150114Y-85500000D01*
X260000000Y-91373239D02*
X260000000Y-89500000D01*
%TO.N,Net-(SLAVE1-P3.4{slash}PWM2{slash}RXD1_{slash}T0)*%
X251363231Y-89777447D02*
X251694603Y-89777447D01*
X251694603Y-89777447D02*
X251722050Y-89750000D01*
X254151471Y-89750000D02*
X254251471Y-89850000D01*
X246000000Y-91750000D02*
X249000000Y-91750000D01*
X255849746Y-90500000D02*
X256000000Y-90500000D01*
X249000000Y-91000000D02*
X249800000Y-90200000D01*
X251335784Y-89750000D02*
X251363231Y-89777447D01*
X249000000Y-91750000D02*
X249500000Y-91250000D01*
X254848529Y-89750000D02*
X255099746Y-89750000D01*
X246000000Y-91750000D02*
X246000000Y-92000000D01*
X250248529Y-90200000D02*
X250698529Y-89750000D01*
X254748529Y-89850000D02*
X254848529Y-89750000D01*
X249800000Y-90200000D02*
X250248529Y-90200000D01*
X254251471Y-89850000D02*
X254748529Y-89850000D01*
X249000000Y-91750000D02*
X249000000Y-91000000D01*
X251722050Y-89750000D02*
X254151471Y-89750000D01*
X250698529Y-89750000D02*
X251335784Y-89750000D01*
X255099746Y-89750000D02*
X255849746Y-90500000D01*
%TO.N,Net-(SLAVE1-P3.3{slash}INT1)*%
X260199936Y-91738989D02*
X260500000Y-91738989D01*
X260738989Y-91500000D02*
X262100000Y-91500000D01*
X259500000Y-92438925D02*
X260199936Y-91738989D01*
X260500000Y-91738989D02*
X260738989Y-91500000D01*
X259500000Y-92900000D02*
X259500000Y-92438925D01*
%TO.N,Net-(USBC_MALE1-CC1)*%
X254250000Y-76500000D02*
X254500000Y-76250000D01*
X254000000Y-76500000D02*
X254250000Y-76500000D01*
X254500000Y-76250000D02*
X254500000Y-75524956D01*
%TO.N,Net-(SLAVE1-P3.2{slash}TXD1_{slash}INT0{slash}VBUS1{slash}AIN3)*%
X258250140Y-88098388D02*
X257651752Y-87500000D01*
X253500000Y-87516165D02*
X253518705Y-87534870D01*
X253500000Y-87500000D02*
X253500000Y-87516165D01*
X257651752Y-87500000D02*
X253500000Y-87500000D01*
X261749936Y-90098933D02*
X261598933Y-90098933D01*
X261598933Y-90098933D02*
X259500000Y-88000000D01*
%TO.N,SLAVEA D+*%
X253149860Y-94500000D02*
X253149860Y-93850140D01*
X258850140Y-90699898D02*
X257150114Y-90699898D01*
X257150114Y-90699898D02*
X257150114Y-91809881D01*
X254500000Y-92500000D02*
X256459995Y-92500000D01*
X257150114Y-91809881D02*
X256959995Y-92000000D01*
X256459995Y-92500000D02*
X256959995Y-92000000D01*
X253149860Y-93850140D02*
X254500000Y-92500000D01*
%TD*%
M02*
