%TF.GenerationSoftware,KiCad,Pcbnew,9.0.8*%
%TF.CreationDate,2026-03-20T23:14:42-07:00*%
%TF.ProjectId,keyscar_kicad,6b657973-6361-4725-9f6b-696361642e6b,rev?*%
%TF.SameCoordinates,Original*%
%TF.FileFunction,Legend,Bot*%
%TF.FilePolarity,Positive*%
%FSLAX46Y46*%
G04 Gerber Fmt 4.6, Leading zero omitted, Abs format (unit mm)*
G04 Created by KiCad (PCBNEW 9.0.8) date 2026-03-20 23:14:42*
%MOMM*%
%LPD*%
G01*
G04 APERTURE LIST*
%ADD10C,0.100000*%
%ADD11C,0.120000*%
%ADD12C,0.000000*%
G04 APERTURE END LIST*
D10*
X264086390Y-82465163D02*
X264586390Y-82465163D01*
X264586390Y-82465163D02*
X264229247Y-82298496D01*
X264229247Y-82298496D02*
X264586390Y-82131830D01*
X264586390Y-82131830D02*
X264086390Y-82131830D01*
X264229247Y-81917543D02*
X264229247Y-81679448D01*
X264086390Y-81965162D02*
X264586390Y-81798496D01*
X264586390Y-81798496D02*
X264086390Y-81631829D01*
X264110200Y-81488972D02*
X264086390Y-81417544D01*
X264086390Y-81417544D02*
X264086390Y-81298496D01*
X264086390Y-81298496D02*
X264110200Y-81250877D01*
X264110200Y-81250877D02*
X264134009Y-81227068D01*
X264134009Y-81227068D02*
X264181628Y-81203258D01*
X264181628Y-81203258D02*
X264229247Y-81203258D01*
X264229247Y-81203258D02*
X264276866Y-81227068D01*
X264276866Y-81227068D02*
X264300676Y-81250877D01*
X264300676Y-81250877D02*
X264324485Y-81298496D01*
X264324485Y-81298496D02*
X264348295Y-81393734D01*
X264348295Y-81393734D02*
X264372104Y-81441353D01*
X264372104Y-81441353D02*
X264395914Y-81465163D01*
X264395914Y-81465163D02*
X264443533Y-81488972D01*
X264443533Y-81488972D02*
X264491152Y-81488972D01*
X264491152Y-81488972D02*
X264538771Y-81465163D01*
X264538771Y-81465163D02*
X264562580Y-81441353D01*
X264562580Y-81441353D02*
X264586390Y-81393734D01*
X264586390Y-81393734D02*
X264586390Y-81274687D01*
X264586390Y-81274687D02*
X264562580Y-81203258D01*
X264586390Y-81060401D02*
X264586390Y-80774687D01*
X264086390Y-80917544D02*
X264586390Y-80917544D01*
X264348295Y-80608021D02*
X264348295Y-80441354D01*
X264086390Y-80369926D02*
X264086390Y-80608021D01*
X264086390Y-80608021D02*
X264586390Y-80608021D01*
X264586390Y-80608021D02*
X264586390Y-80369926D01*
X264086390Y-79869926D02*
X264324485Y-80036592D01*
X264086390Y-80155640D02*
X264586390Y-80155640D01*
X264586390Y-80155640D02*
X264586390Y-79965164D01*
X264586390Y-79965164D02*
X264562580Y-79917545D01*
X264562580Y-79917545D02*
X264538771Y-79893735D01*
X264538771Y-79893735D02*
X264491152Y-79869926D01*
X264491152Y-79869926D02*
X264419723Y-79869926D01*
X264419723Y-79869926D02*
X264372104Y-79893735D01*
X264372104Y-79893735D02*
X264348295Y-79917545D01*
X264348295Y-79917545D02*
X264324485Y-79965164D01*
X264324485Y-79965164D02*
X264324485Y-80155640D01*
X264110200Y-90088972D02*
X264086390Y-90017544D01*
X264086390Y-90017544D02*
X264086390Y-89898496D01*
X264086390Y-89898496D02*
X264110200Y-89850877D01*
X264110200Y-89850877D02*
X264134009Y-89827068D01*
X264134009Y-89827068D02*
X264181628Y-89803258D01*
X264181628Y-89803258D02*
X264229247Y-89803258D01*
X264229247Y-89803258D02*
X264276866Y-89827068D01*
X264276866Y-89827068D02*
X264300676Y-89850877D01*
X264300676Y-89850877D02*
X264324485Y-89898496D01*
X264324485Y-89898496D02*
X264348295Y-89993734D01*
X264348295Y-89993734D02*
X264372104Y-90041353D01*
X264372104Y-90041353D02*
X264395914Y-90065163D01*
X264395914Y-90065163D02*
X264443533Y-90088972D01*
X264443533Y-90088972D02*
X264491152Y-90088972D01*
X264491152Y-90088972D02*
X264538771Y-90065163D01*
X264538771Y-90065163D02*
X264562580Y-90041353D01*
X264562580Y-90041353D02*
X264586390Y-89993734D01*
X264586390Y-89993734D02*
X264586390Y-89874687D01*
X264586390Y-89874687D02*
X264562580Y-89803258D01*
X264086390Y-89350878D02*
X264086390Y-89588973D01*
X264086390Y-89588973D02*
X264586390Y-89588973D01*
X264229247Y-89208020D02*
X264229247Y-88969925D01*
X264086390Y-89255639D02*
X264586390Y-89088973D01*
X264586390Y-89088973D02*
X264086390Y-88922306D01*
X264586390Y-88827068D02*
X264086390Y-88660402D01*
X264086390Y-88660402D02*
X264586390Y-88493735D01*
X264348295Y-88327069D02*
X264348295Y-88160402D01*
X264086390Y-88088974D02*
X264086390Y-88327069D01*
X264086390Y-88327069D02*
X264586390Y-88327069D01*
X264586390Y-88327069D02*
X264586390Y-88088974D01*
G36*
X262256748Y-97743668D02*
G01*
X262132097Y-97868318D01*
X262325096Y-98348181D01*
X261988665Y-98011750D01*
X261875629Y-98124786D01*
X262632771Y-98881928D01*
X262745807Y-98768892D01*
X262424100Y-98447185D01*
X262871364Y-98643335D01*
X262995022Y-98519678D01*
X262989711Y-98514367D01*
X262475307Y-98307120D01*
X262256748Y-97743668D01*
G37*
G36*
X262640174Y-97425985D02*
G01*
X262671371Y-97448816D01*
X262774520Y-97551964D01*
X262668737Y-97657746D01*
X262585839Y-97574848D01*
X262481956Y-97678730D01*
X262620121Y-97816895D01*
X262799346Y-97637669D01*
X262860182Y-97637626D01*
X263040702Y-97818147D01*
X263063533Y-97849344D01*
X263070047Y-97878240D01*
X263062655Y-97907629D01*
X263038285Y-97940336D01*
X262847488Y-98131133D01*
X262814756Y-98155525D01*
X262785352Y-98162928D01*
X262756450Y-98156420D01*
X262725255Y-98133594D01*
X262481222Y-97889561D01*
X262692787Y-97889561D01*
X262810788Y-98007562D01*
X262914670Y-97903679D01*
X262796669Y-97785678D01*
X262692787Y-97889561D01*
X262481222Y-97889561D01*
X262355924Y-97764263D01*
X262333098Y-97733068D01*
X262326590Y-97704166D01*
X262333993Y-97674762D01*
X262358385Y-97642030D01*
X262549182Y-97451234D01*
X262581889Y-97426864D01*
X262611278Y-97419471D01*
X262640174Y-97425985D01*
G37*
G36*
X263511412Y-97467209D02*
G01*
X262905215Y-97105477D01*
X262673616Y-96967571D01*
X262560580Y-97080607D01*
X262793690Y-97212252D01*
X263156372Y-97822249D01*
X263269883Y-97708738D01*
X263010824Y-97321186D01*
X263398376Y-97580245D01*
X263511412Y-97467209D01*
G37*
G36*
X263443280Y-96676907D02*
G01*
X263412034Y-96653955D01*
X263383272Y-96647318D01*
X263354219Y-96654473D01*
X263322083Y-96678332D01*
X263136079Y-96864336D01*
X263112220Y-96896472D01*
X263105065Y-96925524D01*
X263111702Y-96954286D01*
X263134654Y-96985532D01*
X263237803Y-97088681D01*
X263343585Y-96982899D01*
X263263450Y-96902763D01*
X263360510Y-96805703D01*
X263439264Y-96884456D01*
X263369880Y-97154093D01*
X263366141Y-97188499D01*
X263372902Y-97216621D01*
X263389741Y-97240619D01*
X263503986Y-97354864D01*
X263535183Y-97377695D01*
X263564079Y-97384209D01*
X263593468Y-97376816D01*
X263626175Y-97352446D01*
X263810193Y-97168428D01*
X263834074Y-97136267D01*
X263841239Y-97107200D01*
X263834608Y-97078432D01*
X263811661Y-97047188D01*
X263714039Y-96949566D01*
X263609207Y-97054399D01*
X263683816Y-97129008D01*
X263586755Y-97226068D01*
X263516291Y-97155604D01*
X263586194Y-96887436D01*
X263590311Y-96853061D01*
X263583447Y-96824444D01*
X263565814Y-96799442D01*
X263443280Y-96676907D01*
G37*
G36*
X263836099Y-96284088D02*
G01*
X263804855Y-96261141D01*
X263776087Y-96254510D01*
X263747020Y-96261675D01*
X263714859Y-96285556D01*
X263523113Y-96477302D01*
X263498721Y-96510034D01*
X263491317Y-96539438D01*
X263497826Y-96568340D01*
X263520652Y-96599535D01*
X263889983Y-96968866D01*
X263921178Y-96991692D01*
X263950080Y-96998201D01*
X263979484Y-96990797D01*
X264012216Y-96966405D01*
X264203962Y-96774659D01*
X264227843Y-96742498D01*
X264235008Y-96713431D01*
X264228377Y-96684663D01*
X264205430Y-96653419D01*
X264088465Y-96536454D01*
X263980740Y-96644179D01*
X264066402Y-96729842D01*
X263967398Y-96828845D01*
X263660673Y-96522120D01*
X263759677Y-96423116D01*
X263850865Y-96514305D01*
X263958590Y-96406579D01*
X263836099Y-96284088D01*
G37*
G36*
X264598897Y-96259952D02*
G01*
X264621849Y-96291198D01*
X264628486Y-96319960D01*
X264621331Y-96349013D01*
X264597472Y-96381149D01*
X264410518Y-96568103D01*
X264377811Y-96592473D01*
X264348422Y-96599865D01*
X264319526Y-96593351D01*
X264288329Y-96570520D01*
X264198997Y-96481188D01*
X264298994Y-96381192D01*
X264365313Y-96447511D01*
X264471095Y-96341728D01*
X264360563Y-96231197D01*
X264211302Y-96380458D01*
X264178595Y-96404828D01*
X264149206Y-96412221D01*
X264120310Y-96405706D01*
X264089113Y-96382876D01*
X263910449Y-96204211D01*
X263887379Y-96172918D01*
X263880624Y-96144285D01*
X263885466Y-96124206D01*
X264042007Y-96124206D01*
X264180172Y-96262370D01*
X264285954Y-96156588D01*
X264151935Y-96022568D01*
X264042007Y-96124206D01*
X263885466Y-96124206D01*
X263887552Y-96115555D01*
X263910924Y-96083965D01*
X263993218Y-96016523D01*
X264080478Y-95953097D01*
X264063898Y-95936518D01*
X264169680Y-95830735D01*
X264598897Y-96259952D01*
G37*
G36*
X264841333Y-95728321D02*
G01*
X264731665Y-95837989D01*
X264844960Y-95951284D01*
X264753382Y-96034571D01*
X264359613Y-95640802D01*
X264248995Y-95751420D01*
X264738098Y-96240523D01*
X264848716Y-96129905D01*
X264830755Y-96111943D01*
X264911969Y-96056980D01*
X264957393Y-96023354D01*
X264988176Y-95995971D01*
X265011570Y-95964357D01*
X265018508Y-95935612D01*
X265011758Y-95906973D01*
X264988694Y-95875682D01*
X264841333Y-95728321D01*
G37*
D11*
G36*
X264994134Y-76037373D02*
G01*
X265031736Y-76045719D01*
X265067522Y-76061072D01*
X265101209Y-76082330D01*
X265133092Y-76109966D01*
X265158114Y-76138696D01*
X265178719Y-76170391D01*
X265195072Y-76205364D01*
X265205766Y-76242276D01*
X265210214Y-76282271D01*
X265208057Y-76326053D01*
X265199282Y-76369095D01*
X265182298Y-76416936D01*
X265155695Y-76470446D01*
X265123544Y-76520631D01*
X265079564Y-76576432D01*
X265021697Y-76638575D01*
X264946658Y-76706813D01*
X264881028Y-76754050D01*
X264835631Y-76779308D01*
X264793590Y-76797203D01*
X264754446Y-76808615D01*
X264714237Y-76814942D01*
X264676263Y-76815826D01*
X264640104Y-76811561D01*
X264587467Y-76796524D01*
X264537257Y-76771861D01*
X264490318Y-76739293D01*
X264444806Y-76698709D01*
X264396168Y-76644889D01*
X264355722Y-76587346D01*
X264437390Y-76523488D01*
X264460058Y-76560274D01*
X264481528Y-76587568D01*
X264517569Y-76625946D01*
X264553926Y-76658456D01*
X264588087Y-76681893D01*
X264620448Y-76697608D01*
X264654736Y-76707529D01*
X264688819Y-76710835D01*
X264723262Y-76707679D01*
X264756975Y-76698696D01*
X264792114Y-76683713D01*
X264829055Y-76661987D01*
X264882164Y-76621955D01*
X264940774Y-76568079D01*
X265008361Y-76494756D01*
X265052881Y-76435181D01*
X265085697Y-76376181D01*
X265101876Y-76329000D01*
X265106675Y-76283626D01*
X265100386Y-76245842D01*
X265084667Y-76211735D01*
X265061074Y-76181984D01*
X265033543Y-76159926D01*
X265006885Y-76148356D01*
X264980118Y-76145586D01*
X264953186Y-76150278D01*
X264928910Y-76161264D01*
X264906610Y-76179005D01*
X264893269Y-76192346D01*
X264916260Y-76210221D01*
X264936305Y-76227999D01*
X264963957Y-76261215D01*
X264980583Y-76293262D01*
X264987955Y-76324920D01*
X264987723Y-76357743D01*
X264980596Y-76390810D01*
X264966032Y-76424754D01*
X264935008Y-76472791D01*
X264892524Y-76521254D01*
X264848738Y-76560150D01*
X264809014Y-76586504D01*
X264772612Y-76602566D01*
X264734079Y-76611402D01*
X264698369Y-76612108D01*
X264664585Y-76605221D01*
X264632402Y-76591729D01*
X264601557Y-76572365D01*
X264571777Y-76546544D01*
X264524985Y-76490879D01*
X264502399Y-76456359D01*
X264495749Y-76442565D01*
X264643050Y-76442565D01*
X264653834Y-76457817D01*
X264663840Y-76469312D01*
X264681297Y-76482322D01*
X264699461Y-76487900D01*
X264718513Y-76487448D01*
X264737704Y-76481585D01*
X264775591Y-76458529D01*
X264810111Y-76428478D01*
X264827450Y-76408927D01*
X264842429Y-76387288D01*
X264853031Y-76364136D01*
X264856871Y-76341629D01*
X264852549Y-76319868D01*
X264836826Y-76297816D01*
X264824586Y-76287065D01*
X264809366Y-76276249D01*
X264643050Y-76442565D01*
X264495749Y-76442565D01*
X264487162Y-76424754D01*
X264778182Y-76133734D01*
X264826762Y-76090896D01*
X264870898Y-76062434D01*
X264911468Y-76045719D01*
X264954360Y-76037201D01*
X264994134Y-76037373D01*
G37*
G36*
X264376026Y-76405714D02*
G01*
X264890549Y-75891191D01*
X264808880Y-75809522D01*
X264709013Y-75834392D01*
X264603965Y-75865220D01*
X264501507Y-75898639D01*
X264406821Y-75931669D01*
X264327776Y-75960975D01*
X264644054Y-75644696D01*
X264551991Y-75552633D01*
X264037468Y-76067156D01*
X264119137Y-76148825D01*
X264240506Y-76100186D01*
X264365631Y-76054527D01*
X264494059Y-76011459D01*
X264625499Y-75972114D01*
X264283963Y-76313651D01*
X264376026Y-76405714D01*
G37*
G36*
X263712512Y-75760010D02*
G01*
X263749753Y-75792110D01*
X263784149Y-75812441D01*
X263816459Y-75823155D01*
X263850220Y-75826080D01*
X263883966Y-75821162D01*
X263918528Y-75807936D01*
X263968094Y-75776790D01*
X264022832Y-75728826D01*
X264166868Y-75584789D01*
X264275284Y-75693205D01*
X264359932Y-75608558D01*
X264149058Y-75397684D01*
X263907032Y-75639709D01*
X263883555Y-75660138D01*
X263863219Y-75672383D01*
X263842389Y-75678460D01*
X263822741Y-75677241D01*
X263803857Y-75669148D01*
X263783041Y-75652371D01*
X263752957Y-75615617D01*
X263737729Y-75590041D01*
X263722874Y-75555094D01*
X263627120Y-75624166D01*
X263651989Y-75679475D01*
X263681328Y-75724357D01*
X263712512Y-75760010D01*
G37*
G36*
X264265667Y-75419218D02*
G01*
X264284282Y-75433850D01*
X264305089Y-75442920D01*
X264328748Y-75446678D01*
X264352320Y-75444294D01*
X264374337Y-75435159D01*
X264395552Y-75418473D01*
X264412699Y-75396742D01*
X264421911Y-75374602D01*
X264424146Y-75351280D01*
X264420200Y-75327858D01*
X264411018Y-75307159D01*
X264396330Y-75288555D01*
X264377703Y-75273846D01*
X264356994Y-75264655D01*
X264333573Y-75260707D01*
X264310250Y-75262942D01*
X264288111Y-75272154D01*
X264266379Y-75289300D01*
X264249693Y-75310516D01*
X264240558Y-75332533D01*
X264238174Y-75356105D01*
X264241935Y-75379763D01*
X264251014Y-75400580D01*
X264265667Y-75419218D01*
G37*
G36*
X263530847Y-75560535D02*
G01*
X263909494Y-75181888D01*
X263855706Y-75099864D01*
X263819335Y-75053600D01*
X263775107Y-75005922D01*
X263731053Y-74967689D01*
X263691563Y-74943910D01*
X263655584Y-74931670D01*
X263617867Y-74927999D01*
X263581157Y-74932759D01*
X263544577Y-74946177D01*
X263492453Y-74978122D01*
X263437327Y-75025967D01*
X263216803Y-75246491D01*
X263319261Y-75348949D01*
X263526411Y-75141799D01*
X263562524Y-75108607D01*
X263590625Y-75088012D01*
X263618608Y-75075378D01*
X263642955Y-75073504D01*
X263666449Y-75081359D01*
X263692726Y-75101709D01*
X263714228Y-75125478D01*
X263735762Y-75152193D01*
X263429134Y-75458822D01*
X263530847Y-75560535D01*
G37*
G36*
X262846543Y-75158346D02*
G01*
X262887643Y-75194302D01*
X262930122Y-75221848D01*
X262975108Y-75244033D01*
X263021764Y-75262326D01*
X263076717Y-75145005D01*
X263004343Y-75115699D01*
X262967495Y-75094800D01*
X262940841Y-75072986D01*
X262926097Y-75054466D01*
X262918267Y-75036117D01*
X262916360Y-75017289D01*
X262920655Y-74998777D01*
X262933568Y-74975812D01*
X262958651Y-74946760D01*
X263243745Y-74661666D01*
X263401900Y-74819821D01*
X263486548Y-74735174D01*
X263225935Y-74474561D01*
X262861375Y-74839121D01*
X262822141Y-74883497D01*
X262796415Y-74923155D01*
X262781584Y-74959000D01*
X262774335Y-74996871D01*
X262775223Y-75031956D01*
X262783819Y-75065182D01*
X262798765Y-75096705D01*
X262819460Y-75127690D01*
X262846543Y-75158346D01*
G37*
G36*
X263350704Y-74504255D02*
G01*
X263369316Y-74518869D01*
X263390003Y-74527810D01*
X263413429Y-74531359D01*
X263436763Y-74528791D01*
X263458670Y-74519546D01*
X263479877Y-74502798D01*
X263497087Y-74481074D01*
X263506408Y-74459045D01*
X263508827Y-74435961D01*
X263505090Y-74412772D01*
X263496038Y-74392193D01*
X263481367Y-74373593D01*
X263462741Y-74358883D01*
X263442031Y-74349692D01*
X263418610Y-74345744D01*
X263395287Y-74347979D01*
X263373148Y-74357191D01*
X263351416Y-74374337D01*
X263334731Y-74395553D01*
X263325596Y-74417570D01*
X263323211Y-74441142D01*
X263326972Y-74464800D01*
X263336051Y-74485617D01*
X263350704Y-74504255D01*
G37*
G36*
X262834206Y-74100642D02*
G01*
X262869319Y-74115617D01*
X262908818Y-74141652D01*
X262953697Y-74181533D01*
X262989137Y-74219784D01*
X263020534Y-74259510D01*
X263047310Y-74298897D01*
X263062113Y-74325570D01*
X262965581Y-74393864D01*
X262952445Y-74370326D01*
X262931806Y-74340077D01*
X262907783Y-74309968D01*
X262880189Y-74280299D01*
X262849758Y-74254801D01*
X262823779Y-74241699D01*
X262797418Y-74236745D01*
X262773651Y-74239821D01*
X262751585Y-74249760D01*
X262730971Y-74266180D01*
X262718342Y-74278810D01*
X262755096Y-74305914D01*
X262795574Y-74342635D01*
X262833434Y-74386353D01*
X262862767Y-74432885D01*
X262876839Y-74466030D01*
X262884113Y-74498513D01*
X262885046Y-74530874D01*
X262878566Y-74562056D01*
X262862714Y-74593587D01*
X262835663Y-74626304D01*
X262798645Y-74657181D01*
X262763677Y-74675299D01*
X262727031Y-74683562D01*
X262690525Y-74681613D01*
X262654436Y-74670665D01*
X262616661Y-74650753D01*
X262580363Y-74624357D01*
X262542409Y-74589907D01*
X262490454Y-74534618D01*
X262449601Y-74484470D01*
X262416611Y-74437677D01*
X262559474Y-74437677D01*
X262585833Y-74467016D01*
X262617374Y-74500046D01*
X262650497Y-74526907D01*
X262680487Y-74540167D01*
X262700436Y-74541825D01*
X262719112Y-74536180D01*
X262737642Y-74522325D01*
X262752018Y-74501836D01*
X262755452Y-74481523D01*
X262750871Y-74460399D01*
X262739164Y-74437710D01*
X262722926Y-74415947D01*
X262702766Y-74393864D01*
X262675662Y-74369027D01*
X262649303Y-74347849D01*
X262559474Y-74437677D01*
X262416611Y-74437677D01*
X262394648Y-74406525D01*
X262627801Y-74173373D01*
X262662042Y-74142800D01*
X262695230Y-74119995D01*
X262727636Y-74103977D01*
X262761877Y-74094557D01*
X262797088Y-74093370D01*
X262834206Y-74100642D01*
G37*
G36*
X262398488Y-73652375D02*
G01*
X262439044Y-73680287D01*
X262476649Y-73710043D01*
X262510706Y-73741522D01*
X262548387Y-73784178D01*
X262576203Y-73826135D01*
X262595354Y-73867748D01*
X262606507Y-73911628D01*
X262608230Y-73955372D01*
X262600567Y-73999901D01*
X262584078Y-74042229D01*
X262556982Y-74085828D01*
X262517409Y-74131308D01*
X262477941Y-74166481D01*
X262439686Y-74192584D01*
X262402323Y-74210774D01*
X262362777Y-74222276D01*
X262324658Y-74225607D01*
X262287203Y-74221169D01*
X262251440Y-74209088D01*
X262215977Y-74188476D01*
X262180309Y-74158056D01*
X262161013Y-74136478D01*
X262145434Y-74114243D01*
X262117941Y-74062981D01*
X262102333Y-74078590D01*
X262082709Y-74102051D01*
X262069335Y-74126483D01*
X262063499Y-74152832D01*
X262067489Y-74182537D01*
X262081714Y-74212254D01*
X262112015Y-74248629D01*
X262151967Y-74284121D01*
X262186656Y-74306885D01*
X262254562Y-74340660D01*
X262186980Y-74446841D01*
X262105344Y-74399337D01*
X262065338Y-74370436D01*
X262028112Y-74336936D01*
X261979437Y-74281349D01*
X261948044Y-74231182D01*
X261930629Y-74185298D01*
X261924910Y-74142415D01*
X261929822Y-74099226D01*
X261945913Y-74054252D01*
X261975008Y-74006361D01*
X261996741Y-73981313D01*
X262199609Y-73981313D01*
X262215217Y-74017711D01*
X262227098Y-74036240D01*
X262242678Y-74054109D01*
X262268629Y-74073987D01*
X262294619Y-74083058D01*
X262322064Y-74082963D01*
X262351806Y-74073408D01*
X262380806Y-74055784D01*
X262413462Y-74027361D01*
X262446619Y-73988369D01*
X262465327Y-73954158D01*
X262472851Y-73923413D01*
X262470593Y-73892415D01*
X262457681Y-73861410D01*
X262431985Y-73829116D01*
X262411584Y-73810917D01*
X262387459Y-73793463D01*
X262199609Y-73981313D01*
X261996741Y-73981313D01*
X262019920Y-73954598D01*
X262351061Y-73623456D01*
X262398488Y-73652375D01*
G37*
G36*
X261992006Y-73271071D02*
G01*
X262034476Y-73285488D01*
X262074874Y-73308673D01*
X262113731Y-73341568D01*
X262145691Y-73379423D01*
X262168580Y-73419464D01*
X262183159Y-73462224D01*
X262189575Y-73507002D01*
X262187685Y-73552545D01*
X262177201Y-73599590D01*
X262158805Y-73644225D01*
X262131338Y-73688008D01*
X262093687Y-73731354D01*
X262050908Y-73768650D01*
X262007347Y-73796426D01*
X261962635Y-73815645D01*
X261915538Y-73827030D01*
X261869763Y-73829651D01*
X261824557Y-73823805D01*
X261781359Y-73809534D01*
X261740582Y-73786441D01*
X261701666Y-73753633D01*
X261668407Y-73714225D01*
X261645243Y-73673342D01*
X261631170Y-73630418D01*
X261628235Y-73606903D01*
X261762069Y-73606903D01*
X261771074Y-73637361D01*
X261792239Y-73666039D01*
X261814062Y-73683508D01*
X261836326Y-73693458D01*
X261859690Y-73696798D01*
X261885047Y-73693499D01*
X261917916Y-73681182D01*
X261952371Y-73659983D01*
X261988995Y-73628151D01*
X262020975Y-73590906D01*
X262041490Y-73555873D01*
X262052496Y-73522358D01*
X262054149Y-73488308D01*
X262045054Y-73458306D01*
X262024647Y-73430652D01*
X262002385Y-73412711D01*
X261980031Y-73402502D01*
X261956935Y-73398992D01*
X261932228Y-73402090D01*
X261900097Y-73414163D01*
X261865788Y-73435406D01*
X261828637Y-73467794D01*
X261797011Y-73504469D01*
X261776187Y-73539295D01*
X261764423Y-73572875D01*
X261762069Y-73606903D01*
X261628235Y-73606903D01*
X261625560Y-73585471D01*
X261628413Y-73539933D01*
X261640043Y-73493052D01*
X261659442Y-73448559D01*
X261687337Y-73405113D01*
X261724690Y-73362357D01*
X261767994Y-73324590D01*
X261811547Y-73296886D01*
X261855741Y-73278131D01*
X261902330Y-73267187D01*
X261947501Y-73264933D01*
X261992006Y-73271071D01*
G37*
G36*
X261396042Y-73425729D02*
G01*
X261444233Y-73367262D01*
X261491440Y-73296912D01*
X261534198Y-73221600D01*
X261573108Y-73142514D01*
X261607837Y-73062096D01*
X261636966Y-72985848D01*
X261661688Y-72911282D01*
X261678901Y-72848838D01*
X261894956Y-73064893D01*
X261979604Y-72980246D01*
X261643993Y-72644635D01*
X261566794Y-72721835D01*
X261559648Y-72772680D01*
X261543025Y-72842167D01*
X261519908Y-72915154D01*
X261487716Y-72998445D01*
X261449365Y-73081971D01*
X261403490Y-73166606D01*
X261350960Y-73247569D01*
X261292094Y-73321782D01*
X261396042Y-73425729D01*
G37*
G36*
X260980512Y-73010199D02*
G01*
X261028703Y-72951732D01*
X261075910Y-72881382D01*
X261118668Y-72806070D01*
X261157578Y-72726983D01*
X261192307Y-72646565D01*
X261221436Y-72570318D01*
X261246158Y-72495752D01*
X261263371Y-72433308D01*
X261479426Y-72649363D01*
X261564074Y-72564716D01*
X261228463Y-72229105D01*
X261151264Y-72306305D01*
X261144118Y-72357150D01*
X261127495Y-72426637D01*
X261104378Y-72499624D01*
X261072186Y-72582914D01*
X261033835Y-72666441D01*
X260987959Y-72751076D01*
X260935429Y-72832039D01*
X260876564Y-72906252D01*
X260980512Y-73010199D01*
G37*
D12*
%TO.C,G\u002A\u002A\u002A*%
G36*
X264504084Y-77400442D02*
G01*
X264554357Y-77401652D01*
X264602540Y-77403718D01*
X264647672Y-77406653D01*
X264688794Y-77410466D01*
X264726180Y-77415105D01*
X264786414Y-77425208D01*
X264841674Y-77438130D01*
X264892145Y-77454019D01*
X264938007Y-77473026D01*
X264979444Y-77495301D01*
X265016637Y-77520994D01*
X265049769Y-77550254D01*
X265079022Y-77583232D01*
X265104579Y-77620077D01*
X265126621Y-77660941D01*
X265145332Y-77705971D01*
X265160894Y-77755320D01*
X265173488Y-77809136D01*
X265178588Y-77835959D01*
X265183283Y-77863843D01*
X265187221Y-77891504D01*
X265190461Y-77919701D01*
X265193057Y-77949195D01*
X265195067Y-77980743D01*
X265196548Y-78015106D01*
X265197556Y-78053043D01*
X265198148Y-78095313D01*
X265198380Y-78142676D01*
X265198386Y-78155420D01*
X265198098Y-78206863D01*
X265197266Y-78253317D01*
X265195839Y-78295474D01*
X265193765Y-78334024D01*
X265190993Y-78369659D01*
X265187471Y-78403069D01*
X265183146Y-78434946D01*
X265177968Y-78465981D01*
X265171884Y-78496865D01*
X265164387Y-78529192D01*
X265148852Y-78581748D01*
X265130070Y-78629539D01*
X265107890Y-78672735D01*
X265082159Y-78711505D01*
X265052727Y-78746017D01*
X265019442Y-78776440D01*
X264982151Y-78802942D01*
X264940705Y-78825692D01*
X264894949Y-78844859D01*
X264844734Y-78860610D01*
X264817714Y-78867306D01*
X264768041Y-78877197D01*
X264713286Y-78885359D01*
X264653784Y-78891758D01*
X264589868Y-78896362D01*
X264521874Y-78899136D01*
X264450136Y-78900048D01*
X264400289Y-78899655D01*
X264340238Y-78897935D01*
X264329844Y-78897637D01*
X264264611Y-78893849D01*
X264204347Y-78888229D01*
X264148808Y-78880714D01*
X264097751Y-78871242D01*
X264050931Y-78859750D01*
X264008106Y-78846175D01*
X263969032Y-78830456D01*
X263933464Y-78812529D01*
X263901160Y-78792332D01*
X263871876Y-78769802D01*
X263845367Y-78744878D01*
X263830018Y-78727978D01*
X263807648Y-78699103D01*
X263787664Y-78667459D01*
X263769968Y-78632723D01*
X263754461Y-78594574D01*
X263741044Y-78552690D01*
X263729620Y-78506749D01*
X263720090Y-78456431D01*
X263712355Y-78401412D01*
X263706317Y-78341372D01*
X263701878Y-78275990D01*
X263701380Y-78262927D01*
X263700997Y-78244867D01*
X263700728Y-78222866D01*
X263700572Y-78197888D01*
X263700523Y-78170895D01*
X263700579Y-78142850D01*
X263700736Y-78114717D01*
X263700990Y-78087458D01*
X263701337Y-78062037D01*
X263701774Y-78039417D01*
X263702297Y-78020561D01*
X263702902Y-78006431D01*
X263703678Y-77993381D01*
X263705212Y-77974168D01*
X263998784Y-77974168D01*
X263998784Y-78055792D01*
X264006251Y-78064666D01*
X264013718Y-78073540D01*
X264228197Y-78074471D01*
X264255235Y-78074589D01*
X264292240Y-78074760D01*
X264324097Y-78074930D01*
X264351238Y-78075113D01*
X264374093Y-78075322D01*
X264393094Y-78075571D01*
X264408672Y-78075874D01*
X264421259Y-78076244D01*
X264431285Y-78076695D01*
X264439183Y-78077240D01*
X264445383Y-78077894D01*
X264450317Y-78078669D01*
X264454416Y-78079580D01*
X264458111Y-78080640D01*
X264461835Y-78081863D01*
X264475196Y-78087524D01*
X264489610Y-78097721D01*
X264498867Y-78110222D01*
X264502803Y-78124643D01*
X264501256Y-78140600D01*
X264494062Y-78157711D01*
X264491704Y-78161596D01*
X264476889Y-78179500D01*
X264457005Y-78194830D01*
X264431958Y-78207645D01*
X264401656Y-78218007D01*
X264400515Y-78218322D01*
X264395621Y-78219611D01*
X264390702Y-78220714D01*
X264385272Y-78221650D01*
X264378846Y-78222440D01*
X264370936Y-78223102D01*
X264361056Y-78223655D01*
X264348721Y-78224119D01*
X264333443Y-78224511D01*
X264314737Y-78224852D01*
X264292116Y-78225161D01*
X264265095Y-78225456D01*
X264233186Y-78225756D01*
X264195903Y-78226082D01*
X264013590Y-78227645D01*
X264006919Y-78234315D01*
X264006537Y-78234699D01*
X264004681Y-78236768D01*
X264003225Y-78239241D01*
X264002115Y-78242800D01*
X264001295Y-78248126D01*
X264000710Y-78255902D01*
X264000307Y-78266810D01*
X264000030Y-78281531D01*
X263999824Y-78300749D01*
X263999636Y-78325144D01*
X263999611Y-78329050D01*
X263999575Y-78350737D01*
X263999717Y-78370607D01*
X264000017Y-78387851D01*
X264000456Y-78401660D01*
X264001018Y-78411227D01*
X264001682Y-78415743D01*
X264002085Y-78416787D01*
X264002771Y-78418773D01*
X264003504Y-78420569D01*
X264004561Y-78422185D01*
X264006217Y-78423630D01*
X264008751Y-78424914D01*
X264012438Y-78426046D01*
X264017556Y-78427036D01*
X264024381Y-78427893D01*
X264033191Y-78428627D01*
X264044262Y-78429248D01*
X264057871Y-78429764D01*
X264074295Y-78430185D01*
X264093810Y-78430521D01*
X264116694Y-78430781D01*
X264143223Y-78430976D01*
X264173674Y-78431113D01*
X264208325Y-78431203D01*
X264247451Y-78431256D01*
X264291330Y-78431280D01*
X264340238Y-78431286D01*
X264394452Y-78431282D01*
X264454250Y-78431279D01*
X264505132Y-78431277D01*
X264559212Y-78431268D01*
X264607953Y-78431248D01*
X264651637Y-78431215D01*
X264690543Y-78431165D01*
X264724953Y-78431095D01*
X264755146Y-78431001D01*
X264781405Y-78430879D01*
X264804008Y-78430728D01*
X264823238Y-78430543D01*
X264839374Y-78430321D01*
X264852697Y-78430059D01*
X264863488Y-78429754D01*
X264872027Y-78429401D01*
X264878596Y-78428999D01*
X264883474Y-78428543D01*
X264886942Y-78428030D01*
X264889281Y-78427458D01*
X264890772Y-78426822D01*
X264891695Y-78426119D01*
X264893131Y-78423808D01*
X264895151Y-78418125D01*
X264897533Y-78408893D01*
X264900372Y-78395661D01*
X264903763Y-78377980D01*
X264907802Y-78355400D01*
X264912584Y-78327470D01*
X264914500Y-78316093D01*
X264918430Y-78292588D01*
X264921461Y-78273994D01*
X264923659Y-78259701D01*
X264925089Y-78249098D01*
X264925817Y-78241576D01*
X264925908Y-78236523D01*
X264925427Y-78233330D01*
X264924440Y-78231386D01*
X264923011Y-78230080D01*
X264921724Y-78229467D01*
X264918069Y-78228665D01*
X264911971Y-78227996D01*
X264903003Y-78227451D01*
X264890737Y-78227019D01*
X264874747Y-78226689D01*
X264854605Y-78226450D01*
X264829884Y-78226293D01*
X264800158Y-78226207D01*
X264764999Y-78226180D01*
X264734613Y-78226156D01*
X264703060Y-78226060D01*
X264676728Y-78225882D01*
X264655268Y-78225615D01*
X264638329Y-78225250D01*
X264625562Y-78224781D01*
X264616619Y-78224199D01*
X264611150Y-78223496D01*
X264608805Y-78222664D01*
X264607715Y-78221437D01*
X264605687Y-78216610D01*
X264606369Y-78209957D01*
X264609984Y-78200490D01*
X264616752Y-78187220D01*
X264620480Y-78180052D01*
X264633299Y-78149141D01*
X264642221Y-78116342D01*
X264647202Y-78082659D01*
X264648197Y-78049092D01*
X264645163Y-78016644D01*
X264638056Y-77986316D01*
X264626830Y-77959111D01*
X264616066Y-77942111D01*
X264597383Y-77921786D01*
X264574224Y-77904512D01*
X264547074Y-77890635D01*
X264516421Y-77880500D01*
X264510287Y-77879040D01*
X264500313Y-77877047D01*
X264489198Y-77875318D01*
X264476512Y-77873834D01*
X264461827Y-77872579D01*
X264444713Y-77871535D01*
X264424741Y-77870686D01*
X264401484Y-77870015D01*
X264374511Y-77869504D01*
X264343394Y-77869137D01*
X264307704Y-77868895D01*
X264267013Y-77868763D01*
X264220891Y-77868722D01*
X264219348Y-77868722D01*
X264179142Y-77868724D01*
X264144373Y-77868749D01*
X264114633Y-77868829D01*
X264089515Y-77868994D01*
X264068611Y-77869274D01*
X264051513Y-77869701D01*
X264037813Y-77870304D01*
X264027102Y-77871115D01*
X264018974Y-77872164D01*
X264013020Y-77873482D01*
X264008833Y-77875098D01*
X264006004Y-77877045D01*
X264004125Y-77879351D01*
X264002789Y-77882049D01*
X264001588Y-77885168D01*
X264001534Y-77885325D01*
X264000803Y-77890503D01*
X264000146Y-77900647D01*
X263999590Y-77914921D01*
X263999159Y-77932489D01*
X263998882Y-77952516D01*
X263998784Y-77974168D01*
X263705212Y-77974168D01*
X263708863Y-77928425D01*
X263716015Y-77868693D01*
X263725226Y-77813907D01*
X263736589Y-77763785D01*
X263750196Y-77718050D01*
X263766140Y-77676420D01*
X263784512Y-77638617D01*
X263805405Y-77604360D01*
X263828911Y-77573370D01*
X263855123Y-77545367D01*
X263866698Y-77534663D01*
X263897930Y-77509792D01*
X263932396Y-77487834D01*
X263970477Y-77468631D01*
X264012554Y-77452025D01*
X264059009Y-77437856D01*
X264110223Y-77425969D01*
X264166576Y-77416203D01*
X264174340Y-77415092D01*
X264212348Y-77410596D01*
X264254989Y-77406884D01*
X264301304Y-77403966D01*
X264350331Y-77401852D01*
X264401111Y-77400553D01*
X264452682Y-77400079D01*
X264504084Y-77400442D01*
G37*
G36*
X264588925Y-91518114D02*
G01*
X264588925Y-91595490D01*
X264312090Y-91595490D01*
X264035256Y-91595490D01*
X264035256Y-91518114D01*
X264035256Y-91440738D01*
X264312090Y-91440738D01*
X264588925Y-91440738D01*
X264588925Y-91518114D01*
G37*
G36*
X264588925Y-93622744D02*
G01*
X264588925Y-94026820D01*
X264513268Y-94026820D01*
X264437611Y-94026820D01*
X264437611Y-93863470D01*
X264437611Y-93700120D01*
X264236433Y-93700120D01*
X264035256Y-93700120D01*
X264035256Y-93622744D01*
X264035256Y-93545368D01*
X264236433Y-93545368D01*
X264437611Y-93545368D01*
X264437611Y-93382019D01*
X264437611Y-93218669D01*
X264513268Y-93218669D01*
X264588925Y-93218669D01*
X264588925Y-93622744D01*
G37*
G36*
X264808867Y-91215587D02*
G01*
X264809017Y-91236320D01*
X264787523Y-91257445D01*
X264774823Y-91269060D01*
X264762508Y-91277790D01*
X264751412Y-91282412D01*
X264750090Y-91282755D01*
X264742137Y-91284317D01*
X264735427Y-91283873D01*
X264727577Y-91280916D01*
X264716203Y-91274942D01*
X264695613Y-91263632D01*
X264695573Y-91243884D01*
X264695532Y-91224135D01*
X264724978Y-91238725D01*
X264754425Y-91253316D01*
X264781571Y-91224085D01*
X264808718Y-91194854D01*
X264808867Y-91215587D01*
G37*
G36*
X264805354Y-91279226D02*
G01*
X264808076Y-91283559D01*
X264809017Y-91293967D01*
X264809017Y-91308827D01*
X264754853Y-91323231D01*
X264742393Y-91326526D01*
X264725461Y-91330935D01*
X264711656Y-91334449D01*
X264702148Y-91336770D01*
X264698111Y-91337602D01*
X264697342Y-91336886D01*
X264696045Y-91331334D01*
X264695532Y-91322094D01*
X264695602Y-91317479D01*
X264696150Y-91309696D01*
X264697064Y-91306619D01*
X264698284Y-91306369D01*
X264705033Y-91304681D01*
X264716607Y-91301665D01*
X264731825Y-91297631D01*
X264749508Y-91292887D01*
X264758854Y-91290385D01*
X264775844Y-91285940D01*
X264789994Y-91282373D01*
X264800040Y-91279999D01*
X264804718Y-91279131D01*
X264805354Y-91279226D01*
G37*
G36*
X264807207Y-91644319D02*
G01*
X264808504Y-91649871D01*
X264809017Y-91659110D01*
X264808947Y-91663726D01*
X264808399Y-91671509D01*
X264807485Y-91674586D01*
X264806265Y-91674836D01*
X264799516Y-91676524D01*
X264787942Y-91679540D01*
X264772724Y-91683574D01*
X264755041Y-91688318D01*
X264745694Y-91690820D01*
X264728705Y-91695265D01*
X264714555Y-91698832D01*
X264704509Y-91701206D01*
X264699830Y-91702074D01*
X264699194Y-91701979D01*
X264696473Y-91697645D01*
X264695532Y-91687238D01*
X264695532Y-91672378D01*
X264749695Y-91657974D01*
X264762156Y-91654679D01*
X264779087Y-91650270D01*
X264792893Y-91646756D01*
X264802400Y-91644434D01*
X264806438Y-91643602D01*
X264807207Y-91644319D01*
G37*
G36*
X264808338Y-91574049D02*
G01*
X264807297Y-91590051D01*
X264788383Y-91595494D01*
X264769469Y-91600936D01*
X264768458Y-91621787D01*
X264767447Y-91642637D01*
X264754303Y-91646575D01*
X264751654Y-91647356D01*
X264743388Y-91649608D01*
X264738979Y-91650513D01*
X264737984Y-91648216D01*
X264737128Y-91640717D01*
X264736799Y-91629814D01*
X264736799Y-91609115D01*
X264727342Y-91611403D01*
X264719641Y-91613491D01*
X264709923Y-91616627D01*
X264704235Y-91618463D01*
X264698747Y-91619563D01*
X264697817Y-91618910D01*
X264696180Y-91613476D01*
X264695532Y-91604331D01*
X264695532Y-91589100D01*
X264713586Y-91583920D01*
X264721384Y-91581725D01*
X264735813Y-91577752D01*
X264752937Y-91573104D01*
X264770509Y-91568394D01*
X264809378Y-91558047D01*
X264808338Y-91574049D01*
G37*
G36*
X264723992Y-90878424D02*
G01*
X264725323Y-90881605D01*
X264726075Y-90888500D01*
X264726407Y-90900164D01*
X264726482Y-90917651D01*
X264726729Y-90933980D01*
X264727407Y-90947204D01*
X264728421Y-90956057D01*
X264729673Y-90959286D01*
X264732950Y-90958694D01*
X264741554Y-90956668D01*
X264753624Y-90953633D01*
X264767431Y-90950040D01*
X264781249Y-90946338D01*
X264793351Y-90942979D01*
X264802012Y-90940413D01*
X264804888Y-90939630D01*
X264807828Y-90940256D01*
X264808757Y-90944700D01*
X264808357Y-90954477D01*
X264807297Y-90970891D01*
X264759962Y-90983643D01*
X264754561Y-90985097D01*
X264737153Y-90989769D01*
X264721951Y-90993830D01*
X264710434Y-90996885D01*
X264704080Y-90998539D01*
X264695532Y-91000685D01*
X264695532Y-90942587D01*
X264695532Y-90884490D01*
X264704989Y-90882581D01*
X264712484Y-90880806D01*
X264720464Y-90878344D01*
X264721918Y-90877903D01*
X264723992Y-90878424D01*
G37*
G36*
X264700418Y-91464906D02*
G01*
X264706696Y-91465444D01*
X264718078Y-91466561D01*
X264733164Y-91468116D01*
X264750555Y-91469969D01*
X264754531Y-91470397D01*
X264771772Y-91472203D01*
X264786575Y-91473677D01*
X264797472Y-91474676D01*
X264802999Y-91475059D01*
X264803256Y-91475065D01*
X264806833Y-91476528D01*
X264808565Y-91481650D01*
X264809017Y-91492021D01*
X264809017Y-91508915D01*
X264754135Y-91543605D01*
X264753507Y-91544002D01*
X264736283Y-91554825D01*
X264721126Y-91564237D01*
X264708969Y-91571667D01*
X264700747Y-91576543D01*
X264697392Y-91578295D01*
X264696830Y-91577563D01*
X264695899Y-91571985D01*
X264695532Y-91562717D01*
X264695532Y-91547138D01*
X264726837Y-91527030D01*
X264735614Y-91521238D01*
X264746921Y-91513047D01*
X264753258Y-91507296D01*
X264754097Y-91504422D01*
X264750742Y-91504368D01*
X264742918Y-91507159D01*
X264733109Y-91512455D01*
X264716165Y-91522988D01*
X264716165Y-91511094D01*
X264715642Y-91503331D01*
X264712809Y-91499883D01*
X264705849Y-91499200D01*
X264700754Y-91499007D01*
X264697143Y-91497260D01*
X264695757Y-91492184D01*
X264695532Y-91482005D01*
X264695599Y-91477944D01*
X264696890Y-91468106D01*
X264699830Y-91464879D01*
X264700418Y-91464906D01*
G37*
G36*
X264809017Y-91359378D02*
G01*
X264808918Y-91367977D01*
X264808141Y-91384369D01*
X264806727Y-91397405D01*
X264804835Y-91405327D01*
X264798427Y-91417232D01*
X264785984Y-91432237D01*
X264771081Y-91443630D01*
X264754890Y-91450936D01*
X264738581Y-91453683D01*
X264723325Y-91451395D01*
X264710293Y-91443599D01*
X264710213Y-91443525D01*
X264703324Y-91435869D01*
X264698813Y-91428702D01*
X264698032Y-91425521D01*
X264696921Y-91415928D01*
X264696115Y-91402453D01*
X264695750Y-91386947D01*
X264695532Y-91352071D01*
X264704989Y-91349815D01*
X264712536Y-91347931D01*
X264720464Y-91345772D01*
X264722814Y-91345452D01*
X264724764Y-91347070D01*
X264725872Y-91352019D01*
X264726368Y-91361482D01*
X264726482Y-91376640D01*
X264726487Y-91378947D01*
X264727068Y-91396508D01*
X264728972Y-91408375D01*
X264732699Y-91415577D01*
X264738751Y-91419144D01*
X264747626Y-91420104D01*
X264756242Y-91418320D01*
X264768014Y-91410052D01*
X264769605Y-91408446D01*
X264773639Y-91403784D01*
X264776131Y-91398803D01*
X264777453Y-91391863D01*
X264777975Y-91381325D01*
X264778066Y-91365549D01*
X264778175Y-91355654D01*
X264778704Y-91342632D01*
X264779574Y-91333394D01*
X264780672Y-91329487D01*
X264781231Y-91329209D01*
X264787117Y-91327430D01*
X264796147Y-91325463D01*
X264809017Y-91323048D01*
X264809017Y-91359378D01*
G37*
G36*
X264807164Y-90732933D02*
G01*
X264808491Y-90738290D01*
X264809017Y-90747375D01*
X264809017Y-90762433D01*
X264773768Y-90771957D01*
X264756994Y-90776487D01*
X264743497Y-90780463D01*
X264734700Y-90784067D01*
X264729602Y-90788138D01*
X264727201Y-90793513D01*
X264726495Y-90801032D01*
X264726482Y-90811533D01*
X264726484Y-90812393D01*
X264726957Y-90824059D01*
X264728097Y-90832338D01*
X264729673Y-90835485D01*
X264732950Y-90834892D01*
X264741554Y-90832867D01*
X264753624Y-90829832D01*
X264767431Y-90826238D01*
X264781249Y-90822536D01*
X264793351Y-90819177D01*
X264802012Y-90816611D01*
X264804933Y-90815820D01*
X264807843Y-90816478D01*
X264808759Y-90820959D01*
X264808357Y-90830777D01*
X264807297Y-90847293D01*
X264764311Y-90858586D01*
X264747511Y-90862794D01*
X264730618Y-90866179D01*
X264718401Y-90867150D01*
X264709841Y-90865650D01*
X264703920Y-90861624D01*
X264699620Y-90855014D01*
X264699151Y-90853808D01*
X264697504Y-90845521D01*
X264696297Y-90833122D01*
X264695765Y-90818810D01*
X264696540Y-90798935D01*
X264699881Y-90782015D01*
X264706213Y-90769418D01*
X264715928Y-90759997D01*
X264719454Y-90758174D01*
X264729024Y-90754436D01*
X264742375Y-90749848D01*
X264757810Y-90744929D01*
X264773630Y-90740197D01*
X264788140Y-90736173D01*
X264799641Y-90733375D01*
X264806438Y-90732322D01*
X264807164Y-90732933D01*
G37*
G36*
X264806395Y-90984819D02*
G01*
X264807904Y-90987476D01*
X264808683Y-90993663D01*
X264808974Y-91004497D01*
X264809017Y-91021093D01*
X264808976Y-91028005D01*
X264808057Y-91048110D01*
X264805493Y-91063488D01*
X264800718Y-91075761D01*
X264793162Y-91086549D01*
X264782258Y-91097475D01*
X264776807Y-91101976D01*
X264760249Y-91111345D01*
X264743322Y-91115431D01*
X264727244Y-91114254D01*
X264713231Y-91107835D01*
X264702498Y-91096191D01*
X264701400Y-91094305D01*
X264698457Y-91087489D01*
X264696672Y-91078961D01*
X264695787Y-91067003D01*
X264695545Y-91049895D01*
X264695532Y-91014982D01*
X264706362Y-91011207D01*
X264709732Y-91010045D01*
X264717795Y-91007808D01*
X264722739Y-91008446D01*
X264725327Y-91012960D01*
X264726320Y-91022350D01*
X264726482Y-91037617D01*
X264726491Y-91040423D01*
X264727114Y-91057163D01*
X264728839Y-91068440D01*
X264731836Y-91075445D01*
X264736152Y-91079865D01*
X264745843Y-91083153D01*
X264756961Y-91080844D01*
X264768014Y-91073036D01*
X264769742Y-91071289D01*
X264773714Y-91066662D01*
X264776166Y-91061673D01*
X264777466Y-91054693D01*
X264777977Y-91044093D01*
X264778066Y-91028245D01*
X264778067Y-91012850D01*
X264778571Y-91002168D01*
X264780362Y-90995522D01*
X264784221Y-90991461D01*
X264790933Y-90988539D01*
X264801279Y-90985306D01*
X264803915Y-90984576D01*
X264806395Y-90984819D01*
G37*
G36*
X264791888Y-90609728D02*
G01*
X264802235Y-90615489D01*
X264804627Y-90618212D01*
X264806668Y-90622151D01*
X264807911Y-90627977D01*
X264808497Y-90636937D01*
X264808564Y-90650276D01*
X264808253Y-90669243D01*
X264807297Y-90716022D01*
X264752274Y-90730961D01*
X264738805Y-90734613D01*
X264730310Y-90736910D01*
X264722145Y-90739117D01*
X264708780Y-90742713D01*
X264699825Y-90745103D01*
X264696392Y-90745986D01*
X264696340Y-90745912D01*
X264696024Y-90741787D01*
X264695767Y-90732266D01*
X264695595Y-90718632D01*
X264695532Y-90702172D01*
X264695638Y-90686250D01*
X264695876Y-90679414D01*
X264726482Y-90679414D01*
X264726514Y-90688734D01*
X264726881Y-90698164D01*
X264728005Y-90702898D01*
X264730310Y-90704257D01*
X264734220Y-90703562D01*
X264737990Y-90702609D01*
X264748158Y-90700178D01*
X264760012Y-90697455D01*
X264778066Y-90693394D01*
X264778066Y-90666008D01*
X264778057Y-90661478D01*
X264777804Y-90649740D01*
X264777026Y-90643463D01*
X264775475Y-90641551D01*
X264772908Y-90642904D01*
X264772363Y-90643412D01*
X264768915Y-90651358D01*
X264767749Y-90665475D01*
X264767747Y-90668325D01*
X264767305Y-90678585D01*
X264765100Y-90684254D01*
X264759699Y-90687227D01*
X264749669Y-90689400D01*
X264736799Y-90691815D01*
X264736799Y-90672518D01*
X264736799Y-90672149D01*
X264736328Y-90660768D01*
X264734724Y-90654892D01*
X264731641Y-90653221D01*
X264729585Y-90653875D01*
X264727698Y-90657589D01*
X264726746Y-90665689D01*
X264726482Y-90679414D01*
X264695876Y-90679414D01*
X264696161Y-90671259D01*
X264697270Y-90660574D01*
X264699128Y-90652765D01*
X264701899Y-90646400D01*
X264710071Y-90634663D01*
X264723499Y-90624426D01*
X264739483Y-90620371D01*
X264740023Y-90620340D01*
X264752247Y-90618189D01*
X264763437Y-90614125D01*
X264764109Y-90613783D01*
X264778619Y-90609139D01*
X264791888Y-90609728D01*
G37*
G36*
X264040014Y-92494283D02*
G01*
X264047760Y-92497106D01*
X264061168Y-92501984D01*
X264079763Y-92508745D01*
X264103066Y-92517215D01*
X264130601Y-92527220D01*
X264161891Y-92538588D01*
X264196458Y-92551145D01*
X264233827Y-92564717D01*
X264273519Y-92579133D01*
X264315059Y-92594217D01*
X264588925Y-92693661D01*
X264588902Y-92895124D01*
X264588879Y-93096587D01*
X264315191Y-93196316D01*
X264286784Y-93206667D01*
X264246464Y-93221360D01*
X264208311Y-93235263D01*
X264172803Y-93248202D01*
X264140417Y-93260004D01*
X264111629Y-93270495D01*
X264086918Y-93279500D01*
X264066760Y-93286846D01*
X264051633Y-93292360D01*
X264042014Y-93295866D01*
X264038380Y-93297191D01*
X264037951Y-93296703D01*
X264037060Y-93290982D01*
X264036315Y-93279474D01*
X264035746Y-93262934D01*
X264035383Y-93242120D01*
X264035256Y-93217788D01*
X264035256Y-93137238D01*
X264218379Y-93070907D01*
X264240801Y-93062784D01*
X264274347Y-93050628D01*
X264306000Y-93039152D01*
X264335105Y-93028596D01*
X264361009Y-93019195D01*
X264383060Y-93011187D01*
X264400604Y-93004808D01*
X264412987Y-93000297D01*
X264419557Y-92997891D01*
X264437611Y-92991205D01*
X264437611Y-92895498D01*
X264437611Y-92799791D01*
X264428154Y-92796357D01*
X264423675Y-92794731D01*
X264392249Y-92783364D01*
X264363998Y-92773219D01*
X264339467Y-92764486D01*
X264319204Y-92757358D01*
X264303755Y-92752029D01*
X264293667Y-92748690D01*
X264289487Y-92747534D01*
X264288879Y-92749581D01*
X264288124Y-92757805D01*
X264287414Y-92771689D01*
X264286773Y-92790548D01*
X264286222Y-92813699D01*
X264285785Y-92840458D01*
X264285482Y-92870141D01*
X264284579Y-92992747D01*
X264215800Y-93018052D01*
X264209180Y-93020487D01*
X264188926Y-93027917D01*
X264170933Y-93034492D01*
X264156250Y-93039830D01*
X264145924Y-93043550D01*
X264141003Y-93045271D01*
X264139963Y-93045434D01*
X264138792Y-93044795D01*
X264137820Y-93042691D01*
X264137028Y-93038580D01*
X264136399Y-93031921D01*
X264135913Y-93022174D01*
X264135553Y-93008796D01*
X264135299Y-92991247D01*
X264135134Y-92968986D01*
X264135039Y-92941470D01*
X264134995Y-92908159D01*
X264134985Y-92868511D01*
X264134985Y-92689836D01*
X264100795Y-92677277D01*
X264091370Y-92673830D01*
X264075227Y-92667983D01*
X264060990Y-92662894D01*
X264050930Y-92659377D01*
X264035256Y-92654037D01*
X264035256Y-92573258D01*
X264035306Y-92558503D01*
X264035569Y-92537364D01*
X264036027Y-92519375D01*
X264036646Y-92505468D01*
X264037389Y-92496574D01*
X264038224Y-92493626D01*
X264040014Y-92494283D01*
G37*
G36*
X264588163Y-94390487D02*
G01*
X264587205Y-94723205D01*
X264579473Y-94743704D01*
X264565868Y-94772346D01*
X264546246Y-94799955D01*
X264522476Y-94823060D01*
X264495296Y-94841266D01*
X264465443Y-94854179D01*
X264433657Y-94861404D01*
X264400674Y-94862546D01*
X264367233Y-94857210D01*
X264355593Y-94853685D01*
X264325978Y-94840029D01*
X264299191Y-94820892D01*
X264276151Y-94797156D01*
X264257775Y-94769706D01*
X264244980Y-94739425D01*
X264243906Y-94735805D01*
X264242729Y-94731150D01*
X264241725Y-94725869D01*
X264240878Y-94719441D01*
X264240177Y-94711346D01*
X264239608Y-94701061D01*
X264239156Y-94688067D01*
X264238808Y-94671843D01*
X264238551Y-94651866D01*
X264238372Y-94627617D01*
X264238256Y-94598574D01*
X264238190Y-94564216D01*
X264238160Y-94524022D01*
X264238153Y-94477471D01*
X264238122Y-94433093D01*
X264238000Y-94385553D01*
X264237784Y-94344572D01*
X264237471Y-94309978D01*
X264237057Y-94281596D01*
X264236541Y-94259253D01*
X264235920Y-94242775D01*
X264235192Y-94231988D01*
X264234352Y-94226719D01*
X264234064Y-94225924D01*
X264227007Y-94215071D01*
X264217000Y-94209621D01*
X264205641Y-94209982D01*
X264194528Y-94216561D01*
X264186569Y-94224038D01*
X264186569Y-94543260D01*
X264186569Y-94862482D01*
X264110912Y-94862482D01*
X264035256Y-94862482D01*
X264035256Y-94539391D01*
X264035256Y-94534246D01*
X264035296Y-94471933D01*
X264035409Y-94416353D01*
X264035594Y-94367373D01*
X264035853Y-94324859D01*
X264036188Y-94288677D01*
X264036601Y-94258694D01*
X264037093Y-94234776D01*
X264037665Y-94216790D01*
X264038319Y-94204601D01*
X264039056Y-94198076D01*
X264042237Y-94185506D01*
X264054349Y-94155890D01*
X264071830Y-94128877D01*
X264093813Y-94105178D01*
X264119435Y-94085505D01*
X264147829Y-94070572D01*
X264178131Y-94061089D01*
X264209475Y-94057770D01*
X264220786Y-94058121D01*
X264254365Y-94063496D01*
X264285643Y-94075059D01*
X264314077Y-94092429D01*
X264339127Y-94115225D01*
X264360251Y-94143066D01*
X264376907Y-94175571D01*
X264377758Y-94177680D01*
X264379047Y-94181231D01*
X264380161Y-94185193D01*
X264381118Y-94190062D01*
X264381933Y-94196336D01*
X264382625Y-94204513D01*
X264383209Y-94215090D01*
X264383702Y-94228565D01*
X264384121Y-94245436D01*
X264384484Y-94266198D01*
X264384806Y-94291352D01*
X264385104Y-94321392D01*
X264385396Y-94356818D01*
X264385698Y-94398127D01*
X264386027Y-94445816D01*
X264387747Y-94698025D01*
X264395865Y-94704596D01*
X264396917Y-94705407D01*
X264408480Y-94710404D01*
X264420563Y-94710025D01*
X264430734Y-94704290D01*
X264431286Y-94703721D01*
X264432384Y-94702319D01*
X264433347Y-94700349D01*
X264434184Y-94697391D01*
X264434903Y-94693024D01*
X264435515Y-94686827D01*
X264436026Y-94678380D01*
X264436447Y-94667262D01*
X264436786Y-94653052D01*
X264437052Y-94635330D01*
X264437253Y-94613675D01*
X264437400Y-94587666D01*
X264437499Y-94556883D01*
X264437562Y-94520904D01*
X264437595Y-94479310D01*
X264437609Y-94431679D01*
X264437611Y-94377591D01*
X264437611Y-94057770D01*
X264513366Y-94057770D01*
X264589121Y-94057770D01*
X264588163Y-94390487D01*
G37*
G36*
X264588163Y-91993547D02*
G01*
X264587205Y-92326265D01*
X264579473Y-92346764D01*
X264568634Y-92370592D01*
X264550111Y-92398638D01*
X264527676Y-92422079D01*
X264502062Y-92440723D01*
X264474002Y-92454378D01*
X264444232Y-92462854D01*
X264413486Y-92465958D01*
X264382496Y-92463500D01*
X264351999Y-92455288D01*
X264322726Y-92441130D01*
X264295414Y-92420835D01*
X264292484Y-92418129D01*
X264272686Y-92395607D01*
X264256304Y-92369542D01*
X264244980Y-92342485D01*
X264243906Y-92338865D01*
X264242729Y-92334209D01*
X264241725Y-92328928D01*
X264240878Y-92322501D01*
X264240177Y-92314405D01*
X264239608Y-92304121D01*
X264239156Y-92291127D01*
X264238808Y-92274903D01*
X264238551Y-92254926D01*
X264238372Y-92230677D01*
X264238256Y-92201634D01*
X264238190Y-92167276D01*
X264238160Y-92127082D01*
X264238153Y-92080531D01*
X264238122Y-92036153D01*
X264238000Y-91988612D01*
X264237784Y-91947632D01*
X264237471Y-91913038D01*
X264237057Y-91884656D01*
X264236541Y-91862313D01*
X264235920Y-91845835D01*
X264235192Y-91835048D01*
X264234352Y-91829778D01*
X264228582Y-91819482D01*
X264219154Y-91813182D01*
X264207791Y-91813009D01*
X264195630Y-91819271D01*
X264186569Y-91826398D01*
X264186569Y-92145970D01*
X264186569Y-92465542D01*
X264110912Y-92465542D01*
X264035256Y-92465542D01*
X264035256Y-92142451D01*
X264035256Y-92137306D01*
X264035296Y-92074993D01*
X264035409Y-92019413D01*
X264035594Y-91970433D01*
X264035853Y-91927919D01*
X264036188Y-91891737D01*
X264036601Y-91861754D01*
X264037093Y-91837836D01*
X264037665Y-91819850D01*
X264038319Y-91807661D01*
X264039056Y-91801136D01*
X264041292Y-91791811D01*
X264052829Y-91761513D01*
X264069753Y-91734179D01*
X264091250Y-91710368D01*
X264116510Y-91690639D01*
X264144721Y-91675548D01*
X264175071Y-91665655D01*
X264206748Y-91661517D01*
X264238941Y-91663693D01*
X264239983Y-91663875D01*
X264272774Y-91673051D01*
X264302803Y-91688076D01*
X264329344Y-91708286D01*
X264351669Y-91733015D01*
X264369050Y-91761599D01*
X264380762Y-91793372D01*
X264380833Y-91793648D01*
X264381864Y-91798530D01*
X264382753Y-91804827D01*
X264383510Y-91813034D01*
X264384145Y-91823649D01*
X264384668Y-91837169D01*
X264385089Y-91854089D01*
X264385417Y-91874907D01*
X264385664Y-91900120D01*
X264385838Y-91930223D01*
X264385950Y-91965715D01*
X264386010Y-92007090D01*
X264386027Y-92054847D01*
X264386028Y-92072379D01*
X264386035Y-92116568D01*
X264386064Y-92154547D01*
X264386128Y-92186811D01*
X264386240Y-92213850D01*
X264386416Y-92236157D01*
X264386670Y-92254224D01*
X264387014Y-92268542D01*
X264387464Y-92279605D01*
X264388032Y-92287904D01*
X264388734Y-92293932D01*
X264389584Y-92298180D01*
X264390594Y-92301140D01*
X264391780Y-92303305D01*
X264393155Y-92305167D01*
X264397452Y-92309356D01*
X264408422Y-92314009D01*
X264420344Y-92313388D01*
X264430734Y-92307350D01*
X264431286Y-92306781D01*
X264432384Y-92305378D01*
X264433347Y-92303409D01*
X264434184Y-92300451D01*
X264434903Y-92296083D01*
X264435515Y-92289887D01*
X264436026Y-92281440D01*
X264436447Y-92270322D01*
X264436786Y-92256112D01*
X264437052Y-92238390D01*
X264437253Y-92216735D01*
X264437400Y-92190726D01*
X264437499Y-92159943D01*
X264437562Y-92123964D01*
X264437595Y-92082370D01*
X264437609Y-92034739D01*
X264437611Y-91980651D01*
X264437611Y-91660830D01*
X264513366Y-91660830D01*
X264589121Y-91660830D01*
X264588163Y-91993547D01*
G37*
G36*
X264588925Y-90891596D02*
G01*
X264588918Y-90918542D01*
X264588842Y-90980417D01*
X264588682Y-91035615D01*
X264588439Y-91084108D01*
X264588113Y-91125874D01*
X264587705Y-91160887D01*
X264587213Y-91189122D01*
X264586639Y-91210554D01*
X264585984Y-91225158D01*
X264585246Y-91232910D01*
X264581516Y-91248182D01*
X264570777Y-91275077D01*
X264555641Y-91300791D01*
X264537365Y-91322960D01*
X264518834Y-91339320D01*
X264490514Y-91357145D01*
X264460186Y-91369036D01*
X264428664Y-91375012D01*
X264396764Y-91375093D01*
X264365303Y-91369297D01*
X264335095Y-91357646D01*
X264306955Y-91340157D01*
X264281700Y-91316851D01*
X264269273Y-91301588D01*
X264254480Y-91276870D01*
X264243695Y-91248393D01*
X264243144Y-91246392D01*
X264242128Y-91241610D01*
X264241258Y-91235495D01*
X264240522Y-91227542D01*
X264239910Y-91217249D01*
X264239410Y-91204110D01*
X264239011Y-91187621D01*
X264238704Y-91167279D01*
X264238477Y-91142580D01*
X264238319Y-91113019D01*
X264238219Y-91078092D01*
X264238168Y-91037296D01*
X264238153Y-90990126D01*
X264238122Y-90946074D01*
X264238001Y-90898520D01*
X264237785Y-90857528D01*
X264237472Y-90822923D01*
X264237059Y-90794533D01*
X264236543Y-90772182D01*
X264235921Y-90755698D01*
X264235192Y-90744907D01*
X264234352Y-90739635D01*
X264228582Y-90729339D01*
X264219154Y-90723039D01*
X264207791Y-90722865D01*
X264195630Y-90729127D01*
X264186569Y-90736255D01*
X264186569Y-91055826D01*
X264186569Y-91375398D01*
X264110912Y-91375398D01*
X264035256Y-91375398D01*
X264035256Y-91051141D01*
X264035254Y-91004237D01*
X264035261Y-90953516D01*
X264035298Y-90908865D01*
X264035388Y-90869842D01*
X264035555Y-90836006D01*
X264035819Y-90806913D01*
X264036205Y-90782123D01*
X264036734Y-90761192D01*
X264037429Y-90743681D01*
X264038312Y-90729145D01*
X264039407Y-90717144D01*
X264040736Y-90707236D01*
X264042321Y-90698977D01*
X264044185Y-90691928D01*
X264046351Y-90685645D01*
X264048841Y-90679687D01*
X264051677Y-90673611D01*
X264054883Y-90666977D01*
X264062922Y-90653443D01*
X264077142Y-90635561D01*
X264094385Y-90618121D01*
X264112849Y-90602916D01*
X264130727Y-90591733D01*
X264134678Y-90589795D01*
X264167072Y-90577888D01*
X264199924Y-90572412D01*
X264232468Y-90573135D01*
X264263937Y-90579830D01*
X264293565Y-90592264D01*
X264320586Y-90610209D01*
X264344233Y-90633433D01*
X264363739Y-90661707D01*
X264365418Y-90664704D01*
X264369325Y-90671803D01*
X264372705Y-90678487D01*
X264375596Y-90685278D01*
X264378034Y-90692698D01*
X264380060Y-90701265D01*
X264381711Y-90711503D01*
X264383026Y-90723930D01*
X264384042Y-90739069D01*
X264384799Y-90757440D01*
X264385334Y-90779564D01*
X264385686Y-90805961D01*
X264385893Y-90837153D01*
X264385993Y-90873660D01*
X264386025Y-90916003D01*
X264386027Y-90964704D01*
X264386028Y-90982236D01*
X264386035Y-91026424D01*
X264386064Y-91064404D01*
X264386128Y-91096667D01*
X264386240Y-91123706D01*
X264386416Y-91146013D01*
X264386670Y-91164080D01*
X264387014Y-91178399D01*
X264387464Y-91189462D01*
X264388032Y-91197761D01*
X264388734Y-91203788D01*
X264389584Y-91208036D01*
X264390594Y-91210997D01*
X264391780Y-91213162D01*
X264393155Y-91215024D01*
X264397452Y-91219213D01*
X264408422Y-91223865D01*
X264420344Y-91223245D01*
X264430734Y-91217207D01*
X264431286Y-91216637D01*
X264432384Y-91215235D01*
X264433347Y-91213265D01*
X264434184Y-91210307D01*
X264434903Y-91205940D01*
X264435515Y-91199743D01*
X264436026Y-91191296D01*
X264436447Y-91180178D01*
X264436786Y-91165969D01*
X264437052Y-91148247D01*
X264437253Y-91126591D01*
X264437400Y-91100582D01*
X264437499Y-91069799D01*
X264437562Y-91033821D01*
X264437595Y-90992226D01*
X264437609Y-90944596D01*
X264437611Y-90890508D01*
X264437611Y-90570686D01*
X264513268Y-90570686D01*
X264588925Y-90570686D01*
X264588925Y-90891596D01*
G37*
G36*
X264764963Y-92002706D02*
G01*
X264765142Y-92012449D01*
X264765373Y-92028612D01*
X264765654Y-92050962D01*
X264765981Y-92079267D01*
X264766354Y-92113293D01*
X264766770Y-92152809D01*
X264767227Y-92197582D01*
X264767722Y-92247378D01*
X264768253Y-92301966D01*
X264768819Y-92361113D01*
X264769417Y-92424586D01*
X264770044Y-92492153D01*
X264770699Y-92563581D01*
X264771380Y-92638637D01*
X264772084Y-92717089D01*
X264772809Y-92798705D01*
X264773552Y-92883251D01*
X264774313Y-92970495D01*
X264775088Y-93060205D01*
X264775875Y-93152147D01*
X264776672Y-93246090D01*
X264777477Y-93341801D01*
X264778178Y-93424861D01*
X264778993Y-93519880D01*
X264779807Y-93613183D01*
X264780618Y-93704525D01*
X264781422Y-93793659D01*
X264782218Y-93880340D01*
X264783003Y-93964322D01*
X264783774Y-94045360D01*
X264784529Y-94123207D01*
X264785265Y-94197617D01*
X264785979Y-94268345D01*
X264786670Y-94335145D01*
X264787335Y-94397772D01*
X264787970Y-94455979D01*
X264788574Y-94509520D01*
X264789144Y-94558150D01*
X264789678Y-94601623D01*
X264790172Y-94639694D01*
X264790625Y-94672115D01*
X264791033Y-94698642D01*
X264791394Y-94719029D01*
X264791707Y-94733030D01*
X264791967Y-94740399D01*
X264792572Y-94749697D01*
X264794290Y-94770291D01*
X264796358Y-94789416D01*
X264798570Y-94805272D01*
X264800715Y-94816056D01*
X264803750Y-94826444D01*
X264818832Y-94863046D01*
X264839554Y-94896615D01*
X264865247Y-94926552D01*
X264895241Y-94952260D01*
X264928867Y-94973140D01*
X264965456Y-94988593D01*
X265004337Y-94998022D01*
X265012094Y-94999302D01*
X265021413Y-95001190D01*
X265024746Y-95002493D01*
X265021674Y-95003087D01*
X265014205Y-95003460D01*
X264977484Y-95009261D01*
X264941453Y-95021227D01*
X264906968Y-95038775D01*
X264874889Y-95061318D01*
X264846072Y-95088271D01*
X264821377Y-95119051D01*
X264801661Y-95153072D01*
X264800697Y-95155108D01*
X264795237Y-95167616D01*
X264790526Y-95180561D01*
X264786484Y-95194588D01*
X264783035Y-95210341D01*
X264780100Y-95228464D01*
X264777601Y-95249600D01*
X264775460Y-95274394D01*
X264773598Y-95303490D01*
X264771938Y-95337532D01*
X264770402Y-95377163D01*
X264768910Y-95423029D01*
X264768248Y-95443049D01*
X264767336Y-95464785D01*
X264766419Y-95479751D01*
X264765493Y-95487932D01*
X264764554Y-95489315D01*
X264763597Y-95483887D01*
X264762618Y-95471635D01*
X264761613Y-95452545D01*
X264760578Y-95426603D01*
X264759508Y-95393798D01*
X264758866Y-95373346D01*
X264757273Y-95330673D01*
X264755415Y-95293876D01*
X264753155Y-95262256D01*
X264750357Y-95235114D01*
X264746882Y-95211752D01*
X264742593Y-95191471D01*
X264737354Y-95173570D01*
X264731028Y-95157353D01*
X264723476Y-95142118D01*
X264714562Y-95127169D01*
X264704148Y-95111805D01*
X264697912Y-95103449D01*
X264673213Y-95076475D01*
X264644354Y-95052695D01*
X264612546Y-95032793D01*
X264579001Y-95017452D01*
X264544932Y-95007355D01*
X264511549Y-95003185D01*
X264506247Y-95002803D01*
X264506068Y-95001967D01*
X264511889Y-95000532D01*
X264524118Y-94998342D01*
X264543966Y-94994431D01*
X264577304Y-94984484D01*
X264607187Y-94970371D01*
X264635257Y-94951239D01*
X264663155Y-94926240D01*
X264673293Y-94915970D01*
X264685246Y-94902866D01*
X264694444Y-94890916D01*
X264702373Y-94878121D01*
X264710516Y-94862482D01*
X264712080Y-94859290D01*
X264719253Y-94843736D01*
X264724947Y-94829146D01*
X264729355Y-94814401D01*
X264732675Y-94798379D01*
X264735099Y-94779962D01*
X264736824Y-94758029D01*
X264738044Y-94731459D01*
X264738954Y-94699132D01*
X264739031Y-94695259D01*
X264739227Y-94682473D01*
X264739478Y-94663194D01*
X264739781Y-94637677D01*
X264740133Y-94606180D01*
X264740532Y-94568959D01*
X264740976Y-94526270D01*
X264741461Y-94478369D01*
X264741987Y-94425513D01*
X264742550Y-94367958D01*
X264743148Y-94305961D01*
X264743778Y-94239778D01*
X264744439Y-94169665D01*
X264745127Y-94095878D01*
X264745840Y-94018675D01*
X264746576Y-93938310D01*
X264747332Y-93855042D01*
X264748106Y-93769125D01*
X264748895Y-93680817D01*
X264749698Y-93590373D01*
X264750511Y-93498051D01*
X264751332Y-93404105D01*
X264752158Y-93308794D01*
X264752697Y-93246655D01*
X264753511Y-93153336D01*
X264754316Y-93061930D01*
X264755109Y-92972674D01*
X264755887Y-92885803D01*
X264756649Y-92801554D01*
X264757392Y-92720164D01*
X264758114Y-92641869D01*
X264758812Y-92566906D01*
X264759485Y-92495510D01*
X264760129Y-92427919D01*
X264760743Y-92364368D01*
X264761325Y-92305094D01*
X264761871Y-92250334D01*
X264762381Y-92200324D01*
X264762850Y-92155300D01*
X264763279Y-92115499D01*
X264763663Y-92081157D01*
X264764000Y-92052510D01*
X264764289Y-92029796D01*
X264764527Y-92013249D01*
X264764712Y-92003108D01*
X264764841Y-91999608D01*
X264764963Y-92002706D01*
G37*
G36*
X264662925Y-83845368D02*
G01*
X264672180Y-83856210D01*
X264675667Y-83871029D01*
X264675006Y-83876909D01*
X264672414Y-83888980D01*
X264668464Y-83903925D01*
X264663807Y-83919584D01*
X264659093Y-83933795D01*
X264654975Y-83944398D01*
X264652102Y-83949233D01*
X264649120Y-83948945D01*
X264639841Y-83946162D01*
X264626045Y-83941175D01*
X264609426Y-83934567D01*
X264596764Y-83929137D01*
X264582764Y-83922582D01*
X264573213Y-83917422D01*
X264569681Y-83914449D01*
X264571396Y-83906725D01*
X264577958Y-83893496D01*
X264588006Y-83878522D01*
X264600011Y-83863818D01*
X264612444Y-83851395D01*
X264623774Y-83843267D01*
X264634340Y-83839486D01*
X264649708Y-83839471D01*
X264662925Y-83845368D01*
G37*
G36*
X264495009Y-83778189D02*
G01*
X264511023Y-83784294D01*
X264523396Y-83796350D01*
X264528795Y-83809735D01*
X264530077Y-83829494D01*
X264526174Y-83852324D01*
X264517211Y-83876607D01*
X264516640Y-83877821D01*
X264510201Y-83890530D01*
X264504822Y-83899544D01*
X264501616Y-83902980D01*
X264497115Y-83902231D01*
X264486197Y-83899961D01*
X264470643Y-83896533D01*
X264452162Y-83892315D01*
X264434548Y-83888193D01*
X264420756Y-83884658D01*
X264412524Y-83881783D01*
X264408579Y-83878944D01*
X264407651Y-83875517D01*
X264408467Y-83870878D01*
X264409617Y-83866682D01*
X264415361Y-83851626D01*
X264423676Y-83834062D01*
X264433213Y-83816529D01*
X264442622Y-83801565D01*
X264450553Y-83791709D01*
X264460337Y-83784360D01*
X264477424Y-83778167D01*
X264495009Y-83778189D01*
G37*
G36*
X264711673Y-86005336D02*
G01*
X264729777Y-86007125D01*
X264741069Y-86010558D01*
X264744957Y-86015611D01*
X264744940Y-86015697D01*
X264741333Y-86019200D01*
X264732244Y-86026439D01*
X264718825Y-86036591D01*
X264702229Y-86048829D01*
X264683608Y-86062331D01*
X264664113Y-86076272D01*
X264644899Y-86089827D01*
X264627116Y-86102172D01*
X264611917Y-86112482D01*
X264600455Y-86119933D01*
X264593881Y-86123701D01*
X264593855Y-86123710D01*
X264592165Y-86120234D01*
X264589555Y-86110254D01*
X264586374Y-86095280D01*
X264582975Y-86076822D01*
X264579823Y-86058238D01*
X264577045Y-86041291D01*
X264575082Y-86028675D01*
X264574230Y-86022241D01*
X264574342Y-86020857D01*
X264576916Y-86017965D01*
X264583788Y-86015564D01*
X264596237Y-86013302D01*
X264615540Y-86010825D01*
X264622402Y-86010045D01*
X264657394Y-86006774D01*
X264687348Y-86005211D01*
X264711673Y-86005336D01*
G37*
G36*
X264754649Y-83109245D02*
G01*
X264755818Y-83112464D01*
X264756831Y-83120968D01*
X264757699Y-83135168D01*
X264758435Y-83155472D01*
X264759051Y-83182291D01*
X264759557Y-83216033D01*
X264759967Y-83257109D01*
X264760292Y-83305927D01*
X264760297Y-83306854D01*
X264760585Y-83345974D01*
X264760994Y-83382597D01*
X264761505Y-83415917D01*
X264762099Y-83445124D01*
X264762757Y-83469411D01*
X264763461Y-83487969D01*
X264764191Y-83499992D01*
X264764929Y-83504669D01*
X264765008Y-83504721D01*
X264769848Y-83503487D01*
X264781158Y-83498796D01*
X264798248Y-83490978D01*
X264820429Y-83480362D01*
X264847011Y-83467279D01*
X264877305Y-83452056D01*
X264910620Y-83435026D01*
X264929070Y-83425520D01*
X264970366Y-83404247D01*
X265005202Y-83386328D01*
X265034142Y-83371492D01*
X265057752Y-83359471D01*
X265076595Y-83349995D01*
X265091235Y-83342796D01*
X265102237Y-83337604D01*
X265110165Y-83334151D01*
X265115584Y-83332166D01*
X265119057Y-83331382D01*
X265121150Y-83331529D01*
X265122426Y-83332338D01*
X265123450Y-83333539D01*
X265123979Y-83334365D01*
X265124013Y-83340429D01*
X265119851Y-83350982D01*
X265111125Y-83367024D01*
X265104203Y-83378995D01*
X265042296Y-83493806D01*
X264985271Y-83613819D01*
X264933603Y-83737734D01*
X264887766Y-83864252D01*
X264848234Y-83992073D01*
X264815483Y-84119899D01*
X264789987Y-84246429D01*
X264784450Y-84279383D01*
X264774606Y-84345136D01*
X264767197Y-84407191D01*
X264762047Y-84467887D01*
X264758980Y-84529565D01*
X264757818Y-84594565D01*
X264758386Y-84665229D01*
X264759245Y-84701046D01*
X264762336Y-84771747D01*
X264767374Y-84837456D01*
X264774617Y-84900216D01*
X264784322Y-84962067D01*
X264796747Y-85025052D01*
X264812151Y-85091212D01*
X264822602Y-85131881D01*
X264835647Y-85178431D01*
X264849603Y-85223342D01*
X264864999Y-85268062D01*
X264882363Y-85314043D01*
X264902221Y-85362733D01*
X264925103Y-85415583D01*
X264951536Y-85474042D01*
X264971988Y-85519014D01*
X265016567Y-85621013D01*
X265056221Y-85717932D01*
X265091211Y-85810558D01*
X265121800Y-85899675D01*
X265148248Y-85986069D01*
X265170816Y-86070526D01*
X265189767Y-86153829D01*
X265205361Y-86236766D01*
X265216450Y-86312188D01*
X265225248Y-86401828D01*
X265228913Y-86488519D01*
X265227478Y-86571671D01*
X265220974Y-86650695D01*
X265209434Y-86725001D01*
X265192891Y-86794000D01*
X265171376Y-86857102D01*
X265158002Y-86890525D01*
X265168552Y-86891751D01*
X265169904Y-86891934D01*
X265177459Y-86895454D01*
X265180405Y-86904325D01*
X265180517Y-86905576D01*
X265179766Y-86912391D01*
X265176137Y-86919304D01*
X265168887Y-86926890D01*
X265157274Y-86935728D01*
X265140554Y-86946394D01*
X265117986Y-86959467D01*
X265088826Y-86975523D01*
X265026528Y-87008285D01*
X264951379Y-87045538D01*
X264872207Y-87082664D01*
X264790545Y-87119016D01*
X264707923Y-87153948D01*
X264625874Y-87186815D01*
X264550320Y-87215315D01*
X264545927Y-87216972D01*
X264469617Y-87243772D01*
X264398472Y-87266570D01*
X264395818Y-87267356D01*
X264372879Y-87274147D01*
X264289244Y-87296873D01*
X264201947Y-87317749D01*
X264112794Y-87336440D01*
X264023592Y-87352610D01*
X263936149Y-87365923D01*
X263852271Y-87376043D01*
X263773765Y-87382636D01*
X263729944Y-87385382D01*
X263729944Y-87324246D01*
X263729944Y-87263109D01*
X263830835Y-87260668D01*
X263861049Y-87259771D01*
X263990949Y-87252114D01*
X264118582Y-87238454D01*
X264242136Y-87218976D01*
X264279428Y-87212090D01*
X264281968Y-87191131D01*
X264285606Y-87157429D01*
X264290351Y-87092715D01*
X264292406Y-87027678D01*
X264291713Y-86964971D01*
X264288213Y-86907245D01*
X264287656Y-86901242D01*
X264282428Y-86854298D01*
X264275314Y-86804038D01*
X264266219Y-86750073D01*
X264255052Y-86692011D01*
X264241718Y-86629460D01*
X264226125Y-86562031D01*
X264208179Y-86489332D01*
X264201232Y-86462637D01*
X264403187Y-86462637D01*
X264404171Y-86479805D01*
X264412284Y-86493406D01*
X264412540Y-86493660D01*
X264424879Y-86502171D01*
X264440820Y-86506269D01*
X264461524Y-86506079D01*
X264488153Y-86501730D01*
X264499120Y-86499422D01*
X264521463Y-86494817D01*
X264545991Y-86489850D01*
X264569084Y-86485260D01*
X264615365Y-86476171D01*
X264621561Y-86490945D01*
X264622149Y-86492353D01*
X264628016Y-86506827D01*
X264634994Y-86524608D01*
X264642500Y-86544139D01*
X264649949Y-86563864D01*
X264656759Y-86582225D01*
X264662345Y-86597666D01*
X264666125Y-86608630D01*
X264667514Y-86613559D01*
X264666135Y-86615122D01*
X264658735Y-86620114D01*
X264646019Y-86627555D01*
X264629217Y-86636736D01*
X264609560Y-86646948D01*
X264591194Y-86656496D01*
X264563884Y-86672028D01*
X264542726Y-86686316D01*
X264526697Y-86700181D01*
X264514769Y-86714442D01*
X264505919Y-86729922D01*
X264502009Y-86739105D01*
X264496654Y-86760426D01*
X264498317Y-86777819D01*
X264506993Y-86791170D01*
X264510879Y-86794472D01*
X264521545Y-86800738D01*
X264534399Y-86804215D01*
X264550320Y-86804823D01*
X264570189Y-86802481D01*
X264594886Y-86797108D01*
X264625290Y-86788624D01*
X264662282Y-86776949D01*
X264674397Y-86773024D01*
X264755587Y-86748802D01*
X264839322Y-86727156D01*
X264921084Y-86709268D01*
X264942497Y-86704829D01*
X264965043Y-86699236D01*
X264981759Y-86693518D01*
X264993948Y-86687097D01*
X265002912Y-86679394D01*
X265009953Y-86669832D01*
X265009963Y-86669816D01*
X265017086Y-86651705D01*
X265016622Y-86634136D01*
X265009136Y-86617581D01*
X264995193Y-86602511D01*
X264975358Y-86589397D01*
X264950196Y-86578712D01*
X264920272Y-86570927D01*
X264886151Y-86566513D01*
X264859750Y-86565976D01*
X264826435Y-86569903D01*
X264812877Y-86572501D01*
X264801276Y-86574052D01*
X264795021Y-86574039D01*
X264792811Y-86571220D01*
X264788088Y-86562123D01*
X264781796Y-86548377D01*
X264774612Y-86531644D01*
X264767215Y-86513585D01*
X264760281Y-86495862D01*
X264754489Y-86480137D01*
X264750517Y-86468072D01*
X264749042Y-86461327D01*
X264749117Y-86460706D01*
X264753415Y-86455491D01*
X264762290Y-86450581D01*
X264769643Y-86447396D01*
X264783141Y-86441198D01*
X264801169Y-86432731D01*
X264822298Y-86422666D01*
X264845098Y-86411675D01*
X264857728Y-86405475D01*
X264887803Y-86389795D01*
X264911034Y-86375871D01*
X264928065Y-86363063D01*
X264939538Y-86350730D01*
X264946096Y-86338233D01*
X264948383Y-86324931D01*
X264947041Y-86310185D01*
X264944835Y-86302808D01*
X264935244Y-86287589D01*
X264921085Y-86275437D01*
X264904806Y-86268752D01*
X264897606Y-86268172D01*
X264880126Y-86269364D01*
X264855965Y-86273087D01*
X264825741Y-86279222D01*
X264790076Y-86287651D01*
X264749589Y-86298256D01*
X264728703Y-86304083D01*
X264699630Y-86312495D01*
X264668099Y-86321886D01*
X264635253Y-86331892D01*
X264602235Y-86342151D01*
X264570187Y-86352301D01*
X264540252Y-86361978D01*
X264513572Y-86370821D01*
X264491291Y-86378467D01*
X264474550Y-86384553D01*
X264464493Y-86388716D01*
X264457647Y-86392372D01*
X264437087Y-86407297D01*
X264419839Y-86425592D01*
X264408267Y-86444893D01*
X264403187Y-86462637D01*
X264201232Y-86462637D01*
X264187788Y-86410973D01*
X264174488Y-86362014D01*
X264164857Y-86326561D01*
X264139295Y-86235708D01*
X264111008Y-86138021D01*
X264086578Y-86055627D01*
X264285234Y-86055627D01*
X264285481Y-86065242D01*
X264289569Y-86075580D01*
X264294730Y-86083784D01*
X264302378Y-86090408D01*
X264312687Y-86093834D01*
X264326625Y-86094064D01*
X264345161Y-86091097D01*
X264369260Y-86084933D01*
X264399892Y-86075572D01*
X264405074Y-86073924D01*
X264423771Y-86068178D01*
X264439145Y-86063764D01*
X264449724Y-86061090D01*
X264454034Y-86060565D01*
X264454744Y-86063041D01*
X264456278Y-86072069D01*
X264458250Y-86085926D01*
X264460438Y-86102768D01*
X264462621Y-86120752D01*
X264464576Y-86138034D01*
X264466082Y-86152771D01*
X264466917Y-86163119D01*
X264466861Y-86167233D01*
X264463538Y-86169261D01*
X264455021Y-86174395D01*
X264443313Y-86181425D01*
X264422253Y-86195127D01*
X264398989Y-86213680D01*
X264381560Y-86232022D01*
X264370311Y-86249580D01*
X264365585Y-86265782D01*
X264367724Y-86280056D01*
X264377071Y-86291831D01*
X264379932Y-86293951D01*
X264387386Y-86297908D01*
X264395818Y-86299609D01*
X264406087Y-86298776D01*
X264419048Y-86295127D01*
X264435560Y-86288384D01*
X264456479Y-86278265D01*
X264482663Y-86264491D01*
X264514968Y-86246783D01*
X264524570Y-86241469D01*
X264557226Y-86223505D01*
X264593673Y-86203591D01*
X264631347Y-86183120D01*
X264667685Y-86163486D01*
X264700126Y-86146082D01*
X264721993Y-86134377D01*
X264748680Y-86120012D01*
X264773458Y-86106592D01*
X264795004Y-86094837D01*
X264811995Y-86085465D01*
X264823107Y-86079197D01*
X264824702Y-86078265D01*
X264852003Y-86058845D01*
X264871671Y-86037352D01*
X264883584Y-86013960D01*
X264887617Y-85988843D01*
X264887129Y-85984569D01*
X264880800Y-85972080D01*
X264868202Y-85959695D01*
X264850667Y-85948336D01*
X264829526Y-85938925D01*
X264806112Y-85932386D01*
X264805269Y-85932223D01*
X264786627Y-85929805D01*
X264761687Y-85928199D01*
X264732163Y-85927388D01*
X264699771Y-85927355D01*
X264666223Y-85928083D01*
X264633235Y-85929554D01*
X264602521Y-85931753D01*
X264575796Y-85934661D01*
X264545135Y-85939110D01*
X264507001Y-85945443D01*
X264469630Y-85952460D01*
X264434243Y-85959885D01*
X264422271Y-85962698D01*
X264402063Y-85967445D01*
X264374312Y-85974866D01*
X264352213Y-85981873D01*
X264336987Y-85988194D01*
X264334505Y-85989559D01*
X264318091Y-86002093D01*
X264302945Y-86018897D01*
X264291961Y-86036844D01*
X264289021Y-86043594D01*
X264285234Y-86055627D01*
X264086578Y-86055627D01*
X264079902Y-86033110D01*
X264077970Y-86026656D01*
X264066603Y-85988583D01*
X264055312Y-85950588D01*
X264044475Y-85913960D01*
X264034472Y-85879986D01*
X264025683Y-85849954D01*
X264018485Y-85825153D01*
X264013260Y-85806870D01*
X263996539Y-85746081D01*
X263986146Y-85704690D01*
X264187582Y-85704690D01*
X264189206Y-85715800D01*
X264192682Y-85732220D01*
X264199055Y-85754900D01*
X264213185Y-85784508D01*
X264233005Y-85808932D01*
X264258758Y-85828342D01*
X264290685Y-85842906D01*
X264329028Y-85852791D01*
X264374029Y-85858165D01*
X264377022Y-85858349D01*
X264422271Y-85858448D01*
X264468197Y-85853874D01*
X264513824Y-85845049D01*
X264558177Y-85832393D01*
X264600279Y-85816324D01*
X264639156Y-85797262D01*
X264673832Y-85775627D01*
X264703330Y-85751840D01*
X264726677Y-85726318D01*
X264742895Y-85699483D01*
X264750632Y-85676548D01*
X264755338Y-85647754D01*
X264755667Y-85618768D01*
X264751353Y-85592941D01*
X264742980Y-85573635D01*
X264728760Y-85555134D01*
X264710790Y-85540503D01*
X264690520Y-85530442D01*
X264669401Y-85525648D01*
X264648881Y-85526821D01*
X264630411Y-85534660D01*
X264625117Y-85538699D01*
X264616134Y-85550846D01*
X264614764Y-85565088D01*
X264621022Y-85581657D01*
X264634925Y-85600786D01*
X264643310Y-85611689D01*
X264650302Y-85627079D01*
X264650128Y-85641955D01*
X264643011Y-85657903D01*
X264634821Y-85668151D01*
X264616910Y-85683108D01*
X264592311Y-85698243D01*
X264561852Y-85713122D01*
X264526359Y-85727308D01*
X264486659Y-85740365D01*
X264472913Y-85744256D01*
X264456796Y-85747924D01*
X264440848Y-85750123D01*
X264422298Y-85751202D01*
X264398376Y-85751511D01*
X264386861Y-85751503D01*
X264368273Y-85751210D01*
X264354942Y-85750312D01*
X264344924Y-85748529D01*
X264336272Y-85745578D01*
X264327039Y-85741177D01*
X264313841Y-85732825D01*
X264299624Y-85717368D01*
X264290437Y-85696855D01*
X264285642Y-85670197D01*
X264285048Y-85664627D01*
X264281584Y-85648069D01*
X264275269Y-85637886D01*
X264264854Y-85632750D01*
X264249090Y-85631334D01*
X264240338Y-85632087D01*
X264223881Y-85638727D01*
X264209578Y-85652577D01*
X264196898Y-85674072D01*
X264195762Y-85676471D01*
X264190667Y-85687699D01*
X264188005Y-85696214D01*
X264187582Y-85704690D01*
X263986146Y-85704690D01*
X263960572Y-85602844D01*
X263930579Y-85463250D01*
X263906391Y-85326138D01*
X263897022Y-85257557D01*
X264073863Y-85257557D01*
X264079345Y-85275352D01*
X264092626Y-85292877D01*
X264100993Y-85300569D01*
X264110076Y-85306313D01*
X264121501Y-85310136D01*
X264138159Y-85313336D01*
X264143873Y-85314309D01*
X264159882Y-85317216D01*
X264180207Y-85321063D01*
X264203305Y-85325543D01*
X264227637Y-85330348D01*
X264251663Y-85335169D01*
X264273841Y-85339699D01*
X264292632Y-85343630D01*
X264306494Y-85346654D01*
X264313887Y-85348462D01*
X264318454Y-85351870D01*
X264320880Y-85361865D01*
X264318557Y-85377177D01*
X264317443Y-85379738D01*
X264311739Y-85385258D01*
X264300543Y-85391309D01*
X264282646Y-85398613D01*
X264256739Y-85409572D01*
X264224908Y-85426642D01*
X264197072Y-85445786D01*
X264174029Y-85466267D01*
X264156579Y-85487350D01*
X264145523Y-85508299D01*
X264141660Y-85528377D01*
X264142347Y-85533931D01*
X264148798Y-85545952D01*
X264160248Y-85554625D01*
X264174488Y-85557959D01*
X264175036Y-85557926D01*
X264182948Y-85555691D01*
X264196612Y-85550350D01*
X264214717Y-85542472D01*
X264235951Y-85532624D01*
X264258999Y-85521376D01*
X264265980Y-85517901D01*
X264308463Y-85497613D01*
X264346278Y-85481402D01*
X264381181Y-85468760D01*
X264414923Y-85459177D01*
X264449259Y-85452145D01*
X264485943Y-85447155D01*
X264526728Y-85443698D01*
X264554515Y-85441778D01*
X264584457Y-85439349D01*
X264608039Y-85436827D01*
X264626274Y-85434007D01*
X264640175Y-85430686D01*
X264650756Y-85426660D01*
X264659030Y-85421724D01*
X264666011Y-85415676D01*
X264670260Y-85411012D01*
X264674658Y-85402018D01*
X264674450Y-85390054D01*
X264674192Y-85388311D01*
X264667431Y-85369021D01*
X264665109Y-85366305D01*
X264653669Y-85352924D01*
X264632475Y-85339503D01*
X264629394Y-85338001D01*
X264620699Y-85334048D01*
X264612862Y-85331477D01*
X264604085Y-85330095D01*
X264592566Y-85329712D01*
X264576505Y-85330137D01*
X264565394Y-85330653D01*
X264554103Y-85331178D01*
X264553894Y-85331189D01*
X264529710Y-85332725D01*
X264505035Y-85334873D01*
X264482749Y-85337350D01*
X264465733Y-85339872D01*
X264461266Y-85340682D01*
X264446296Y-85343317D01*
X264435016Y-85345178D01*
X264429589Y-85345906D01*
X264430183Y-85344399D01*
X264435337Y-85337982D01*
X264444716Y-85327400D01*
X264457470Y-85313608D01*
X264472746Y-85297560D01*
X264486805Y-85282727D01*
X264514310Y-85251693D01*
X264535253Y-85224732D01*
X264549824Y-85201587D01*
X264558212Y-85181999D01*
X264559217Y-85178577D01*
X264561125Y-85169266D01*
X264559500Y-85163481D01*
X264553729Y-85157939D01*
X264541898Y-85151879D01*
X264526438Y-85151125D01*
X264507795Y-85156419D01*
X264485696Y-85167904D01*
X264459868Y-85185724D01*
X264430037Y-85210023D01*
X264395931Y-85240945D01*
X264359747Y-85275083D01*
X264341403Y-85262633D01*
X264330111Y-85256343D01*
X264317796Y-85250844D01*
X264311941Y-85248230D01*
X264289360Y-85239386D01*
X264264189Y-85230455D01*
X264238247Y-85222080D01*
X264213354Y-85214906D01*
X264191329Y-85209574D01*
X264180720Y-85207504D01*
X264149212Y-85203775D01*
X264123526Y-85205035D01*
X264103129Y-85211354D01*
X264087488Y-85222797D01*
X264086495Y-85223858D01*
X264076230Y-85240167D01*
X264073863Y-85257557D01*
X263897022Y-85257557D01*
X263887842Y-85190353D01*
X263874764Y-85054735D01*
X263866988Y-84918126D01*
X263864347Y-84779368D01*
X263864346Y-84777139D01*
X264058262Y-84777139D01*
X264064029Y-84807071D01*
X264075689Y-84833188D01*
X264086675Y-84847967D01*
X264109575Y-84869024D01*
X264138646Y-84887247D01*
X264172802Y-84902000D01*
X264210958Y-84912645D01*
X264225136Y-84915095D01*
X264252987Y-84918014D01*
X264284665Y-84919604D01*
X264317796Y-84919865D01*
X264350006Y-84918796D01*
X264378920Y-84916398D01*
X264402165Y-84912670D01*
X264407681Y-84911387D01*
X264446702Y-84899049D01*
X264478793Y-84882545D01*
X264503913Y-84861904D01*
X264522020Y-84837151D01*
X264526500Y-84828211D01*
X264534989Y-84801488D01*
X264535427Y-84776035D01*
X264527812Y-84751829D01*
X264512141Y-84728846D01*
X264508726Y-84725049D01*
X264500114Y-84716973D01*
X264492675Y-84709997D01*
X264477551Y-84701272D01*
X264461637Y-84697820D01*
X264448705Y-84697239D01*
X264437388Y-84698179D01*
X264430577Y-84701574D01*
X264426280Y-84707999D01*
X264424597Y-84712759D01*
X264424549Y-84719627D01*
X264427675Y-84728843D01*
X264434520Y-84742708D01*
X264436352Y-84746271D01*
X264444668Y-84766251D01*
X264447078Y-84782511D01*
X264443572Y-84796703D01*
X264434141Y-84810479D01*
X264425956Y-84818682D01*
X264408693Y-84830341D01*
X264386661Y-84838800D01*
X264358263Y-84844781D01*
X264353590Y-84845440D01*
X264318918Y-84846860D01*
X264282449Y-84843074D01*
X264246519Y-84834609D01*
X264213461Y-84821994D01*
X264185611Y-84805756D01*
X264182745Y-84803627D01*
X264165978Y-84788812D01*
X264155601Y-84773685D01*
X264151149Y-84756628D01*
X264152156Y-84736026D01*
X264158160Y-84710263D01*
X264162814Y-84691954D01*
X264164670Y-84675997D01*
X264162267Y-84665225D01*
X264155306Y-84658512D01*
X264143492Y-84654730D01*
X264131645Y-84653677D01*
X264111088Y-84657675D01*
X264092737Y-84668780D01*
X264077505Y-84686340D01*
X264066307Y-84709705D01*
X264065000Y-84713717D01*
X264058535Y-84745364D01*
X264058262Y-84777139D01*
X263864346Y-84777139D01*
X263864345Y-84774489D01*
X263864678Y-84726102D01*
X263865795Y-84683984D01*
X263867892Y-84646433D01*
X263871161Y-84611744D01*
X263875796Y-84578212D01*
X263881992Y-84544134D01*
X263885545Y-84527902D01*
X264117596Y-84527902D01*
X264118933Y-84544773D01*
X264123280Y-84556489D01*
X264130809Y-84563921D01*
X264141693Y-84567937D01*
X264148431Y-84569063D01*
X264162599Y-84571054D01*
X264181884Y-84573549D01*
X264204660Y-84576339D01*
X264229302Y-84579213D01*
X264240694Y-84580532D01*
X264273314Y-84584494D01*
X264308423Y-84588971D01*
X264342487Y-84593507D01*
X264371976Y-84597646D01*
X264400677Y-84601739D01*
X264434188Y-84606174D01*
X264461303Y-84609215D01*
X264482964Y-84610904D01*
X264500114Y-84611283D01*
X264513695Y-84610396D01*
X264524650Y-84608285D01*
X264533922Y-84604994D01*
X264547491Y-84597258D01*
X264557833Y-84586106D01*
X264560714Y-84574125D01*
X264555973Y-84562210D01*
X264543453Y-84551256D01*
X264535591Y-84547368D01*
X264519058Y-84541344D01*
X264497553Y-84534956D01*
X264472871Y-84528654D01*
X264446810Y-84522888D01*
X264421167Y-84518107D01*
X264397737Y-84514763D01*
X264391928Y-84514132D01*
X264371608Y-84512191D01*
X264346731Y-84510089D01*
X264319917Y-84508039D01*
X264293785Y-84506257D01*
X264275117Y-84505054D01*
X264250116Y-84503277D01*
X264231601Y-84501586D01*
X264218538Y-84499768D01*
X264209896Y-84497610D01*
X264204642Y-84494899D01*
X264201744Y-84491423D01*
X264200168Y-84486969D01*
X264199063Y-84477681D01*
X264199470Y-84460259D01*
X264201726Y-84438372D01*
X264205624Y-84413919D01*
X264210953Y-84388795D01*
X264215951Y-84365152D01*
X264218925Y-84339821D01*
X264217749Y-84320602D01*
X264212373Y-84306951D01*
X264202749Y-84298323D01*
X264193652Y-84296494D01*
X264181875Y-84300522D01*
X264170672Y-84310224D01*
X264161781Y-84324491D01*
X264158762Y-84332129D01*
X264152833Y-84350195D01*
X264146245Y-84373172D01*
X264139495Y-84399112D01*
X264133083Y-84426065D01*
X264127504Y-84452083D01*
X264123259Y-84475217D01*
X264123259Y-84475219D01*
X264119096Y-84505007D01*
X264117596Y-84527902D01*
X263885545Y-84527902D01*
X263889943Y-84507806D01*
X263899843Y-84467524D01*
X263911392Y-84425101D01*
X263940968Y-84333311D01*
X263977585Y-84238236D01*
X264016630Y-84150189D01*
X264227587Y-84150189D01*
X264231216Y-84180519D01*
X264241066Y-84210083D01*
X264256534Y-84237002D01*
X264277019Y-84259400D01*
X264281202Y-84262879D01*
X264291804Y-84270675D01*
X264303753Y-84277770D01*
X264318144Y-84284607D01*
X264336070Y-84291630D01*
X264358627Y-84299284D01*
X264386909Y-84308014D01*
X264422009Y-84318262D01*
X264434204Y-84321741D01*
X264473131Y-84332476D01*
X264505128Y-84340624D01*
X264530781Y-84346304D01*
X264550674Y-84349637D01*
X264565394Y-84350743D01*
X264575526Y-84349740D01*
X264586581Y-84345270D01*
X264597413Y-84335065D01*
X264601980Y-84322001D01*
X264599793Y-84307893D01*
X264590363Y-84294557D01*
X264584214Y-84289757D01*
X264575097Y-84284728D01*
X264562533Y-84279583D01*
X264545612Y-84274023D01*
X264523426Y-84267754D01*
X264495065Y-84260477D01*
X264459618Y-84251897D01*
X264436277Y-84246229D01*
X264396424Y-84235780D01*
X264364292Y-84226164D01*
X264339633Y-84217296D01*
X264322198Y-84209093D01*
X264311738Y-84201468D01*
X264305465Y-84193637D01*
X264298610Y-84177668D01*
X264298322Y-84161797D01*
X264304460Y-84147780D01*
X264316884Y-84137367D01*
X264317981Y-84136823D01*
X264335080Y-84131712D01*
X264358824Y-84129141D01*
X264388216Y-84129046D01*
X264422261Y-84131359D01*
X264459964Y-84136018D01*
X264500329Y-84142956D01*
X264542359Y-84152109D01*
X264559619Y-84156105D01*
X264581973Y-84160407D01*
X264598972Y-84162082D01*
X264612077Y-84161116D01*
X264622749Y-84157493D01*
X264632451Y-84151200D01*
X264636788Y-84147219D01*
X264642375Y-84136149D01*
X264640183Y-84123421D01*
X264630194Y-84108703D01*
X264623724Y-84102077D01*
X264610393Y-84091929D01*
X264593468Y-84083066D01*
X264572037Y-84075176D01*
X264545191Y-84067945D01*
X264512018Y-84061061D01*
X264471609Y-84054210D01*
X264458078Y-84052121D01*
X264427027Y-84047670D01*
X264402025Y-84044765D01*
X264381664Y-84043333D01*
X264364537Y-84043301D01*
X264349237Y-84044598D01*
X264334355Y-84047151D01*
X264316029Y-84051574D01*
X264284095Y-84063127D01*
X264259294Y-84078058D01*
X264241762Y-84096275D01*
X264231634Y-84117685D01*
X264230780Y-84120971D01*
X264227587Y-84150189D01*
X264016630Y-84150189D01*
X264021083Y-84140147D01*
X264071306Y-84039312D01*
X264128093Y-83936003D01*
X264151904Y-83896246D01*
X264342182Y-83896246D01*
X264342218Y-83913176D01*
X264346498Y-83924064D01*
X264349390Y-83926471D01*
X264359174Y-83931198D01*
X264371976Y-83935106D01*
X264376575Y-83936265D01*
X264389661Y-83939846D01*
X264408775Y-83945262D01*
X264432822Y-83952196D01*
X264460703Y-83960331D01*
X264491320Y-83969348D01*
X264523576Y-83978932D01*
X264561078Y-83990000D01*
X264596186Y-84000037D01*
X264623946Y-84007554D01*
X264644555Y-84012603D01*
X264658210Y-84015235D01*
X264665109Y-84015501D01*
X264671887Y-84012898D01*
X264681319Y-84005838D01*
X264691309Y-83993957D01*
X264702611Y-83976311D01*
X264715980Y-83951958D01*
X264726518Y-83930337D01*
X264739228Y-83897712D01*
X264746625Y-83868322D01*
X264748619Y-83842822D01*
X264745120Y-83821868D01*
X264736037Y-83806113D01*
X264719553Y-83793172D01*
X264697135Y-83784241D01*
X264671498Y-83780687D01*
X264644329Y-83782730D01*
X264617317Y-83790591D01*
X264605268Y-83795358D01*
X264597363Y-83797633D01*
X264593375Y-83796960D01*
X264591457Y-83793551D01*
X264589734Y-83788303D01*
X264583315Y-83772572D01*
X264575517Y-83760856D01*
X264564347Y-83749948D01*
X264543119Y-83735541D01*
X264517259Y-83725023D01*
X264490224Y-83720021D01*
X264464010Y-83720888D01*
X264440613Y-83727979D01*
X264424040Y-83738875D01*
X264405270Y-83757369D01*
X264387230Y-83781059D01*
X264370927Y-83808426D01*
X264357367Y-83837956D01*
X264347558Y-83868132D01*
X264346399Y-83872856D01*
X264342182Y-83896246D01*
X264151904Y-83896246D01*
X264191288Y-83830487D01*
X264260732Y-83723035D01*
X264336266Y-83613916D01*
X264417732Y-83503401D01*
X264504972Y-83391757D01*
X264597827Y-83279256D01*
X264599037Y-83277829D01*
X264623830Y-83248851D01*
X264648138Y-83220923D01*
X264671364Y-83194693D01*
X264692911Y-83170807D01*
X264712182Y-83149914D01*
X264728581Y-83132660D01*
X264741510Y-83119693D01*
X264750373Y-83111661D01*
X264754574Y-83109211D01*
X264754649Y-83109245D01*
G37*
%TD*%
M02*
