%TF.GenerationSoftware,KiCad,Pcbnew,9.0.8*%
%TF.CreationDate,2026-03-20T17:13:54-07:00*%
%TF.ProjectId,keyscar_kicad,6b657973-6361-4725-9f6b-696361642e6b,rev?*%
%TF.SameCoordinates,Original*%
%TF.FileFunction,Paste,Bot*%
%TF.FilePolarity,Positive*%
%FSLAX46Y46*%
G04 Gerber Fmt 4.6, Leading zero omitted, Abs format (unit mm)*
G04 Created by KiCad (PCBNEW 9.0.8) date 2026-03-20 17:13:54*
%MOMM*%
%LPD*%
G01*
G04 APERTURE LIST*
%ADD10C,0.150000*%
%ADD11R,0.540005X0.565659*%
%ADD12R,0.565659X0.540005*%
%ADD13R,0.500000X0.540005*%
%ADD14R,0.950013X1.150013*%
%ADD15R,2.591999X2.000000*%
%ADD16R,1.000000X1.500000*%
%ADD17O,0.559995X1.745009*%
%ADD18R,0.540005X0.500000*%
G04 APERTURE END LIST*
D10*
%TO.C,R4*%
X250770003Y-82507176D02*
X250770003Y-83007811D01*
X250729997Y-83047816D01*
X250270003Y-83047816D01*
X250229997Y-83007811D01*
X250229997Y-82507176D01*
X250270003Y-82467171D01*
X250729997Y-82467171D01*
X250770003Y-82507176D01*
G36*
X250770003Y-82507176D02*
G01*
X250770003Y-83007811D01*
X250729997Y-83047816D01*
X250270003Y-83047816D01*
X250229997Y-83007811D01*
X250229997Y-82507176D01*
X250270003Y-82467171D01*
X250729997Y-82467171D01*
X250770003Y-82507176D01*
G37*
X250770003Y-83357823D02*
X250770003Y-83858458D01*
X250729997Y-83898463D01*
X250270003Y-83898463D01*
X250229997Y-83858458D01*
X250229997Y-83357823D01*
X250270003Y-83317818D01*
X250729997Y-83317818D01*
X250770003Y-83357823D01*
G36*
X250770003Y-83357823D02*
G01*
X250770003Y-83858458D01*
X250729997Y-83898463D01*
X250270003Y-83898463D01*
X250229997Y-83858458D01*
X250229997Y-83357823D01*
X250270003Y-83317818D01*
X250729997Y-83317818D01*
X250770003Y-83357823D01*
G37*
%TO.C,R5*%
X262270003Y-77391542D02*
X262270003Y-77892177D01*
X262229997Y-77932182D01*
X261770003Y-77932182D01*
X261729997Y-77892177D01*
X261729997Y-77391542D01*
X261770003Y-77351537D01*
X262229997Y-77351537D01*
X262270003Y-77391542D01*
G36*
X262270003Y-77391542D02*
G01*
X262270003Y-77892177D01*
X262229997Y-77932182D01*
X261770003Y-77932182D01*
X261729997Y-77892177D01*
X261729997Y-77391542D01*
X261770003Y-77351537D01*
X262229997Y-77351537D01*
X262270003Y-77391542D01*
G37*
X262270003Y-78242189D02*
X262270003Y-78742824D01*
X262229997Y-78782829D01*
X261770003Y-78782829D01*
X261729997Y-78742824D01*
X261729997Y-78242189D01*
X261770003Y-78202184D01*
X262229997Y-78202184D01*
X262270003Y-78242189D01*
G36*
X262270003Y-78242189D02*
G01*
X262270003Y-78742824D01*
X262229997Y-78782829D01*
X261770003Y-78782829D01*
X261729997Y-78742824D01*
X261729997Y-78242189D01*
X261770003Y-78202184D01*
X262229997Y-78202184D01*
X262270003Y-78242189D01*
G37*
%TO.C,R7*%
X250297816Y-77020003D02*
X250297816Y-77479997D01*
X250257811Y-77520003D01*
X249757176Y-77520003D01*
X249717171Y-77479997D01*
X249717171Y-77020003D01*
X249757176Y-76979997D01*
X250257811Y-76979997D01*
X250297816Y-77020003D01*
G36*
X250297816Y-77020003D02*
G01*
X250297816Y-77479997D01*
X250257811Y-77520003D01*
X249757176Y-77520003D01*
X249717171Y-77479997D01*
X249717171Y-77020003D01*
X249757176Y-76979997D01*
X250257811Y-76979997D01*
X250297816Y-77020003D01*
G37*
X251148463Y-77020003D02*
X251148463Y-77479997D01*
X251108458Y-77520003D01*
X250607823Y-77520003D01*
X250567818Y-77479997D01*
X250567818Y-77020003D01*
X250607823Y-76979997D01*
X251108458Y-76979997D01*
X251148463Y-77020003D01*
G36*
X251148463Y-77020003D02*
G01*
X251148463Y-77479997D01*
X251108458Y-77520003D01*
X250607823Y-77520003D01*
X250567818Y-77479997D01*
X250567818Y-77020003D01*
X250607823Y-76979997D01*
X251108458Y-76979997D01*
X251148463Y-77020003D01*
G37*
%TO.C,R11*%
X253432182Y-76270003D02*
X253432182Y-76729997D01*
X253392177Y-76770003D01*
X252891542Y-76770003D01*
X252851537Y-76729997D01*
X252851537Y-76270003D01*
X252891542Y-76229997D01*
X253392177Y-76229997D01*
X253432182Y-76270003D01*
G36*
X253432182Y-76270003D02*
G01*
X253432182Y-76729997D01*
X253392177Y-76770003D01*
X252891542Y-76770003D01*
X252851537Y-76729997D01*
X252851537Y-76270003D01*
X252891542Y-76229997D01*
X253392177Y-76229997D01*
X253432182Y-76270003D01*
G37*
X254282829Y-76270003D02*
X254282829Y-76729997D01*
X254242824Y-76770003D01*
X253742189Y-76770003D01*
X253702184Y-76729997D01*
X253702184Y-76270003D01*
X253742189Y-76229997D01*
X254242824Y-76229997D01*
X254282829Y-76270003D01*
G36*
X254282829Y-76270003D02*
G01*
X254282829Y-76729997D01*
X254242824Y-76770003D01*
X253742189Y-76770003D01*
X253702184Y-76729997D01*
X253702184Y-76270003D01*
X253742189Y-76229997D01*
X254242824Y-76229997D01*
X254282829Y-76270003D01*
G37*
%TO.C,R3*%
X261020003Y-73757176D02*
X261020003Y-74257811D01*
X260979997Y-74297816D01*
X260520003Y-74297816D01*
X260479997Y-74257811D01*
X260479997Y-73757176D01*
X260520003Y-73717171D01*
X260979997Y-73717171D01*
X261020003Y-73757176D01*
G36*
X261020003Y-73757176D02*
G01*
X261020003Y-74257811D01*
X260979997Y-74297816D01*
X260520003Y-74297816D01*
X260479997Y-74257811D01*
X260479997Y-73757176D01*
X260520003Y-73717171D01*
X260979997Y-73717171D01*
X261020003Y-73757176D01*
G37*
X261020003Y-74607823D02*
X261020003Y-75108458D01*
X260979997Y-75148463D01*
X260520003Y-75148463D01*
X260479997Y-75108458D01*
X260479997Y-74607823D01*
X260520003Y-74567818D01*
X260979997Y-74567818D01*
X261020003Y-74607823D01*
G36*
X261020003Y-74607823D02*
G01*
X261020003Y-75108458D01*
X260979997Y-75148463D01*
X260520003Y-75148463D01*
X260479997Y-75108458D01*
X260479997Y-74607823D01*
X260520003Y-74567818D01*
X260979997Y-74567818D01*
X261020003Y-74607823D01*
G37*
%TO.C,R1*%
X262270003Y-84391542D02*
X262270003Y-84892177D01*
X262229997Y-84932182D01*
X261770003Y-84932182D01*
X261729997Y-84892177D01*
X261729997Y-84391542D01*
X261770003Y-84351537D01*
X262229997Y-84351537D01*
X262270003Y-84391542D01*
G36*
X262270003Y-84391542D02*
G01*
X262270003Y-84892177D01*
X262229997Y-84932182D01*
X261770003Y-84932182D01*
X261729997Y-84892177D01*
X261729997Y-84391542D01*
X261770003Y-84351537D01*
X262229997Y-84351537D01*
X262270003Y-84391542D01*
G37*
X262270003Y-85242189D02*
X262270003Y-85742824D01*
X262229997Y-85782829D01*
X261770003Y-85782829D01*
X261729997Y-85742824D01*
X261729997Y-85242189D01*
X261770003Y-85202184D01*
X262229997Y-85202184D01*
X262270003Y-85242189D01*
G36*
X262270003Y-85242189D02*
G01*
X262270003Y-85742824D01*
X262229997Y-85782829D01*
X261770003Y-85782829D01*
X261729997Y-85742824D01*
X261729997Y-85242189D01*
X261770003Y-85202184D01*
X262229997Y-85202184D01*
X262270003Y-85242189D01*
G37*
%TO.C,R8*%
X262520003Y-89257176D02*
X262520003Y-89757811D01*
X262479997Y-89797816D01*
X262020003Y-89797816D01*
X261979997Y-89757811D01*
X261979997Y-89257176D01*
X262020003Y-89217171D01*
X262479997Y-89217171D01*
X262520003Y-89257176D01*
G36*
X262520003Y-89257176D02*
G01*
X262520003Y-89757811D01*
X262479997Y-89797816D01*
X262020003Y-89797816D01*
X261979997Y-89757811D01*
X261979997Y-89257176D01*
X262020003Y-89217171D01*
X262479997Y-89217171D01*
X262520003Y-89257176D01*
G37*
X262520003Y-90107823D02*
X262520003Y-90608458D01*
X262479997Y-90648463D01*
X262020003Y-90648463D01*
X261979997Y-90608458D01*
X261979997Y-90107823D01*
X262020003Y-90067818D01*
X262479997Y-90067818D01*
X262520003Y-90107823D01*
G36*
X262520003Y-90107823D02*
G01*
X262520003Y-90608458D01*
X262479997Y-90648463D01*
X262020003Y-90648463D01*
X261979997Y-90608458D01*
X261979997Y-90107823D01*
X262020003Y-90067818D01*
X262479997Y-90067818D01*
X262520003Y-90107823D01*
G37*
%TO.C,R2*%
X262270003Y-93757176D02*
X262270003Y-94257811D01*
X262229997Y-94297816D01*
X261770003Y-94297816D01*
X261729997Y-94257811D01*
X261729997Y-93757176D01*
X261770003Y-93717171D01*
X262229997Y-93717171D01*
X262270003Y-93757176D01*
G36*
X262270003Y-93757176D02*
G01*
X262270003Y-94257811D01*
X262229997Y-94297816D01*
X261770003Y-94297816D01*
X261729997Y-94257811D01*
X261729997Y-93757176D01*
X261770003Y-93717171D01*
X262229997Y-93717171D01*
X262270003Y-93757176D01*
G37*
X262270003Y-94607823D02*
X262270003Y-95108458D01*
X262229997Y-95148463D01*
X261770003Y-95148463D01*
X261729997Y-95108458D01*
X261729997Y-94607823D01*
X261770003Y-94567818D01*
X262229997Y-94567818D01*
X262270003Y-94607823D01*
G36*
X262270003Y-94607823D02*
G01*
X262270003Y-95108458D01*
X262229997Y-95148463D01*
X261770003Y-95148463D01*
X261729997Y-95108458D01*
X261729997Y-94607823D01*
X261770003Y-94567818D01*
X262229997Y-94567818D01*
X262270003Y-94607823D01*
G37*
%TO.C,R9*%
X247432182Y-73520003D02*
X247432182Y-73979997D01*
X247392177Y-74020003D01*
X246891542Y-74020003D01*
X246851537Y-73979997D01*
X246851537Y-73520003D01*
X246891542Y-73479997D01*
X247392177Y-73479997D01*
X247432182Y-73520003D01*
G36*
X247432182Y-73520003D02*
G01*
X247432182Y-73979997D01*
X247392177Y-74020003D01*
X246891542Y-74020003D01*
X246851537Y-73979997D01*
X246851537Y-73520003D01*
X246891542Y-73479997D01*
X247392177Y-73479997D01*
X247432182Y-73520003D01*
G37*
X248282829Y-73520003D02*
X248282829Y-73979997D01*
X248242824Y-74020003D01*
X247742189Y-74020003D01*
X247702184Y-73979997D01*
X247702184Y-73520003D01*
X247742189Y-73479997D01*
X248242824Y-73479997D01*
X248282829Y-73520003D01*
G36*
X248282829Y-73520003D02*
G01*
X248282829Y-73979997D01*
X248242824Y-74020003D01*
X247742189Y-74020003D01*
X247702184Y-73979997D01*
X247702184Y-73520003D01*
X247742189Y-73479997D01*
X248242824Y-73479997D01*
X248282829Y-73520003D01*
G37*
%TO.C,R6*%
X246020003Y-92891542D02*
X246020003Y-93392177D01*
X245979997Y-93432182D01*
X245520003Y-93432182D01*
X245479997Y-93392177D01*
X245479997Y-92891542D01*
X245520003Y-92851537D01*
X245979997Y-92851537D01*
X246020003Y-92891542D01*
G36*
X246020003Y-92891542D02*
G01*
X246020003Y-93392177D01*
X245979997Y-93432182D01*
X245520003Y-93432182D01*
X245479997Y-93392177D01*
X245479997Y-92891542D01*
X245520003Y-92851537D01*
X245979997Y-92851537D01*
X246020003Y-92891542D01*
G37*
X246020003Y-93742189D02*
X246020003Y-94242824D01*
X245979997Y-94282829D01*
X245520003Y-94282829D01*
X245479997Y-94242824D01*
X245479997Y-93742189D01*
X245520003Y-93702184D01*
X245979997Y-93702184D01*
X246020003Y-93742189D01*
G36*
X246020003Y-93742189D02*
G01*
X246020003Y-94242824D01*
X245979997Y-94282829D01*
X245520003Y-94282829D01*
X245479997Y-94242824D01*
X245479997Y-93742189D01*
X245520003Y-93702184D01*
X245979997Y-93702184D01*
X246020003Y-93742189D01*
G37*
%TD*%
D11*
%TO.C,R4*%
X250500000Y-82750000D03*
X250500000Y-83615634D03*
%TD*%
%TO.C,R5*%
X262000000Y-77634366D03*
X262000000Y-78500000D03*
%TD*%
D12*
%TO.C,R7*%
X250000000Y-77250000D03*
X250865634Y-77250000D03*
%TD*%
%TO.C,R11*%
X253134366Y-76500000D03*
X254000000Y-76500000D03*
%TD*%
D13*
%TO.C,C2*%
X261079883Y-76250000D03*
X261920117Y-76250000D03*
%TD*%
D11*
%TO.C,R3*%
X260750000Y-74000000D03*
X260750000Y-74865634D03*
%TD*%
%TO.C,R1*%
X262000000Y-84634366D03*
X262000000Y-85500000D03*
%TD*%
%TO.C,R8*%
X262250000Y-89500000D03*
X262250000Y-90365634D03*
%TD*%
%TO.C,R2*%
X262000000Y-94000000D03*
X262000000Y-94865634D03*
%TD*%
D12*
%TO.C,R9*%
X248000000Y-73750000D03*
X247134366Y-73750000D03*
%TD*%
D14*
%TO.C,D1*%
X245807595Y-75500000D03*
X249192405Y-75500000D03*
%TD*%
D15*
%TO.C,R_PHOTO1*%
X247750000Y-81042291D03*
X247750000Y-77957709D03*
%TD*%
D11*
%TO.C,R6*%
X245750000Y-94000000D03*
X245750000Y-93134366D03*
%TD*%
D16*
%TO.C,SW_CHIP_RST3*%
X247250000Y-89349949D03*
X248950026Y-89349949D03*
X247250000Y-84150051D03*
X248950026Y-84150051D03*
%TD*%
D17*
%TO.C,MASTER1*%
X260768532Y-83994984D03*
X259498529Y-83994984D03*
X258228527Y-83994984D03*
X256958524Y-83994984D03*
X255688522Y-83994984D03*
X254418519Y-83994984D03*
X253148517Y-83994984D03*
X251878514Y-83994984D03*
X251878514Y-78250000D03*
X253148517Y-78250000D03*
X254418519Y-78250000D03*
X255688522Y-78250000D03*
X256958524Y-78250000D03*
X258228527Y-78250000D03*
X259498529Y-78250000D03*
X260768532Y-78250000D03*
%TD*%
%TO.C,SLAVE1*%
X251879985Y-86255016D03*
X253149988Y-86255016D03*
X254419990Y-86255016D03*
X255689993Y-86255016D03*
X256959995Y-86255016D03*
X258229998Y-86255016D03*
X259500000Y-86255016D03*
X260770003Y-86255016D03*
X260770003Y-92000000D03*
X259500000Y-92000000D03*
X258229998Y-92000000D03*
X256959995Y-92000000D03*
X255689993Y-92000000D03*
X254419990Y-92000000D03*
X253149988Y-92000000D03*
X251879985Y-92000000D03*
%TD*%
D14*
%TO.C,D2*%
X247115190Y-92000000D03*
X250500000Y-92000000D03*
%TD*%
D18*
%TO.C,C1*%
X247000000Y-93659766D03*
X247000000Y-94500000D03*
%TD*%
M02*
