%TF.GenerationSoftware,KiCad,Pcbnew,9.0.8*%
%TF.CreationDate,2026-03-20T17:13:54-07:00*%
%TF.ProjectId,keyscar_kicad,6b657973-6361-4725-9f6b-696361642e6b,rev?*%
%TF.SameCoordinates,Original*%
%TF.FileFunction,Soldermask,Top*%
%TF.FilePolarity,Negative*%
%FSLAX46Y46*%
G04 Gerber Fmt 4.6, Leading zero omitted, Abs format (unit mm)*
G04 Created by KiCad (PCBNEW 9.0.8) date 2026-03-20 17:13:54*
%MOMM*%
%LPD*%
G01*
G04 APERTURE LIST*
%ADD10C,1.600000*%
%ADD11O,2.000000X3.500000*%
%ADD12R,1.000000X1.500000*%
%ADD13R,1.500000X1.500000*%
%ADD14R,2.500000X1.199898*%
%ADD15O,1.000000X2.300000*%
%ADD16R,0.600000X1.500000*%
%ADD17R,0.300000X1.000000*%
G04 APERTURE END LIST*
D10*
%TO.C,USBA_MALE1*%
X257649987Y-94500000D03*
X255149860Y-94500000D03*
X253149860Y-94500000D03*
X250649987Y-94500000D03*
D11*
X248299974Y-96500000D03*
X260000000Y-96500000D03*
%TD*%
D12*
%TO.C,SW_SLAVE_BOOT2*%
X258850140Y-90699898D03*
X257150114Y-90699898D03*
X258850140Y-85500000D03*
X257150114Y-85500000D03*
%TD*%
%TO.C,LED2*%
X251500000Y-91000000D03*
X254499746Y-91000000D03*
X254499746Y-86000000D03*
X251500000Y-86000000D03*
%TD*%
%TO.C,SW_MASTER_BOOT1*%
X257149860Y-77400051D03*
X258849886Y-77400051D03*
X257149860Y-82599949D03*
X258849886Y-82599949D03*
%TD*%
%TO.C,LED1*%
X254499746Y-78000000D03*
X251500000Y-78000000D03*
X251500000Y-83000000D03*
X254499746Y-83000000D03*
%TD*%
D13*
%TO.C,SW5_MASTER_EXEC1*%
X246000000Y-83000000D03*
X246000000Y-76000000D03*
X249000000Y-83000000D03*
X249000000Y-76000000D03*
%TD*%
%TO.C,SW6_SLAVE_EXEC2*%
X249000000Y-84750000D03*
X249000000Y-91750000D03*
X246000000Y-84750000D03*
X246000000Y-91750000D03*
%TD*%
D14*
%TO.C,SW2*%
X261749936Y-87558928D03*
X261749936Y-90098933D03*
X261749936Y-92638938D03*
%TD*%
D15*
%TO.C,USBC_MALE1*%
X251000102Y-74950089D03*
D16*
X251650089Y-73749937D03*
X258849987Y-73749937D03*
D15*
X259499974Y-74950089D03*
D17*
X252500000Y-75049912D03*
X253000000Y-75049912D03*
X253500000Y-75049912D03*
X254000000Y-75049912D03*
X254500000Y-75049912D03*
X255000000Y-75049912D03*
X255500000Y-75049912D03*
X256000000Y-75049912D03*
X256500000Y-75049912D03*
X257000000Y-75049912D03*
X257500000Y-75049912D03*
X258000000Y-75049912D03*
X258000000Y-73500000D03*
X257500000Y-73500000D03*
X257000000Y-73500000D03*
X256500000Y-73500000D03*
X256000000Y-73500000D03*
X255500000Y-73500000D03*
X255000000Y-73500000D03*
X254500000Y-73500000D03*
X254000000Y-73500000D03*
X253500000Y-73500000D03*
X253000000Y-73500000D03*
X252500000Y-73500000D03*
%TD*%
D14*
%TO.C,SW1*%
X261726498Y-77959868D03*
X261726498Y-80499873D03*
X261726498Y-83039878D03*
%TD*%
M02*
