%TF.GenerationSoftware,KiCad,Pcbnew,9.0.8*%
%TF.CreationDate,2026-03-20T23:14:42-07:00*%
%TF.ProjectId,keyscar_kicad,6b657973-6361-4725-9f6b-696361642e6b,rev?*%
%TF.SameCoordinates,Original*%
%TF.FileFunction,Soldermask,Top*%
%TF.FilePolarity,Negative*%
%FSLAX46Y46*%
G04 Gerber Fmt 4.6, Leading zero omitted, Abs format (unit mm)*
G04 Created by KiCad (PCBNEW 9.0.8) date 2026-03-20 23:14:42*
%MOMM*%
%LPD*%
G01*
G04 APERTURE LIST*
%ADD10R,0.329997X1.500000*%
%ADD11R,0.800000X1.500000*%
%ADD12R,1.000000X1.500000*%
%ADD13R,2.500000X1.199898*%
%ADD14C,1.600000*%
%ADD15O,2.000000X3.500000*%
%ADD16R,0.700000X1.450013*%
%ADD17R,1.500000X1.500000*%
G04 APERTURE END LIST*
D10*
%TO.C,USBC_MALE1*%
X252998857Y-73550000D03*
X253499238Y-73550000D03*
X253999619Y-73550000D03*
X254500000Y-73550000D03*
X254997841Y-73550000D03*
X255498222Y-73550000D03*
X255998603Y-73550000D03*
X256498984Y-73550000D03*
X256999365Y-73550000D03*
X257499746Y-73550000D03*
X257998857Y-73550000D03*
X258497968Y-73550000D03*
D11*
X251773812Y-73560160D03*
X259724028Y-73560160D03*
%TD*%
D12*
%TO.C,LED2*%
X251500000Y-91000000D03*
X254499746Y-91000000D03*
X254499746Y-86000000D03*
X251500000Y-86000000D03*
%TD*%
D13*
%TO.C,SW1*%
X261726498Y-77959868D03*
X261726498Y-80499873D03*
X261726498Y-83039878D03*
%TD*%
D14*
%TO.C,USBA_MALE1*%
X257649987Y-94500000D03*
X255149860Y-94500000D03*
X253149860Y-94500000D03*
X250649987Y-94500000D03*
D15*
X248299974Y-96500000D03*
X260000000Y-96500000D03*
%TD*%
D16*
%TO.C,SW_MASTER_BOOT1*%
X257099987Y-77524943D03*
X258800013Y-77524943D03*
X257099987Y-82675057D03*
X258800013Y-82674803D03*
%TD*%
D17*
%TO.C,SW6_SLAVE_EXEC2*%
X249000000Y-84750000D03*
X249000000Y-91750000D03*
X246000000Y-84750000D03*
X246000000Y-91750000D03*
%TD*%
D12*
%TO.C,LED1*%
X254499746Y-78000000D03*
X251500000Y-78000000D03*
X251500000Y-83000000D03*
X254499746Y-83000000D03*
%TD*%
D16*
%TO.C,SW_SLAVE_BOOT2*%
X258850013Y-90575057D03*
X257149987Y-90575057D03*
X258850013Y-85424943D03*
X257149987Y-85425197D03*
%TD*%
D13*
%TO.C,SW2*%
X261749936Y-87558928D03*
X261749936Y-90098933D03*
X261749936Y-92638938D03*
%TD*%
D17*
%TO.C,SW5_MASTER_EXEC1*%
X246000000Y-83000000D03*
X246000000Y-76000000D03*
X249000000Y-83000000D03*
X249000000Y-76000000D03*
%TD*%
M02*
