<?xml version='1.0' encoding='utf-8'?>
<!-- Generator: Adobe Illustrator 24.0.2, SVG Export Plug-In . SVG Version: 6.00 Build 0)  -->
<svg xmlns="http://www.w3.org/2000/svg" viewBox="0 0 147.79 59.83" gorn="0"  height="0.830972in" width="2.05264in" xmlns:xml="http://www.w3.org/XML/1998/namespace" id="Capa_1" y="0px" version="1.1" enable-background="new 0 0 147.79 59.83" x="0px" xml:space="preserve">
    <desc >
        <referenceFile >CH552G PCB View.svg</referenceFile>
    </desc>
    <path  stroke-width="0.25" stroke-linecap="round" stroke-miterlimit="10" d="M147.605,11.525v37.08l0.06-0.033c0.002,2.071-1.676,3.751-3.747,3.753h-0.033h-10.38l0.033,0.001c-0.944-0.035-1.737,0.702-1.772,1.646l-0.001,0.003c0,3.131-2.539,5.67-5.67,5.67l-0.03,0.06H5.825l0.03-0.06c-3.131,0-5.67-2.539-5.67-5.67l-0.06,0.03V5.825l0.06-0.03c0-3.131,2.539-5.67,5.67-5.67h-0.03h120.24h0.03c3.131,0,5.67,2.539,5.67,5.67h-0.06c0,0.978,0.819,1.77,1.83,1.77l-0.03,0.06h10.38l-0.011-0.059c2.104,0.044,3.774,1.785,3.73,3.888" stroke-linejoin="round" fill="none" stroke="#000000"/>
    <g gorn="0.2"  id="copper1">
        <g gorn="0.2.0"  id="copper0">
            <path  stroke-width="0.25" stroke-linecap="round" stroke-miterlimit="10" d="M37.925,7.265h4.68v4.68h-4.68V7.265 M38.825,9.575c0,0.812,0.658,1.47,1.47,1.47s1.47-0.658,1.47-1.47s-0.658-1.47-1.47-1.47S38.825,8.763,38.825,9.575" stroke-linejoin="round" fill="#F7BD13" stroke="#000000"/>
            <path gorn="0.2.0.1"  stroke-width="0.25" stroke-linecap="round" stroke-miterlimit="10" id="connector14pad" d="M76.322,10.462c-0.051,1.044-0.833,1.906-1.866,2.059l0.009,0.024h-0.24l0.017-0.003c-1.208,0.059-2.235-0.872-2.295-2.08l-0.003,0.043v-4.56l0.003-0.017c0.057-1.166,1.02-2.083,2.187-2.083s2.13,0.916,2.187,2.083l-0.057,0.017v4.56 M72.785,8.195c0,0.746,0.604,1.35,1.35,1.35s1.35-0.604,1.35-1.35s-0.604-1.35-1.35-1.35S72.785,7.449,72.785,8.195" stroke-linejoin="round" fill="#F7BD13" stroke="#000000"/>
            <path gorn="0.2.0.2"  stroke-width="0.25" stroke-linecap="round" stroke-miterlimit="10" id="connector11pad" d="M95.842,12.542c-1.208,0.059-2.235-0.872-2.295-2.08l-0.003,0.043v-4.56l0.003-0.017c0.057-1.166,1.02-2.083,2.187-2.083s2.13,0.916,2.187,2.083l-0.057,0.017v4.56l0.057-0.043c-0.051,1.044-0.833,1.906-1.866,2.059 M94.385,8.195c0,0.746,0.604,1.35,1.35,1.35s1.35-0.604,1.35-1.35s-0.604-1.35-1.35-1.35S94.385,7.449,94.385,8.195 M95.825,12.545h0.24" stroke-linejoin="round" fill="#F7BD13" stroke="#000000"/>
            <path gorn="0.2.0.3"  stroke-width="0.25" stroke-linecap="round" stroke-miterlimit="10" id="connector12pad" d="M88.642,12.542c-1.208,0.059-2.235-0.872-2.295-2.08l-0.003,0.043v-4.56l0.003-0.017c0.057-1.166,1.02-2.083,2.187-2.083s2.13,0.916,2.187,2.083l-0.057,0.017v4.56l0.057-0.043c-0.051,1.044-0.833,1.906-1.866,2.059 M87.185,8.195c0,0.746,0.604,1.35,1.35,1.35s1.35-0.604,1.35-1.35s-0.604-1.35-1.35-1.35S87.185,7.449,87.185,8.195 M88.625,12.545h0.24" stroke-linejoin="round" fill="#F7BD13" stroke="#000000"/>
            <path gorn="0.2.0.4"  stroke-width="0.25" stroke-linecap="round" stroke-miterlimit="10" id="connector5pad" d="M105.122,53.662c-0.051,1.044-0.833,1.906-1.866,2.059l0.009-0.036l-0.24,0.06l0.018-0.003c-1.208,0.059-2.235-0.872-2.295-2.08l-0.003,0.043v-4.56l0.003-0.017c0.057-1.166,1.02-2.083,2.187-2.083s2.13,0.916,2.187,2.083l-0.057,0.017v4.56 M101.585,51.395c0,0.746,0.604,1.35,1.35,1.35s1.35-0.604,1.35-1.35s-0.604-1.35-1.35-1.35S101.585,50.649,101.585,51.395" stroke-linejoin="round" fill="#F7BD13" stroke="#000000"/>
            <path gorn="0.2.0.5"  stroke-width="0.25" stroke-linecap="round" stroke-miterlimit="10" id="connector0pad" d="M69.122,53.662c-0.051,1.044-0.833,1.906-1.866,2.059l0.009-0.036l-0.24,0.06l0.017-0.003c-1.208,0.059-2.235-0.872-2.295-2.08l-0.003,0.043v-4.56l0.003-0.017c0.057-1.166,1.02-2.083,2.187-2.083s2.13,0.916,2.187,2.083l-0.057,0.017v4.56 M65.585,51.395c0,0.746,0.604,1.35,1.35,1.35s1.35-0.604,1.35-1.35s-0.604-1.35-1.35-1.35S65.585,50.649,65.585,51.395" stroke-linejoin="round" fill="#F7BD13" stroke="#000000"/>
            <path gorn="0.2.0.6"  stroke-width="0.25" stroke-linecap="round" stroke-miterlimit="10" id="connector6pad" d="M112.322,53.662c-0.051,1.044-0.833,1.906-1.866,2.059l0.009-0.036l-0.24,0.06l0.017-0.003c-1.208,0.059-2.235-0.872-2.295-2.08l-0.003,0.043v-4.56l0.003-0.017c0.057-1.166,1.02-2.083,2.187-2.083s2.13,0.916,2.187,2.083l-0.057,0.017v4.56 M108.785,51.395c0,0.746,0.604,1.35,1.35,1.35s1.35-0.604,1.35-1.35s-0.604-1.35-1.35-1.35S108.785,50.649,108.785,51.395" stroke-linejoin="round" fill="#F7BD13" stroke="#000000"/>
            <path gorn="0.2.0.7"  stroke-width="0.25" stroke-linecap="round" stroke-miterlimit="10" id="connector7pad" d="M119.522,53.662c-0.051,1.044-0.833,1.906-1.866,2.059l0.009-0.036l-0.24,0.06l0.017-0.003c-1.208,0.059-2.235-0.872-2.295-2.08l-0.003,0.043v-4.56l0.003-0.017c0.057-1.166,1.02-2.083,2.187-2.083c1.168,0,2.13,0.916,2.187,2.083l-0.057,0.017v4.56 M115.985,51.395c0,0.746,0.604,1.35,1.35,1.35s1.35-0.604,1.35-1.35s-0.604-1.35-1.35-1.35S115.985,50.649,115.985,51.395" stroke-linejoin="round" fill="#F7BD13" stroke="#000000"/>
            <path gorn="0.2.0.8"  stroke-width="0.25" stroke-linecap="round" stroke-miterlimit="10" id="connector4pad" d="M97.922,53.662c-0.051,1.044-0.833,1.906-1.866,2.059l0.009-0.036l-0.24,0.06l0.017-0.003c-1.208,0.059-2.235-0.872-2.295-2.08l-0.003,0.043v-4.56l0.003-0.017c0.057-1.166,1.02-2.083,2.187-2.083s2.13,0.916,2.187,2.083l-0.057,0.017v4.56 M94.385,51.395c0,0.746,0.604,1.35,1.35,1.35s1.35-0.604,1.35-1.35s-0.604-1.35-1.35-1.35S94.385,50.649,94.385,51.395" stroke-linejoin="round" fill="#F7BD13" stroke="#000000"/>
            <path gorn="0.2.0.9"  stroke-width="0.25" stroke-linecap="round" stroke-miterlimit="10" id="connector3pad" d="M90.722,53.662c-0.051,1.044-0.833,1.906-1.866,2.059l0.009-0.036l-0.24,0.06l0.017-0.003c-1.208,0.059-2.235-0.872-2.295-2.08l-0.003,0.043v-4.56l0.003-0.017c0.057-1.166,1.02-2.083,2.187-2.083s2.13,0.916,2.187,2.083l-0.057,0.017v4.56 M87.185,51.395c0,0.746,0.604,1.35,1.35,1.35s1.35-0.604,1.35-1.35s-0.604-1.35-1.35-1.35S87.185,50.649,87.185,51.395" stroke-linejoin="round" fill="#F7BD13" stroke="#000000"/>
            <path gorn="0.2.0.10"  stroke-width="0.25" stroke-linecap="round" stroke-miterlimit="10" id="connector2pad" d="M83.522,53.662c-0.051,1.044-0.833,1.906-1.866,2.059l0.009-0.036l-0.24,0.06l0.017-0.003c-1.208,0.059-2.235-0.872-2.295-2.08l-0.003,0.043v-4.56l0.003-0.017c0.057-1.166,1.02-2.083,2.187-2.083c1.168,0,2.13,0.916,2.187,2.083l-0.057,0.017v4.56 M79.985,51.395c0,0.746,0.604,1.35,1.35,1.35s1.35-0.604,1.35-1.35s-0.604-1.35-1.35-1.35S79.985,50.649,79.985,51.395" stroke-linejoin="round" fill="#F7BD13" stroke="#000000"/>
            <path gorn="0.2.0.11"  stroke-width="0.25" stroke-linecap="round" stroke-miterlimit="10" id="connector1pad" d="M76.322,53.662c-0.051,1.044-0.833,1.906-1.866,2.059l0.009-0.036l-0.24,0.06l0.017-0.003c-1.208,0.059-2.235-0.872-2.295-2.08l-0.003,0.043v-4.56l0.003-0.017c0.057-1.166,1.02-2.083,2.187-2.083s2.13,0.916,2.187,2.083l-0.057,0.017v4.56 M72.785,51.395c0,0.746,0.604,1.35,1.35,1.35s1.35-0.604,1.35-1.35s-0.604-1.35-1.35-1.35S72.785,50.649,72.785,51.395" stroke-linejoin="round" fill="#F7BD13" stroke="#000000"/>
            <path gorn="0.2.0.12"  stroke-width="0.25" stroke-linecap="round" stroke-miterlimit="10" id="connector8pad" d="M117.442,12.542c-1.208,0.059-2.235-0.872-2.295-2.08l-0.003,0.043v-4.56l0.003-0.017c0.057-1.166,1.02-2.083,2.187-2.083c1.168,0,2.13,0.916,2.187,2.083l-0.057,0.017v4.56l0.057-0.043c-0.051,1.044-0.833,1.906-1.866,2.059 M115.985,8.195c0,0.746,0.604,1.35,1.35,1.35s1.35-0.604,1.35-1.35s-0.604-1.35-1.35-1.35S115.985,7.449,115.985,8.195 M117.425,12.545h0.24" stroke-linejoin="round" fill="#F7BD13" stroke="#000000"/>
            <path gorn="0.2.0.13"  stroke-width="0.25" stroke-linecap="round" stroke-miterlimit="10" id="connector25pin" d="M58.322,53.662c-0.051,1.044-0.833,1.906-1.866,2.059l0.009-0.036l-0.24,0.06l0.017-0.003c-1.208,0.059-2.235-0.872-2.295-2.08l-0.003,0.043v-4.56l0.003-0.017c0.057-1.166,1.02-2.083,2.187-2.083s2.13,0.916,2.187,2.083l-0.057,0.017v4.56 M54.785,51.395c0,0.746,0.604,1.35,1.35,1.35s1.35-0.604,1.35-1.35s-0.604-1.35-1.35-1.35S54.785,50.649,54.785,51.395" stroke-linejoin="round" fill="#F7BD13" stroke="#000000"/>
            <path gorn="0.2.0.14"  stroke-width="0.25" stroke-linecap="round" stroke-miterlimit="10" id="connector10pad" d="M103.042,12.542c-1.208,0.059-2.235-0.872-2.295-2.08l-0.003,0.043v-4.56l0.003-0.017c0.057-1.166,1.02-2.083,2.187-2.083s2.13,0.916,2.187,2.083l-0.057,0.017v4.56l0.057-0.043c-0.051,1.044-0.833,1.906-1.866,2.059 M101.585,8.195c0,0.746,0.604,1.35,1.35,1.35s1.35-0.604,1.35-1.35s-0.604-1.35-1.35-1.35S101.585,7.449,101.585,8.195 M103.025,12.545h0.24" stroke-linejoin="round" fill="#F7BD13" stroke="#000000"/>
            <path gorn="0.2.0.15"  stroke-width="0.25" stroke-linecap="round" stroke-miterlimit="10" id="connector9pad" d="M112.322,10.462c-0.051,1.044-0.833,1.906-1.866,2.059l0.009,0.024h-0.24l0.017-0.003c-1.208,0.059-2.235-0.872-2.295-2.08l-0.003,0.043v-4.56l0.003-0.017c0.057-1.166,1.02-2.083,2.187-2.083s2.13,0.916,2.187,2.083l-0.057,0.017v4.56 M108.785,8.195c0,0.746,0.604,1.35,1.35,1.35s1.35-0.604,1.35-1.35s-0.604-1.35-1.35-1.35S108.785,7.449,108.785,8.195" stroke-linejoin="round" fill="#F7BD13" stroke="#000000"/>
            <path  stroke-width="0.25" stroke-linecap="round" stroke-miterlimit="10" d="M6.545,40.565h3.48l0.003-0.057c0.838,0.047,1.508,0.716,1.555,1.555c0.047,0.839-0.543,1.579-1.371,1.719l-0.006,0.023h-0.18h-3.48l0.057-0.003c-0.874-0.049-1.557-0.772-1.557-1.647s0.684-1.598,1.557-1.647 M7.505,42.155c0,0.447,0.363,0.81,0.81,0.81c0.447,0,0.81-0.363,0.81-0.81s-0.363-0.81-0.81-0.81C7.868,41.345,7.505,41.708,7.505,42.155" stroke-linejoin="round" fill="#F7BD13" stroke="#000000"/>
            <path  stroke-width="0.25" stroke-linecap="round" stroke-miterlimit="10" d="M18.686,19.242" stroke-linejoin="round" fill="none" stroke="#000000"/>
            <path  stroke-width="0.25" stroke-linecap="round" stroke-miterlimit="10" d="M22.166,19.242" stroke-linejoin="round" fill="none" stroke="#000000"/>
            <path  stroke-width="0.25" stroke-linecap="round" stroke-miterlimit="10" d="M22.347,19.242" stroke-linejoin="round" fill="none" stroke="#000000"/>
            <path  stroke-width="0.25" stroke-linecap="round" stroke-miterlimit="10" d="M23.462,17.522c0.047,0.839-0.543,1.579-1.371,1.719l-3.669,0.021c-0.874-0.049-1.557-0.772-1.557-1.647c0-0.875,0.684-1.598,1.557-1.647h3.485C22.746,16.015,23.415,16.684,23.462,17.522z M19.325,17.615c0,0.447,0.363,0.81,0.81,0.81c0.447,0,0.81-0.363,0.81-0.81c0-0.447-0.363-0.81-0.81-0.81C19.688,16.805,19.325,17.168,19.325,17.615" stroke-linejoin="round" fill="#F7BD13" stroke="#000000"/>
            <path  stroke-width="0.25" stroke-linecap="round" stroke-miterlimit="10" d="M21.908,40.508c0.838,0.047,1.508,0.716,1.555,1.555c0.047,0.839-0.543,1.579-1.371,1.719l-3.669,0.021c-0.874-0.049-1.557-0.772-1.557-1.647s0.684-1.598,1.557-1.647H21.908z M19.325,42.155c0,0.447,0.363,0.81,0.81,0.81c0.447,0,0.81-0.363,0.81-0.81s-0.363-0.81-0.81-0.81C19.688,41.345,19.325,41.708,19.325,42.155" stroke-linejoin="round" fill="#F7BD13" stroke="#000000"/>
            <path  stroke-width="0.25" stroke-linecap="round" stroke-miterlimit="10" d="M6.545,16.025h3.48l0.003-0.057c0.838,0.047,1.508,0.716,1.555,1.555c0.047,0.839-0.543,1.579-1.371,1.719l-0.006,0.023h-0.18h-3.48l0.057-0.003c-0.874-0.049-1.557-0.772-1.557-1.647c0-0.875,0.684-1.598,1.557-1.647 M7.505,17.615c0,0.447,0.363,0.81,0.81,0.81c0.447,0,0.81-0.363,0.81-0.81c0-0.447-0.363-0.81-0.81-0.81C7.868,16.805,7.505,17.168,7.505,17.615" stroke-linejoin="round" fill="#F7BD13" stroke="#000000"/>
            <path gorn="0.2.0.23"  stroke-width="0.25" stroke-linecap="round" stroke-miterlimit="10" id="connector26pin" d="M49.042,55.742c-1.208,0.059-2.235-0.872-2.295-2.08l-0.003,0.043v-4.56l0.003-0.017c0.057-1.166,1.02-2.083,2.187-2.083s2.13,0.916,2.187,2.083l-0.057,0.017v4.56l0.057-0.043c-0.051,1.044-0.833,1.906-1.866,2.059 M47.585,51.395c0,0.746,0.604,1.35,1.35,1.35s1.35-0.604,1.35-1.35s-0.604-1.35-1.35-1.35S47.585,50.649,47.585,51.395 M49.025,55.745l0.24-0.06" stroke-linejoin="round" fill="#F7BD13" stroke="#000000"/>
            <path gorn="0.2.0.24"  stroke-width="0.25" stroke-linecap="round" stroke-miterlimit="10" id="connector13pad" d="M83.522,10.462c-0.051,1.044-0.833,1.906-1.866,2.059l0.009,0.024h-0.24l0.017-0.003c-1.208,0.059-2.235-0.872-2.295-2.08l-0.003,0.043v-4.56l0.003-0.017c0.057-1.166,1.02-2.083,2.187-2.083c1.168,0,2.13,0.916,2.187,2.083l-0.057,0.017v4.56 M79.985,8.195c0,0.746,0.604,1.35,1.35,1.35s1.35-0.604,1.35-1.35s-0.604-1.35-1.35-1.35S79.985,7.449,79.985,8.195" stroke-linejoin="round" fill="#F7BD13" stroke="#000000"/>
            <path  stroke-width="0.25" stroke-linecap="round" stroke-miterlimit="10" d="M30.725,7.265h4.68v4.68h-4.68V7.265 M31.625,9.575c0,0.812,0.658,1.47,1.47,1.47c0.812,0,1.47-0.658,1.47-1.47s-0.658-1.47-1.47-1.47C32.283,8.105,31.625,8.763,31.625,9.575" stroke-linejoin="round" fill="#F7BD13" stroke="#000000"/>
            <path  stroke-width="0.25" stroke-linecap="round" stroke-miterlimit="10" d="M45.125,7.265h4.68v4.68h-4.68V7.265 M46.025,9.575c0,0.812,0.658,1.47,1.47,1.47s1.47-0.658,1.47-1.47s-0.658-1.47-1.47-1.47S46.025,8.763,46.025,9.575" stroke-linejoin="round" fill="#F7BD13" stroke="#000000"/>
            <path gorn="0.2.0.27"  stroke-width="0.25" stroke-linecap="round" stroke-miterlimit="10" id="connector15pad" d="M69.122,10.462c-0.051,1.044-0.833,1.906-1.866,2.059l0.009,0.024h-0.24l0.017-0.003c-1.208,0.059-2.235-0.872-2.295-2.08l-0.003,0.043v-4.56l0.003-0.017c0.057-1.166,1.02-2.083,2.187-2.083s2.13,0.916,2.187,2.083l-0.057,0.017v4.56 M65.585,8.195c0,0.746,0.604,1.35,1.35,1.35s1.35-0.604,1.35-1.35s-0.604-1.35-1.35-1.35S65.585,7.449,65.585,8.195" stroke-linejoin="round" fill="#F7BD13" stroke="#000000"/>
            <path  stroke-width="0.25" stroke-linecap="round" stroke-miterlimit="10" d="M128.585,51.785l0.06,0.24l0.06,0.3v0.3v0.24l-0.06,0.3l-0.06,0.3l-0.06,0.24l-0.12,0.3l-0.12,0.24l-0.12,0.24l-0.18,0.24l-0.18,0.18l-0.18,0.24l-0.18,0.18l-0.24,0.18l-0.24,0.12l-0.24,0.18l-0.24,0.12l-0.3,0.06l-0.24,0.06l-0.3,0.06l-0.3,0.06h-0.24l-0.3-0.06h-0.3l-0.24-0.06l-0.3-0.12l-0.24-0.06l-0.24-0.12l-0.24-0.18l-0.24-0.12l-0.24-0.24l-0.18-0.18l-0.18-0.18l-0.18-0.24l-0.12-0.24l-0.18-0.24l-0.06-0.3l-0.12-0.24l-0.06-0.3l-0.06-0.24v-0.3v-0.3v-0.24l0.06-0.3l0.06-0.3l0.12-0.24l0.06-0.24l0.18-0.3l0.12-0.24l0.18-0.18l0.18-0.24l0.18-0.18l0.24-0.18l0.24-0.18l0.24-0.12l0.24-0.12l0.24-0.12l0.3-0.06l0.24-0.06l0.3-0.06h0.3h0.24h0.3l0.3,0.06l0.24,0.06l0.3,0.12l0.24,0.12l0.24,0.12l0.24,0.12l0.24,0.18l0.18,0.18l0.18,0.24l0.18,0.24l0.18,0.18l0.12,0.3l0.12,0.24l0.12,0.24L128.585,51.785 M124.205,55.265l0.24,0.06l0.18,0.06l0.24,0.06h0.24h0.24l0.18-0.06h0.24l0.24-0.06l0.18-0.06l0.24-0.12l0.18-0.12l0.18-0.12l0.18-0.12l0.18-0.18l0.18-0.12l0.12-0.18l0.12-0.18l0.12-0.24l0.06-0.18l0.12-0.24l0.06-0.18l0.06-0.24v-0.24v-0.18v-0.24v-0.24l-0.06-0.18l-0.06-0.24l-0.12-0.24l-0.06-0.18l-0.12-0.18l-0.12-0.18l-0.12-0.18l-0.18-0.18l-0.18-0.18l-0.18-0.12l-0.18-0.12l-0.18-0.12l-0.24-0.06l-0.18-0.12h-0.24l-0.24-0.06l-0.18-0.06h-0.24l-0.24,0.06h-0.24l-0.18,0.06l-0.24,0.06l-0.18,0.06l-0.24,0.12l-0.18,0.12l-0.18,0.12l-0.18,0.18l-0.18,0.12l-0.12,0.18l-0.12,0.18l-0.12,0.18l-0.12,0.24l-0.06,0.18l-0.12,0.24v0.18l-0.06,0.24v0.24v0.24v0.18l0.06,0.24v0.24l0.12,0.18l0.06,0.24l0.12,0.18l0.12,0.18l0.12,0.18l0.12,0.18l0.18,0.18l0.18,0.12l0.18,0.12l0.18,0.12l0.24,0.12L124.205,55.265" stroke-linejoin="round" fill="#F7BD13" stroke="#000000"/>
            <path  stroke-width="0.25" stroke-linecap="round" stroke-miterlimit="10" d="M128.585,6.365l0.06,0.3l0.06,0.3v0.24v0.3l-0.06,0.3l-0.06,0.24l-0.06,0.3l-0.12,0.24l-0.12,0.24l-0.12,0.3l-0.18,0.18l-0.18,0.24l-0.18,0.24l-0.18,0.18l-0.24,0.18l-0.24,0.12l-0.24,0.12l-0.24,0.12l-0.3,0.12l-0.24,0.06l-0.3,0.06h-0.3h-0.24h-0.3l-0.3-0.06l-0.24-0.06l-0.3-0.06l-0.24-0.12l-0.24-0.12l-0.24-0.12l-0.24-0.18l-0.24-0.18l-0.18-0.18l-0.18-0.24l-0.18-0.18l-0.12-0.24l-0.18-0.3l-0.06-0.24l-0.12-0.24l-0.06-0.3l-0.06-0.3v-0.24v-0.3v-0.3l0.06-0.24l0.06-0.3l0.12-0.24l0.06-0.3l0.18-0.24l0.12-0.24l0.18-0.24l0.18-0.18l0.18-0.18l0.24-0.24l0.24-0.12l0.24-0.18l0.24-0.12l0.24-0.06l0.3-0.12l0.24-0.06h0.3l0.3-0.06h0.24l0.3,0.06l0.3,0.06l0.24,0.06l0.3,0.06l0.24,0.12l0.24,0.18l0.24,0.12l0.24,0.18l0.18,0.18l0.18,0.24l0.18,0.18l0.18,0.24l0.12,0.24l0.12,0.24l0.12,0.3L128.585,6.365 M124.205,9.905l0.24,0.06l0.18,0.06h0.24l0.24,0.06h0.24l0.18-0.06l0.24-0.06h0.24l0.18-0.12l0.24-0.06l0.18-0.12l0.18-0.12l0.18-0.12l0.18-0.18l0.18-0.18l0.12-0.18l0.12-0.18l0.12-0.18l0.06-0.18l0.12-0.24l0.06-0.24l0.06-0.18v-0.24v-0.24v-0.18v-0.24l-0.06-0.24l-0.06-0.18l-0.12-0.24l-0.06-0.18l-0.12-0.24l-0.12-0.18l-0.12-0.18l-0.18-0.12l-0.18-0.18l-0.18-0.12l-0.18-0.12l-0.18-0.12l-0.24-0.12l-0.18-0.06l-0.24-0.06h-0.24l-0.18-0.06h-0.24h-0.24l-0.24,0.06l-0.18,0.06l-0.24,0.06l-0.18,0.06l-0.24,0.12l-0.18,0.12l-0.18,0.12l-0.18,0.12l-0.18,0.18l-0.12,0.18l-0.12,0.18l-0.12,0.18l-0.12,0.18l-0.06,0.24l-0.12,0.18v0.24l-0.06,0.24v0.18v0.24v0.24l0.06,0.24v0.18l0.12,0.24l0.06,0.18l0.12,0.24l0.12,0.18l0.12,0.18l0.12,0.18l0.18,0.12l0.18,0.18l0.18,0.12l0.18,0.12l0.24,0.12L124.205,9.905" stroke-linejoin="round" fill="#F7BD13" stroke="#000000"/>
            <path  stroke-width="0.25" stroke-linecap="round" stroke-miterlimit="10" d="M10.145,51.785l0.06,0.24l0.06,0.3v0.3v0.24l-0.06,0.3l-0.06,0.3l-0.06,0.24l-0.12,0.3l-0.12,0.24l-0.12,0.24l-0.18,0.24l-0.18,0.18l-0.18,0.24l-0.18,0.18l-0.24,0.18l-0.24,0.12l-0.24,0.18l-0.3,0.12l-0.24,0.06l-0.24,0.06l-0.3,0.06l-0.3,0.06h-0.24l-0.3-0.06h-0.3l-0.24-0.06l-0.3-0.12l-0.24-0.06l-0.24-0.12l-0.3-0.18l-0.18-0.12l-0.24-0.24l-0.18-0.18l-0.18-0.18l-0.18-0.24l-0.18-0.24l-0.12-0.24l-0.12-0.3l-0.06-0.24l-0.06-0.3l-0.06-0.24v-0.3v-0.3v-0.24l0.06-0.3l0.06-0.3l0.06-0.24l0.12-0.24l0.12-0.3l0.18-0.24l0.18-0.18l0.18-0.24l0.18-0.18l0.24-0.18l0.18-0.18l0.3-0.12l0.24-0.12l0.24-0.12l0.3-0.06l0.24-0.06l0.3-0.06h0.3h0.24h0.3l0.3,0.06l0.24,0.06l0.24,0.12l0.3,0.12l0.24,0.12l0.24,0.12l0.24,0.18l0.18,0.18l0.18,0.24l0.18,0.24l0.18,0.18l0.12,0.3l0.12,0.24l0.12,0.24L10.145,51.785 M5.765,55.265l0.24,0.06l0.18,0.06l0.24,0.06h0.24h0.24l0.18-0.06h0.24l0.24-0.06l0.18-0.06l0.24-0.12l0.18-0.12l0.18-0.12l0.18-0.12l0.18-0.18l0.12-0.12l0.18-0.18l0.12-0.18l0.12-0.24l0.06-0.18l0.12-0.24l0.06-0.18v-0.24l0.06-0.24v-0.18v-0.24l-0.06-0.24v-0.18l-0.06-0.24l-0.12-0.24l-0.06-0.18l-0.12-0.18l-0.12-0.18l-0.18-0.18l-0.12-0.18l-0.18-0.18l-0.18-0.12l-0.18-0.12l-0.18-0.12l-0.24-0.06l-0.18-0.12h-0.24l-0.24-0.06l-0.18-0.06h-0.24l-0.24,0.06h-0.24l-0.18,0.06l-0.24,0.06l-0.18,0.06l-0.24,0.12l-0.18,0.12l-0.18,0.12l-0.18,0.18l-0.18,0.12l-0.12,0.18l-0.12,0.18l-0.12,0.18l-0.12,0.24l-0.12,0.18l-0.06,0.24l-0.06,0.18v0.24l-0.06,0.24v0.24l0.06,0.18v0.24l0.06,0.24l0.06,0.18l0.12,0.24l0.12,0.18l0.12,0.18l0.12,0.18l0.12,0.18l0.18,0.18l0.18,0.12l0.18,0.12l0.18,0.12l0.24,0.12L5.765,55.265" stroke-linejoin="round" fill="#F7BD13" stroke="#000000"/>
            <path  stroke-width="0.25" stroke-linecap="round" stroke-miterlimit="10" d="M10.145,6.365l0.06,0.3l0.06,0.3v0.24v0.3l-0.06,0.3l-0.06,0.24l-0.06,0.3l-0.12,0.24l-0.12,0.24l-0.12,0.3l-0.18,0.18l-0.18,0.24l-0.18,0.24l-0.18,0.18l-0.24,0.18l-0.24,0.12l-0.24,0.12l-0.3,0.12l-0.24,0.12l-0.24,0.06l-0.3,0.06h-0.3h-0.24h-0.3l-0.3-0.06l-0.24-0.06l-0.3-0.06l-0.24-0.12l-0.24-0.12l-0.3-0.12l-0.18-0.18l-0.24-0.18l-0.18-0.18l-0.18-0.24l-0.18-0.18l-0.18-0.24l-0.12-0.3l-0.12-0.24l-0.06-0.24l-0.06-0.3l-0.06-0.3v-0.24v-0.3v-0.3l0.06-0.24l0.06-0.3l0.06-0.24l0.12-0.3l0.12-0.24l0.18-0.24l0.18-0.24l0.18-0.18l0.18-0.18l0.24-0.24l0.18-0.12l0.3-0.18l0.24-0.12l0.24-0.06l0.3-0.12l0.24-0.06h0.3l0.3-0.06h0.24l0.3,0.06l0.3,0.06l0.24,0.06l0.24,0.06l0.3,0.12l0.24,0.18l0.24,0.12l0.24,0.18l0.18,0.18l0.18,0.24l0.18,0.18l0.18,0.24l0.12,0.24l0.12,0.24l0.12,0.3L10.145,6.365 M5.765,9.905l0.24,0.06l0.18,0.06h0.24l0.24,0.06h0.24l0.18-0.06l0.24-0.06h0.24l0.18-0.12l0.24-0.06l0.18-0.12l0.18-0.12l0.18-0.12l0.18-0.18l0.12-0.18l0.18-0.18l0.12-0.18l0.12-0.18l0.06-0.18l0.12-0.24l0.06-0.24v-0.18l0.06-0.24v-0.24v-0.18l-0.06-0.24v-0.24l-0.06-0.18l-0.12-0.24l-0.06-0.18l-0.12-0.24l-0.12-0.18l-0.18-0.18l-0.12-0.12l-0.18-0.18l-0.18-0.12l-0.18-0.12l-0.18-0.12l-0.24-0.12l-0.18-0.06l-0.24-0.06h-0.24l-0.18-0.06h-0.24h-0.24l-0.24,0.06l-0.18,0.06l-0.24,0.06l-0.18,0.06l-0.24,0.12l-0.18,0.12l-0.18,0.12l-0.18,0.12l-0.18,0.18l-0.12,0.18l-0.12,0.18l-0.12,0.18l-0.12,0.18l-0.12,0.24l-0.06,0.18l-0.06,0.24v0.24l-0.06,0.18v0.24l0.06,0.24v0.24l0.06,0.18l0.06,0.24l0.12,0.18l0.12,0.24l0.12,0.18l0.12,0.18l0.12,0.18l0.18,0.12l0.18,0.18l0.18,0.12l0.18,0.12l0.24,0.12L5.765,9.905" stroke-linejoin="round" fill="#F7BD13" stroke="#000000"/>
            <g >
                <path  stroke-width="0.25" stroke-linecap="round" stroke-miterlimit="10" d="M17.885,38.075c0-0.514,0.416-0.93,0.93-0.93s0.93,0.416,0.93,0.93c0,0.514-0.416,0.93-0.93,0.93S17.885,38.589,17.885,38.075" stroke-linejoin="round" fill="none" stroke="#000000"/>
                <path  stroke-width="0.25" stroke-linecap="round" stroke-miterlimit="10" d="M17.885,21.695c0,0.514,0.416,0.93,0.93,0.93s0.93-0.416,0.93-0.93s-0.416-0.93-0.93-0.93S17.885,21.181,17.885,21.695" stroke-linejoin="round" fill="none" stroke="#000000"/>
            </g>
        </g>
    </g>
</svg>
